SplineFontDB: 3.0
FontName: Mandali
FullName: Mandali
FamilyName: Mandali
OS2FamilyName: "Mandali"
OS2StyleName: "regular"
Weight: Regular
Copyright: Copyright (c) 2012, AP Society for Knowledge Networks, Hyderabad, INDIA.
Version: 1.0
FONDName: Mandali
ItalicAngle: 0
UnderlinePosition: -623
UnderlineWidth: 20
Ascent: 819
Descent: 205
InvalidEm: 1
UFOAscent: 895
UFODescent: -310
LayerCount: 2
Layer: 0 0 "Back" 1
Layer: 1 0 "Fore" 0
FSType: 0
OS2Version: 0
OS2_WeightWidthSlopeOnly: 0
OS2_UseTypoMetrics: 0
CreationTime: 1416058808
ModificationTime: 1416058808
PfmFamily: 16
TTFWeight: 400
TTFWidth: 5
LineGap: 0
VLineGap: 0
Panose: 0 0 0 0 0 0 0 0 0 0
OS2TypoAscent: 895
OS2TypoAOffset: 0
OS2TypoDescent: -310
OS2TypoDOffset: 0
OS2TypoLinegap: 448
OS2WinAscent: 895
OS2WinAOffset: 0
OS2WinDescent: 653
OS2WinDOffset: 0
HheadAscent: 1119
HheadAOffset: 0
HheadDescent: -534
HheadDOffset: 0
OS2SubXSize: 700
OS2SubYSize: 650
OS2SubXOff: 0
OS2SubYOff: 140
OS2SupXSize: 700
OS2SupYSize: 650
OS2SupXOff: 0
OS2SupYOff: 477
OS2StrikeYSize: 50
OS2StrikeYPos: 250
OS2CapHeight: 710
OS2XHeight: 455
OS2Vendor: 'GPK '
Lookup: 258 0 0 "'kern' Horizontal Kerning in Telugu2 lookup 0" { "'kern' Horizontal Kerning in Telugu2 lookup 0 subtable"  } ['kern' ('tel2' <'dflt' > ) ]
DEI: 91125
GroupKern: "uni0C36_uni0C40.abvs_uni0C30_un" "uni0C36_uni0C4D.blwf" 113
GroupKern: "uni0C36_uni0C40_uni0C30_uni0C4D" "uni0C36_uni0C4D.blwf" 128
LangName: 1033 "" "" "" "" "" "Version 1.00 August 11, 2013, initial release" "" "Mandali is a trademark of Andhrapradesh Society for Knowledge Networks." "Andhrapradesh Society for Knowledge Networks" "Purushoth Kumar Guthula" "Copyright (c) 2012 by Andhrapradesh Society for Knowledge Networks. All rights reserved." "" "" "SIL Open Font License 1.1" "http://scripts.sil.org/OFL"
PickledDataWithLists: "(dp1
S'com.fontlab.v2.tth'
p2
(dp3
S'stems'
p4
(dp5
S'X: 35'
p6
(dp7
S'width'
p8
I35
sS'horizontal'
p9
I00
sS'round'
p10
(dp11
S'132'
p12
I5
sS'44'
p13
I2
sS'0'
I1
sS'74'

StartChar: exclam
Encoding: 1 33 1
GlifName: exclam
Width: 322
VWidth: 0
Flags: W
LayerCount: 2
Back
Fore
SplineSet
218 48 m 256
NamedP: "hr00"
 218 81 191 108 160 108 c 256
 127 108 103 81 103 48 c 256
 103 13 131 -16 160 -16 c 256
 193 -16 218 12 218 48 c 256
NamedP: "hr00"
216 633 m 258
 216 680 200 718 157 718 c 256
 120 718 103 679 103 635 c 256
 103 616 106 588 111 550 c 256
 114 531 118 502 124 463 c 256
 135 390 144 315 142 236 c 258
 141 187 l 257
 178 187 l 257
 179 241 l 257
 179 288 l 258
 179 305 179 340 182 368 c 257
 183 389 185 415 191 447 c 258
 207 533 l 257
 213 574 l 257
 213 579 214 586 216 594 c 257
 216 611 l 257
 216 633 l 258
EndSplineSet
PickledDataWithLists: "(dp1
S'com.adobe.type.autohint'
p2
(S'data'
S'<data>\\n  <hintSetList>\\n    <hintset pointTag=\"hr00\">\\n      <hstem pos=\"5\" width=\"-21\"/>\\n      <hstem pos=\"-16\" width=\"124\"/>\\n      <hstem pos=\"718\" width=\"-20\"/>\\n      <vstem pos=\"103\" width=\"115\"/>\\n      <vstem pos=\"142\" width=\"37\"/>\\n    </hintset>\\n  </hintSetList>\\n  </data>'
Ntp3
s."
EndChar

StartChar: quotedbl
Encoding: 2 34 2
GlifName: quotedbl
Width: 401
VWidth: 0
Flags: W
LayerCount: 2
Back
Fore
SplineSet
297 529 m 257
NamedP: "hr00"
 326 862 l 257
 252 862 l 257
 252 529 l 257
 297 529 l 257
NamedP: "hr00"
114 529 m 257
 142 862 l 257
 69 862 l 257
 69 529 l 257
 114 529 l 257
EndSplineSet
PickledDataWithLists: "(dp1
S'com.adobe.type.autohint'
p2
(S'data'
S'<data>\\n  <hintSetList>\\n    <hintset pointTag=\"hr00\">\\n      <hstem pos=\"529\" width=\"333\"/>\\n      <vstem pos=\"69\" width=\"45\"/>\\n      <vstem pos=\"252\" width=\"45\"/>\\n    </hintset>\\n  </hintSetList>\\n  </data>'
Ntp3
s."
EndChar

StartChar: numbersign
Encoding: 3 35 3
GlifName: numbersign
Width: 1012
VWidth: 0
Flags: W
LayerCount: 2
Back
Fore
SplineSet
586 280 m 257
NamedP: "hr00"
 345 280 l 257
 427 521 l 257
 664 521 l 257
 586 280 l 257
NamedP: "hr00"
350 521 m 257
 273 280 l 257
 69 280 l 257
 69 205 l 257
 249 205 l 257
 180 -9 l 257
 253 -9 l 257
 324 205 l 257
 563 205 l 257
 495 -9 l 257
 568 -9 l 257
 637 205 l 257
 856 205 l 257
 856 280 l 257
 659 280 l 257
 739 521 l 257
 936 521 l 257
 936 594 l 257
 761 594 l 257
 821 778 l 257
 746 778 l 257
 687 594 l 257
 447 594 l 257
 507 778 l 257
 432 778 l 257
 374 594 l 257
 149 594 l 257
 149 521 l 257
 350 521 l 257
EndSplineSet
PickledDataWithLists: "(dp1
S'com.adobe.type.autohint'
p2
(S'data'
S'<data>\\n  <hintSetList>\\n    <hintset pointTag=\"hr00\">\\n      <hstem pos=\"12\" width=\"-21\"/>\\n      <hstem pos=\"205\" width=\"75\"/>\\n      <hstem pos=\"521\" width=\"73\"/>\\n      <vstem pos=\"69\" width=\"867\"/>\\n    </hintset>\\n  </hintSetList>\\n  </data>'
Ntp3
s."
EndChar

StartChar: dollar
Encoding: 4 36 4
GlifName: dollar
Width: 745
VWidth: 0
Flags: W
LayerCount: 2
Back
Fore
SplineSet
330 489 m 257
NamedP: "hr00"
 234 513 170 577 170 648 c 256
 170 680 185 708 215 731 c 256
 246 755 284 767 330 767 c 257
 330 489 l 257
NamedP: "hr00"
388 366 m 257
 443 357 488 337 523 305 c 256
 558 273 576 237 576 197 c 256
 576 151 558 112 521 79 c 256
 484 47 440 31 388 31 c 257
 388 366 l 257
105 604 m 256
 105 557 125 513 166 472 c 256
 207 431 261 401 330 382 c 257
 330 36 l 257
 211 57 121 138 92 246 c 257
 69 246 l 257
 104 -6 l 257
 134 -6 l 257
 134 7 160 21 193 21 c 256
 209 21 232 16 261 5 c 256
 290 -5 313 -10 330 -10 c 257
 330 -141 l 257
 388 -141 l 257
 388 -12 l 257
 467 -9 534 16 588 64 c 256
 642 113 669 170 669 237 c 256
 669 284 643 328 591 372 c 256
 540 415 472 449 388 472 c 257
 388 767 l 257
 505 748 596 670 625 566 c 257
 641 566 l 257
 621 811 l 257
 589 811 l 257
 584 791 561 774 538 774 c 256
 521 774 496 779 463 790 c 256
 431 801 406 806 388 806 c 257
 388 945 l 257
 330 945 l 257
 330 811 l 257
 266 810 212 790 169 749 c 256
 126 708 105 660 105 604 c 256
EndSplineSet
PickledDataWithLists: "(dp1
S'com.adobe.type.autohint'
p2
(S'data'
S'<data>\\n  <hintSetList>\\n    <hintset pointTag=\"hr00\">\\n      <hstem pos=\"-12\" width=\"43\"/>\\n      <hstem pos=\"15\" width=\"-21\"/>\\n      <hstem pos=\"767\" width=\"44\"/>\\n      <vstem pos=\"105\" width=\"65\"/>\\n      <vstem pos=\"330\" width=\"58\"/>\\n      <vstem pos=\"576\" width=\"93\"/>\\n    </hintset>\\n  </hintSetList>\\n  </data>'
Ntp3
s."
EndChar

StartChar: percent
Encoding: 5 37 5
GlifName: percent
Width: 759
VWidth: 0
Flags: W
LayerCount: 2
Back
Fore
SplineSet
662 268 m 256
NamedP: "hr00"
 662 226 650 182 625 136 c 256
 601 90 572 62 537 51 c 256
 526 47 517 45 511 45 c 256
 480 45 456 68 456 108 c 256
 456 121 460 139 467 161 c 257
 504 246 l 257
 521 277 533 297 542 308 c 256
 562 334 581 347 598 347 c 256
 613 347 624 343 631 336 c 257
 652 321 662 299 662 268 c 256
NamedP: "hr00"
310 563 m 256
 310 520 298 475 274 429 c 256
 250 383 221 354 187 342 c 256
 177 339 169 337 163 337 c 256
 130 337 104 361 104 401 c 256
 104 418 110 441 122 471 c 256
 130 489 140 511 154 538 c 256
 168 565 181 587 191 600 c 256
 210 627 230 639 248 639 c 256
 261 639 272 636 281 629 c 257
 300 610 310 588 310 563 c 256
688 289 m 257
 680 348 638 382 586 382 c 256
 535 382 489 354 448 298 c 256
 407 243 386 187 386 131 c 256
 386 55 431 12 500 12 c 256
 545 12 583 31 616 69 c 256
 644 102 666 144 682 197 c 256
 687 215 690 234 690 255 c 256
 690 266 691 277 688 289 c 257
523 690 m 257
 518 683 483 616 417 490 c 256
 333 332 276 223 245 164 c 256
 215 105 186 49 157 -5 c 257
 202 -5 l 257
 567 690 l 257
 523 690 l 257
339 582 m 256
 328 644 293 675 235 675 c 256
 184 675 138 648 96 593 c 256
 54 538 33 482 33 425 c 256
 33 348 79 303 151 303 c 256
 195 303 233 323 266 362 c 256
 291 393 313 435 330 490 c 257
 337 507 340 528 340 553 c 256
 340 564 340 574 339 582 c 256
EndSplineSet
PickledDataWithLists: "(dp1
S'com.adobe.type.autohint'
p2
(S'data'
S'<data>\\n  <hintSetList>\\n    <hintset pointTag=\"hr00\">\\n      <hstem pos=\"16\" width=\"-21\"/>\\n      <hstem pos=\"12\" width=\"33\"/>\\n      <hstem pos=\"303\" width=\"34\"/>\\n      <hstem pos=\"347\" width=\"35\"/>\\n      <hstem pos=\"639\" width=\"36\"/>\\n      <vstem pos=\"33\" width=\"71\"/>\\n      <vstem pos=\"310\" width=\"30\"/>\\n      <vstem pos=\"386\" width=\"70\"/>\\n      <vstem pos=\"662\" width=\"28\"/>\\n    </hintset>\\n  </hintSetList>\\n  </data>'
Ntp3
s."
EndChar

StartChar: ampersand
Encoding: 6 38 6
GlifName: ampersand
Width: 917
VWidth: 0
Flags: W
LayerCount: 2
Back
Fore
SplineSet
449 109 m 257
NamedP: "hr00"
 404 70 347 49 304 49 c 256
 251 49 205 70 167 112 c 256
 129 154 110 204 110 261 c 256
 110 300 118 334 135 363 c 256
 149 387 173 413 207 441 c 257
 233 392 261 347 290 306 c 256
 326 255 379 189 449 109 c 257
NamedP: "hr00"
374 700 m 256
 374 673 362 643 337 610 c 256
 313 577 288 551 262 533 c 257
 255 557 248 583 243 611 c 256
 238 639 235 660 235 675 c 256
 235 743 251 785 310 785 c 256
 350 785 374 740 374 700 c 256
825 95 m 257
 802 84 787 78 779 76 c 256
 772 75 763 74 752 74 c 256
 723 74 690 81 653 97 c 256
 626 108 593 128 554 153 c 257
 611 218 646 286 646 362 c 257
 645 371 647 399 640 411 c 257
 662 415 681 417 698 417 c 256
 734 417 769 413 800 406 c 257
 800 434 806 459 817 481 c 257
 594 478 l 258
 554 477 516 477 480 481 c 257
 448 428 l 257
 453 420 l 257
 523 416 l 258
 540 415 549 413 551 412 c 256
 554 411 557 409 562 404 c 257
 572 389 577 366 577 337 c 256
 577 290 560 229 520 178 c 257
 469 235 425 284 391 328 c 256
 350 380 314 437 281 494 c 257
 331 529 369 564 395 598 c 256
 431 643 449 689 449 736 c 256
 449 811 414 849 344 849 c 256
 321 849 299 843 281 828 c 258
 250 802 l 257
 192 748 l 257
 168 720 156 683 156 638 c 256
 156 594 168 535 189 476 c 257
 136 447 94 412 63 371 c 256
 28 324 11 273 11 218 c 256
 11 151 33 94 77 49 c 256
 121 4 179 -18 252 -18 c 256
 335 -18 411 15 480 78 c 257
 509 53 543 31 583 12 c 256
 624 -7 656 -17 681 -17 c 257
 696 -13 722 -15 734 -12 c 257
 753 8 771 25 789 40 c 257
 830 67 l 257
 825 95 l 257
EndSplineSet
PickledDataWithLists: "(dp1
S'com.adobe.type.autohint'
p2
(S'data'
S'<data>\\n  <hintSetList>\\n    <hintset pointTag=\"hr00\">\\n      <hstem pos=\"-18\" width=\"67\"/>\\n      <hstem pos=\"-17\" width=\"91\"/>\\n      <hstem pos=\"417\" width=\"61\"/>\\n      <hstem pos=\"418\" width=\"10\"/>\\n      <hstem pos=\"785\" width=\"64\"/>\\n      <vstem pos=\"11\" width=\"99\"/>\\n      <vstem pos=\"156\" width=\"79\"/>\\n      <vstem pos=\"374\" width=\"75\"/>\\n      <vstem pos=\"577\" width=\"69\"/>\\n    </hintset>\\n  </hintSetList>\\n  </data>'
Ntp3
s."
EndChar

StartChar: quotesingle
Encoding: 7 39 7
GlifName: quotesingle
Width: 217
VWidth: 0
Flags: W
LayerCount: 2
Back
Fore
SplineSet
114 529 m 257
NamedP: "hr00"
 142 862 l 257
 69 862 l 257
 69 529 l 257
 114 529 l 257
NamedP: "hr00"
EndSplineSet
PickledDataWithLists: "(dp1
S'com.adobe.type.autohint'
p2
(S'data'
S'<data>\\n  <hintSetList>\\n    <hintset pointTag=\"hr00\">\\n      <hstem pos=\"529\" width=\"333\"/>\\n      <vstem pos=\"69\" width=\"45\"/>\\n    </hintset>\\n  </hintSetList>\\n  </data>'
Ntp3
s."
EndChar

StartChar: parenleft
Encoding: 8 40 8
GlifName: parenleft
Width: 421
VWidth: 0
Flags: W
LayerCount: 2
Back
Fore
SplineSet
69 258 m 256
NamedP: "hr00"
 69 143 91 36 135 -64 c 256
 179 -165 241 -249 320 -316 c 257
 344 -303 l 257
 209 -143 134 59 134 258 c 256
 134 461 209 661 344 820 c 257
 320 833 l 257
 241 767 179 684 135 583 c 256
 91 483 69 375 69 258 c 256
NamedP: "hr00"
EndSplineSet
PickledDataWithLists: "(dp1
S'com.adobe.type.autohint'
p2
(S'data'
S'<data>\\n  <hintSetList>\\n    <hintset pointTag=\"hr00\">\\n      <hstem pos=\"-316\" width=\"1149\"/>\\n      <vstem pos=\"69\" width=\"65\"/>\\n    </hintset>\\n  </hintSetList>\\n  </data>'
Ntp3
s."
EndChar

StartChar: parenright
Encoding: 9 41 9
GlifName: parenright
Width: 421
VWidth: 0
Flags: W
LayerCount: 2
Back
Fore
SplineSet
344 258 m 256
NamedP: "hr00"
 344 375 321 483 278 583 c 256
 234 684 173 767 94 833 c 257
 69 820 l 257
 204 661 279 461 279 258 c 256
 279 59 204 -143 69 -303 c 257
 94 -316 l 257
 173 -249 234 -165 278 -64 c 256
 321 36 344 143 344 258 c 256
NamedP: "hr00"
EndSplineSet
PickledDataWithLists: "(dp1
S'com.adobe.type.autohint'
p2
(S'data'
S'<data>\\n  <hintSetList>\\n    <hintset pointTag=\"hr00\">\\n      <hstem pos=\"-316\" width=\"1149\"/>\\n      <vstem pos=\"279\" width=\"65\"/>\\n    </hintset>\\n  </hintSetList>\\n  </data>'
Ntp3
s."
EndChar

StartChar: asterisk
Encoding: 10 42 10
GlifName: asterisk
Width: 742
VWidth: 0
Flags: W
LayerCount: 2
Back
Fore
SplineSet
242 360 m 257
NamedP: "hr00"
 0 360 l 257
 197 214 l 257
 121 -18 l 257
 315 126 l 257
 509 -18 l 257
 434 214 l 257
 629 360 l 257
 386 360 l 257
 315 587 l 257
 242 360 l 257
NamedP: "hr00"
EndSplineSet
PickledDataWithLists: "(dp1
S'com.adobe.type.autohint'
p2
(S'data'
S'<data>\\n  <hintSetList>\\n    <hintset pointTag=\"hr00\">\\n      <hstem pos=\"3\" width=\"-21\"/>\\n      <vstem pos=\"0\" width=\"629\"/>\\n    </hintset>\\n  </hintSetList>\\n  </data>'
Ntp3
s."
EndChar

StartChar: plus
Encoding: 11 43 11
GlifName: plus
Width: 614
VWidth: 0
Flags: W
LayerCount: 2
Back
Fore
SplineSet
69 200 m 257
NamedP: "hr00"
 271 200 l 257
 271 -3 l 257
 332 -3 l 257
 332 200 l 257
 537 200 l 257
 537 261 l 257
 332 261 l 257
 332 464 l 257
 271 464 l 257
 271 261 l 257
 69 261 l 257
 69 200 l 257
NamedP: "hr00"
EndSplineSet
PickledDataWithLists: "(dp1
S'com.adobe.type.autohint'
p2
(S'data'
S'<data>\\n  <hintSetList>\\n    <hintset pointTag=\"hr00\">\\n      <hstem pos=\"18\" width=\"-21\"/>\\n      <hstem pos=\"200\" width=\"61\"/>\\n      <vstem pos=\"271\" width=\"61\"/>\\n    </hintset>\\n  </hintSetList>\\n  </data>'
Ntp3
s."
EndChar

StartChar: comma
Encoding: 12 44 12
GlifName: comma
Width: 252
VWidth: 0
Flags: W
LayerCount: 2
Back
Fore
SplineSet
179 8 m 257
NamedP: "hr00"
 180 12 181 18 181 27 c 256
 181 72 159 104 116 104 c 256
 105 104 93 98 81 85 c 256
 70 72 64 60 64 49 c 256
 64 28 71 14 85 5 c 257
 104 0 l 257
 122 0 l 257
 131 1 l 257
 138 -1 l 257
 141 -4 142 -8 142 -14 c 256
 142 -26 136 -41 125 -58 c 256
 118 -69 111 -79 102 -88 c 258
 78 -111 l 257
 91 -130 l 257
 113 -113 129 -99 140 -88 c 256
 166 -62 179 -30 179 8 c 257
NamedP: "hr00"
EndSplineSet
PickledDataWithLists: "(dp1
S'com.adobe.type.autohint'
p2
(S'data'
S'<data>\\n  <hintSetList>\\n    <hintset pointTag=\"hr00\">\\n      <hstem pos=\"0\" width=\"104\"/>\\n      <vstem pos=\"142\" width=\"39\"/>\\n    </hintset>\\n  </hintSetList>\\n  </data>'
Ntp3
s."
EndChar

StartChar: hyphen
Encoding: 13 45 13
GlifName: hyphen
Width: 562
VWidth: 0
Flags: W
LayerCount: 2
Back
Fore
SplineSet
69 198 m 257
NamedP: "hr00"
 486 198 l 257
 486 257 l 257
 69 257 l 257
 69 198 l 257
NamedP: "hr00"
EndSplineSet
PickledDataWithLists: "(dp1
S'com.adobe.type.autohint'
p2
(S'data'
S'<data>\\n  <hintSetList>\\n    <hintset pointTag=\"hr00\">\\n      <hstem pos=\"198\" width=\"59\"/>\\n      <vstem pos=\"69\" width=\"417\"/>\\n    </hintset>\\n  </hintSetList>\\n  </data>'
Ntp3
s."
EndChar

StartChar: period
Encoding: 14 46 14
GlifName: period
Width: 252
VWidth: 0
Flags: W
LayerCount: 2
Back
Fore
SplineSet
169 52 m 256
NamedP: "hr00"
 169 80 145 105 120 105 c 256
 91 105 68 80 68 52 c 256
 68 24 91 -1 120 -1 c 256
 145 -1 169 24 169 52 c 256
NamedP: "hr00"
EndSplineSet
PickledDataWithLists: "(dp1
S'com.adobe.type.autohint'
p2
(S'data'
S'<data>\\n  <hintSetList>\\n    <hintset pointTag=\"hr00\">\\n      <hstem pos=\"20\" width=\"-21\"/>\\n      <hstem pos=\"-1\" width=\"106\"/>\\n      <vstem pos=\"68\" width=\"101\"/>\\n    </hintset>\\n  </hintSetList>\\n  </data>'
Ntp3
s."
EndChar

StartChar: slash
Encoding: 15 47 15
GlifName: slash
Width: 646
VWidth: 0
Flags: W
LayerCount: 2
Back
Fore
SplineSet
121 -148 m 257
NamedP: "hr00"
 568 749 l 257
 517 749 l 257
 69 -148 l 257
 121 -148 l 257
NamedP: "hr00"
EndSplineSet
PickledDataWithLists: "(dp1
S'com.adobe.type.autohint'
p2
(S'data'
S'<data>\\n  <hintSetList>\\n    <hintset pointTag=\"hr00\">\\n      <hstem pos=\"-148\" width=\"897\"/>\\n      <vstem pos=\"69\" width=\"499\"/>\\n    </hintset>\\n  </hintSetList>\\n  </data>'
Ntp3
s."
EndChar

StartChar: zero
Encoding: 16 48 16
GlifName: zero
Width: 563
VWidth: 0
Flags: W
LayerCount: 2
Back
Fore
SplineSet
279 17 m 256
NamedP: "hr00"
 232 17 195 47 168 107 c 256
 141 168 127 248 127 347 c 256
 127 443 141 521 168 580 c 256
 195 639 232 669 279 669 c 256
 324 669 360 639 387 580 c 256
 414 521 428 443 428 347 c 256
 428 248 414 168 387 107 c 256
 360 47 324 17 279 17 c 256
NamedP: "hr00"
279 -16 m 256
 352 -16 410 17 454 82 c 256
 499 148 521 236 521 347 c 256
 521 456 498 544 454 609 c 256
 409 675 352 708 279 708 c 256
 206 708 146 675 101 609 c 256
 56 544 34 456 34 347 c 256
 34 236 56 148 101 82 c 256
 146 17 206 -16 279 -16 c 256
EndSplineSet
PickledDataWithLists: "(dp1
S'com.adobe.type.autohint'
p2
(S'data'
S'<data>\\n  <hintSetList>\\n    <hintset pointTag=\"hr00\">\\n      <hstem pos=\"-16\" width=\"33\"/>\\n      <hstem pos=\"669\" width=\"39\"/>\\n      <vstem pos=\"34\" width=\"93\"/>\\n      <vstem pos=\"428\" width=\"93\"/>\\n    </hintset>\\n  </hintSetList>\\n  </data>'
Ntp3
s."
EndChar

StartChar: one
Encoding: 17 49 17
GlifName: one
Width: 563
VWidth: 0
Flags: W
LayerCount: 2
Back
Fore
SplineSet
423 -6 m 257
NamedP: "hr00"
 423 23 l 257
 387 23 l 258
 354 23 325 46 325 75 c 258
 325 706 l 257
 134 611 l 257
 146 582 l 257
 169 595 194 605 209 605 c 256
 229 605 242 595 242 582 c 258
 242 70 l 258
 242 46 208 23 171 23 c 258
 133 23 l 257
 133 -6 l 257
 423 -6 l 257
NamedP: "hr00"
EndSplineSet
PickledDataWithLists: "(dp1
S'com.adobe.type.autohint'
p2
(S'data'
S'<data>\\n  <hintSetList>\\n    <hintset pointTag=\"hr00\">\\n      <hstem pos=\"-6\" width=\"29\"/>\\n      <vstem pos=\"242\" width=\"83\"/>\\n    </hintset>\\n  </hintSetList>\\n  </data>'
Ntp3
s."
EndChar

StartChar: two
Encoding: 18 50 18
GlifName: two
Width: 561
VWidth: 0
Flags: W
LayerCount: 2
Back
Fore
SplineSet
457 -6 m 257
NamedP: "hr00"
 509 117 l 257
 484 122 l 257
 472 91 447 67 419 67 c 258
 152 67 l 257
 262 198 340 298 387 366 c 256
 434 435 457 491 457 534 c 256
 457 581 439 621 402 656 c 256
 366 690 323 708 273 708 c 256
 217 708 167 689 123 650 c 256
 80 611 53 564 42 507 c 257
 72 500 l 257
 78 538 96 570 127 596 c 256
 158 622 193 635 233 635 c 256
 272 635 306 619 333 588 c 256
 360 557 374 519 374 474 c 256
 374 417 324 329 224 211 c 258
 41 -6 l 257
 457 -6 l 257
NamedP: "hr00"
EndSplineSet
PickledDataWithLists: "(dp1
S'com.adobe.type.autohint'
p2
(S'data'
S'<data>\\n  <hintSetList>\\n    <hintset pointTag=\"hr00\">\\n      <hstem pos=\"-6\" width=\"73\"/>\\n      <hstem pos=\"635\" width=\"73\"/>\\n      <vstem pos=\"42\" width=\"30\"/>\\n      <vstem pos=\"374\" width=\"83\"/>\\n    </hintset>\\n  </hintSetList>\\n  </data>'
Ntp3
s."
EndChar

StartChar: three
Encoding: 19 51 19
GlifName: three
Width: 562
VWidth: 0
Flags: W
LayerCount: 2
Back
Fore
SplineSet
199 -30 m 256
NamedP: "hr00"
 278 -30 344 -5 399 44 c 256
 454 94 481 154 481 224 c 256
 481 295 432 360 344 395 c 257
 411 428 446 493 446 568 c 256
 446 603 430 633 397 657 c 256
 364 681 325 693 278 693 c 256
 233 693 191 680 154 653 c 256
 117 627 90 593 73 550 c 257
 103 528 l 257
 118 561 139 587 166 608 c 256
 193 629 221 640 248 640 c 256
 316 640 369 591 369 530 c 256
 369 488 353 451 321 418 c 256
 289 385 249 366 201 359 c 257
 201 336 l 257
 248 336 l 258
 289 336 325 320 354 288 c 256
 383 257 398 219 398 174 c 256
 398 131 385 95 358 64 c 256
 332 33 300 18 261 18 c 256
 243 18 218 24 185 37 c 256
 153 50 128 57 111 57 c 256
 90 57 73 44 73 27 c 256
 73 -4 126 -30 199 -30 c 256
NamedP: "hr00"
EndSplineSet
PickledDataWithLists: "(dp1
S'com.adobe.type.autohint'
p2
(S'data'
S'<data>\\n  <hintSetList>\\n    <hintset pointTag=\"hr00\">\\n      <hstem pos=\"-30\" width=\"48\"/>\\n      <hstem pos=\"336\" width=\"23\"/>\\n      <hstem pos=\"640\" width=\"53\"/>\\n      <vstem pos=\"369\" width=\"77\"/>\\n      <vstem pos=\"398\" width=\"83\"/>\\n    </hintset>\\n  </hintSetList>\\n  </data>'
Ntp3
s."
EndChar

StartChar: four
Encoding: 20 52 20
GlifName: four
Width: 563
VWidth: 0
Flags: W
LayerCount: 2
Back
Fore
SplineSet
340 594 m 257
NamedP: "hr00"
 340 236 l 257
 78 236 l 257
 340 594 l 257
NamedP: "hr00"
412 -6 m 257
 412 171 l 257
 521 171 l 257
 521 236 l 257
 412 236 l 257
 412 699 l 257
 368 699 l 257
 34 237 l 257
 34 171 l 257
 340 171 l 257
 340 -6 l 257
 412 -6 l 257
EndSplineSet
PickledDataWithLists: "(dp1
S'com.adobe.type.autohint'
p2
(S'data'
S'<data>\\n  <hintSetList>\\n    <hintset pointTag=\"hr00\">\\n      <hstem pos=\"15\" width=\"-21\"/>\\n      <hstem pos=\"171\" width=\"65\"/>\\n      <vstem pos=\"34\" width=\"44\"/>\\n      <vstem pos=\"340\" width=\"72\"/>\\n    </hintset>\\n  </hintSetList>\\n  </data>'
Ntp3
s."
EndChar

StartChar: five
Encoding: 21 53 21
GlifName: five
Width: 562
VWidth: 0
Flags: W
LayerCount: 2
Back
Fore
SplineSet
190 -16 m 256
NamedP: "hr00"
 374 -16 483 81 483 249 c 256
 483 305 454 358 397 409 c 256
 340 460 265 497 170 522 c 257
 222 625 l 257
 454 625 l 257
 492 718 l 257
 476 718 l 257
 465 705 449 699 436 699 c 258
 212 699 l 257
 95 448 l 257
 187 431 264 400 326 354 c 256
 388 309 419 260 419 209 c 256
 419 158 404 114 374 79 c 256
 345 44 310 26 269 26 c 256
 237 26 214 31 199 39 c 256
 151 65 124 78 112 78 c 256
 87 78 64 61 64 41 c 256
 64 10 117 -16 190 -16 c 256
NamedP: "hr00"
EndSplineSet
PickledDataWithLists: "(dp1
S'com.adobe.type.autohint'
p2
(S'data'
S'<data>\\n  <hintSetList>\\n    <hintset pointTag=\"hr00\">\\n      <hstem pos=\"-16\" width=\"42\"/>\\n      <hstem pos=\"625\" width=\"74\"/>\\n      <hstem pos=\"625\" width=\"93\"/>\\n      <vstem pos=\"419\" width=\"64\"/>\\n    </hintset>\\n  </hintSetList>\\n  </data>'
Ntp3
s."
EndChar

StartChar: six
Encoding: 22 54 22
GlifName: six
Width: 562
VWidth: 0
Flags: W
LayerCount: 2
Back
Fore
SplineSet
300 16 m 256
NamedP: "hr00"
 256 16 218 39 186 86 c 256
 155 133 139 190 139 257 c 256
 139 293 145 326 154 358 c 257
 181 390 220 408 260 408 c 256
 304 408 342 387 373 346 c 256
 405 305 421 256 421 198 c 256
 421 148 409 105 386 69 c 256
 363 34 334 16 300 16 c 256
NamedP: "hr00"
291 -16 m 256
 350 -16 401 10 443 62 c 256
 486 114 507 176 507 249 c 256
 507 302 488 346 449 385 c 256
 410 424 364 443 309 443 c 256
 244 443 196 430 167 395 c 257
 189 481 228 550 285 601 c 256
 342 653 405 683 475 690 c 257
 475 718 l 257
 358 718 257 675 172 589 c 256
 88 503 46 399 46 277 c 256
 46 196 70 127 118 70 c 256
 166 13 224 -16 291 -16 c 256
EndSplineSet
PickledDataWithLists: "(dp1
S'com.adobe.type.autohint'
p2
(S'data'
S'<data>\\n  <hintSetList>\\n    <hintset pointTag=\"hr00\">\\n      <hstem pos=\"-16\" width=\"32\"/>\\n      <hstem pos=\"408\" width=\"35\"/>\\n      <hstem pos=\"690\" width=\"28\"/>\\n      <vstem pos=\"46\" width=\"93\"/>\\n      <vstem pos=\"421\" width=\"86\"/>\\n    </hintset>\\n  </hintSetList>\\n  </data>'
Ntp3
s."
EndChar

StartChar: seven
Encoding: 23 55 23
GlifName: seven
Width: 561
VWidth: 0
Flags: W
LayerCount: 2
Back
Fore
SplineSet
273 -6 m 257
NamedP: "hr00"
 503 699 l 257
 100 699 l 257
 51 560 l 257
 61 548 l 257
 82 592 120 625 157 625 c 258
 426 625 l 257
 213 -6 l 257
 273 -6 l 257
NamedP: "hr00"
EndSplineSet
PickledDataWithLists: "(dp1
S'com.adobe.type.autohint'
p2
(S'data'
S'<data>\\n  <hintSetList>\\n    <hintset pointTag=\"hr00\">\\n      <hstem pos=\"15\" width=\"-21\"/>\\n      <hstem pos=\"625\" width=\"74\"/>\\n      <vstem pos=\"51\" width=\"452\"/>\\n    </hintset>\\n  </hintSetList>\\n  </data>'
Ntp3
s."
EndChar

StartChar: eight
Encoding: 24 56 24
GlifName: eight
Width: 562
VWidth: 0
Flags: W
LayerCount: 2
Back
Fore
SplineSet
292 397 m 257
NamedP: "hr00"
 205 457 156 525 156 582 c 256
 156 635 207 677 267 677 c 256
 342 677 398 632 398 573 c 256
 398 509 360 445 292 397 c 257
NamedP: "hr00"
287 16 m 256
 250 16 218 29 191 54 c 256
 164 80 151 112 151 150 c 256
 151 217 181 282 238 329 c 257
 350 265 419 193 419 140 c 256
 419 105 406 75 380 51 c 256
 354 28 323 16 287 16 c 256
287 -16 m 256
 340 -16 386 1 424 35 c 256
 462 70 481 111 481 158 c 256
 481 243 423 326 322 385 c 257
 411 438 462 505 462 564 c 256
 462 605 444 639 407 666 c 256
 370 694 324 708 267 708 c 256
 218 708 176 691 140 656 c 256
 105 622 87 581 87 534 c 256
 87 477 133 406 225 347 c 257
 126 291 73 222 73 163 c 256
 73 114 94 71 136 36 c 256
 178 1 228 -16 287 -16 c 256
EndSplineSet
PickledDataWithLists: "(dp1
S'com.adobe.type.autohint'
p2
(S'data'
S'<data>\\n  <hintSetList>\\n    <hintset pointTag=\"hr00\">\\n      <hstem pos=\"-16\" width=\"32\"/>\\n      <hstem pos=\"677\" width=\"31\"/>\\n      <vstem pos=\"73\" width=\"78\"/>\\n      <vstem pos=\"87\" width=\"69\"/>\\n      <vstem pos=\"398\" width=\"64\"/>\\n      <vstem pos=\"419\" width=\"62\"/>\\n    </hintset>\\n  </hintSetList>\\n  </data>'
Ntp3
s."
EndChar

StartChar: nine
Encoding: 25 57 25
GlifName: nine
Width: 561
VWidth: 0
Flags: W
LayerCount: 2
Back
Fore
SplineSet
284 298 m 256
NamedP: "hr00"
 244 298 210 316 183 352 c 256
 156 389 142 432 142 483 c 256
 142 538 153 585 174 624 c 256
 196 663 223 683 254 683 c 256
 358 683 413 564 413 336 c 257
 388 312 339 298 284 298 c 256
NamedP: "hr00"
98 -36 m 257
 216 -15 314 34 391 112 c 256
 469 190 508 278 508 376 c 256
 508 469 484 547 436 611 c 256
 388 676 330 708 263 708 c 256
 204 708 154 683 112 634 c 256
 70 585 49 525 49 455 c 256
 49 396 68 347 106 306 c 256
 144 265 190 245 243 245 c 256
 303 245 357 264 409 307 c 257
 396 232 361 166 302 110 c 256
 244 55 173 16 90 -5 c 257
 98 -36 l 257
EndSplineSet
PickledDataWithLists: "(dp1
S'com.adobe.type.autohint'
p2
(S'data'
S'<data>\\n  <hintSetList>\\n    <hintset pointTag=\"hr00\">\\n      <hstem pos=\"16\" width=\"-21\"/>\\n      <hstem pos=\"245\" width=\"53\"/>\\n      <hstem pos=\"683\" width=\"25\"/>\\n      <vstem pos=\"49\" width=\"93\"/>\\n      <vstem pos=\"413\" width=\"95\"/>\\n    </hintset>\\n  </hintSetList>\\n  </data>'
Ntp3
s."
EndChar

StartChar: colon
Encoding: 26 58 26
GlifName: colon
Width: 252
VWidth: 0
Flags: W
LayerCount: 2
Back
Fore
SplineSet
173 44 m 256
NamedP: "hr00"
 173 73 149 97 121 97 c 256
 96 97 72 72 72 44 c 256
 72 13 94 -8 121 -8 c 256
 150 -8 173 15 173 44 c 256
NamedP: "hr00"
173 371 m 256
 173 400 148 425 121 425 c 256
 94 425 72 402 72 371 c 256
 72 343 96 318 121 318 c 256
 149 318 173 344 173 371 c 256
EndSplineSet
PickledDataWithLists: "(dp1
S'com.adobe.type.autohint'
p2
(S'data'
S'<data>\\n  <hintSetList>\\n    <hintset pointTag=\"hr00\">\\n      <hstem pos=\"13\" width=\"-21\"/>\\n      <hstem pos=\"-8\" width=\"105\"/>\\n      <hstem pos=\"318\" width=\"107\"/>\\n      <vstem pos=\"72\" width=\"101\"/>\\n    </hintset>\\n  </hintSetList>\\n  </data>'
Ntp3
s."
EndChar

StartChar: semicolon
Encoding: 27 59 27
GlifName: semicolon
Width: 322
VWidth: 0
Flags: W
LayerCount: 2
Back
Fore
SplineSet
220 1 m 256
NamedP: "hr00"
 220 57 198 89 150 89 c 256
 126 89 103 67 103 43 c 256
 103 23 110 9 124 0 c 257
 137 -4 145 -6 150 -6 c 256
 157 -6 162 -6 167 -5 c 258
 176 -4 l 257
 180 -10 182 -16 182 -22 c 256
 182 -39 167 -72 159 -79 c 257
 151 -94 142 -107 132 -118 c 257
 98 -149 l 257
 112 -165 l 257
 143 -142 168 -118 185 -95 c 256
 208 -63 220 -31 220 1 c 256
NamedP: "hr00"
203 351 m 256
 203 386 186 403 151 403 c 256
 126 403 103 379 103 351 c 256
 103 320 126 298 154 298 c 256
 181 298 203 322 203 351 c 256
EndSplineSet
PickledDataWithLists: "(dp1
S'com.adobe.type.autohint'
p2
(S'data'
S'<data>\\n  <hintSetList>\\n    <hintset pointTag=\"hr00\">\\n      <hstem pos=\"-6\" width=\"95\"/>\\n      <hstem pos=\"17\" width=\"-21\"/>\\n      <hstem pos=\"298\" width=\"105\"/>\\n      <vstem pos=\"103\" width=\"100\"/>\\n      <vstem pos=\"182\" width=\"38\"/>\\n    </hintset>\\n  </hintSetList>\\n  </data>'
Ntp3
s."
EndChar

StartChar: less
Encoding: 28 60 28
GlifName: less
Width: 541
VWidth: 0
Flags: W
LayerCount: 2
Back
Fore
SplineSet
466 -18 m 257
NamedP: "hr00"
 466 19 l 257
 149 237 l 257
 466 454 l 257
 466 487 l 257
 69 271 l 257
 69 197 l 257
 466 -18 l 257
NamedP: "hr00"
EndSplineSet
PickledDataWithLists: "(dp1
S'com.adobe.type.autohint'
p2
(S'data'
S'<data>\\n  <hintSetList>\\n    <hintset pointTag=\"hr00\">\\n      <hstem pos=\"3\" width=\"-21\"/>\\n      <vstem pos=\"69\" width=\"397\"/>\\n    </hintset>\\n  </hintSetList>\\n  </data>'
Ntp3
s."
EndChar

StartChar: equal
Encoding: 29 61 29
GlifName: equal
Width: 562
VWidth: 0
Flags: W
LayerCount: 2
Back
Fore
SplineSet
69 92 m 257
NamedP: "hr00"
 486 92 l 257
 486 152 l 257
 69 152 l 257
 69 92 l 257
NamedP: "hr00"
69 289 m 257
 486 289 l 257
 486 349 l 257
 69 349 l 257
 69 289 l 257
EndSplineSet
PickledDataWithLists: "(dp1
S'com.adobe.type.autohint'
p2
(S'data'
S'<data>\\n  <hintSetList>\\n    <hintset pointTag=\"hr00\">\\n      <hstem pos=\"92\" width=\"60\"/>\\n      <hstem pos=\"289\" width=\"60\"/>\\n      <vstem pos=\"69\" width=\"417\"/>\\n    </hintset>\\n  </hintSetList>\\n  </data>'
Ntp3
s."
EndChar

StartChar: greater
Encoding: 30 62 30
GlifName: greater
Width: 541
VWidth: 0
Flags: W
LayerCount: 2
Back
Fore
SplineSet
466 279 m 257
NamedP: "hr00"
 69 494 l 257
 69 461 l 257
 385 244 l 257
 69 27 l 257
 69 -10 l 257
 466 204 l 257
 466 279 l 257
NamedP: "hr00"
EndSplineSet
PickledDataWithLists: "(dp1
S'com.adobe.type.autohint'
p2
(S'data'
S'<data>\\n  <hintSetList>\\n    <hintset pointTag=\"hr00\">\\n      <hstem pos=\"11\" width=\"-21\"/>\\n      <vstem pos=\"69\" width=\"397\"/>\\n    </hintset>\\n  </hintSetList>\\n  </data>'
Ntp3
s."
EndChar

StartChar: question
Encoding: 31 63 31
GlifName: question
Width: 475
VWidth: 0
Flags: W
LayerCount: 2
Back
Fore
SplineSet
252 30 m 256
NamedP: "hr00"
 252 59 226 83 199 83 c 256
 168 83 146 59 146 30 c 256
 146 1 168 -25 199 -25 c 256
 227 -25 252 1 252 30 c 256
NamedP: "hr00"
391 504 m 256
 391 552 374 591 341 620 c 256
 308 650 269 665 222 665 c 256
 214 665 197 666 182 662 c 256
 155 655 136 649 125 643 c 256
 114 638 102 630 90 619 c 256
 67 599 50 563 50 530 c 256
 50 495 73 461 104 461 c 256
 131 461 152 483 152 508 c 256
 152 531 142 544 123 559 c 257
 115 564 l 257
 112 570 111 576 111 581 c 256
 111 597 121 609 140 617 c 256
 159 626 178 630 196 630 c 256
 271 630 305 586 305 507 c 256
 305 468 289 433 264 398 c 258
 234 356 l 258
 211 323 196 295 191 273 c 256
 186 251 184 217 184 170 c 257
 215 170 l 257
 217 214 l 258
 218 241 223 263 235 281 c 256
 244 294 259 311 282 331 c 256
 326 370 355 402 369 427 c 256
 384 452 391 478 391 504 c 256
EndSplineSet
PickledDataWithLists: "(dp1
S'com.adobe.type.autohint'
p2
(S'data'
S'<data>\\n  <hintSetList>\\n    <hintset pointTag=\"hr00\">\\n      <hstem pos=\"-25\" width=\"108\"/>\\n      <hstem pos=\"630\" width=\"35\"/>\\n      <vstem pos=\"50\" width=\"102\"/>\\n      <vstem pos=\"146\" width=\"106\"/>\\n      <vstem pos=\"184\" width=\"33\"/>\\n      <vstem pos=\"305\" width=\"86\"/>\\n    </hintset>\\n  </hintSetList>\\n  </data>'
Ntp3
s."
EndChar

StartChar: at
Encoding: 32 64 32
GlifName: at
Width: 1061
VWidth: 0
Flags: W
LayerCount: 2
Back
Fore
SplineSet
536 58 m 256
NamedP: "hr00"
 499 58 467 74 440 105 c 256
 413 137 400 175 400 218 c 256
 400 269 413 312 440 348 c 256
 467 384 501 402 540 402 c 256
 584 402 620 369 620 328 c 258
 620 150 l 258
 620 101 584 58 536 58 c 256
NamedP: "hr00"
523 -214 m 256
 606 -214 681 -199 748 -168 c 256
 815 -138 867 -97 902 -45 c 257
 871 -17 l 257
 836 -69 787 -109 725 -138 c 256
 663 -167 596 -181 523 -181 c 256
 418 -181 329 -142 254 -63 c 256
 180 15 143 110 143 223 c 256
 143 335 180 430 254 509 c 256
 329 588 419 627 524 627 c 256
 628 627 716 591 789 519 c 256
 862 447 899 360 899 258 c 256
 899 197 886 146 860 104 c 256
 835 62 803 41 766 41 c 256
 731 41 703 75 703 118 c 258
 703 434 l 257
 620 434 l 257
 620 402 l 257
 584 433 545 447 512 447 c 256
 459 447 414 424 377 379 c 256
 341 334 323 281 323 218 c 256
 323 158 342 107 379 64 c 256
 417 21 462 0 515 0 c 256
 548 0 587 22 619 69 c 257
 634 24 684 0 747 0 c 256
 811 0 866 25 911 76 c 256
 957 127 980 187 980 258 c 256
 980 368 936 461 847 540 c 256
 759 618 652 658 525 658 c 256
 399 658 291 615 202 530 c 256
 113 445 69 343 69 223 c 256
 69 103 113 0 201 -85 c 256
 289 -171 396 -214 523 -214 c 256
EndSplineSet
PickledDataWithLists: "(dp1
S'com.adobe.type.autohint'
p2
(S'data'
S'<data>\\n  <hintSetList>\\n    <hintset pointTag=\"hr00\">\\n      <hstem pos=\"-214\" width=\"33\"/>\\n      <hstem pos=\"0\" width=\"41\"/>\\n      <hstem pos=\"0\" width=\"58\"/>\\n      <hstem pos=\"402\" width=\"45\"/>\\n      <hstem pos=\"627\" width=\"31\"/>\\n      <vstem pos=\"69\" width=\"74\"/>\\n      <vstem pos=\"323\" width=\"77\"/>\\n      <vstem pos=\"620\" width=\"83\"/>\\n      <vstem pos=\"899\" width=\"81\"/>\\n    </hintset>\\n  </hintSetList>\\n  </data>'
Ntp3
s."
EndChar

StartChar: A
Encoding: 33 65 33
GlifName: A_
Width: 746
VWidth: 0
Flags: W
LayerCount: 2
Back
Fore
SplineSet
472 271 m 257
NamedP: "hr00"
 221 271 l 257
 348 587 l 257
 472 271 l 257
NamedP: "hr00"
121 123 m 258
 93 54 66 36 11 36 c 257
 11 0 l 257
 268 0 l 257
 268 36 l 257
 244 36 l 258
 189 36 160 61 160 93 c 256
 160 107 163 126 172 149 c 258
 205 235 l 257
 485 235 l 257
 545 83 l 258
 547 77 548 71 548 66 c 256
 548 57 544 50 536 47 c 257
 523 40 502 36 472 36 c 258
 450 36 l 257
 450 0 l 257
 733 0 l 257
 733 36 l 257
 711 36 l 258
 680 36 659 49 649 75 c 258
 393 725 l 257
 362 725 l 257
 121 123 l 258
EndSplineSet
PickledDataWithLists: "(dp1
S'com.adobe.type.autohint'
p2
(S'data'
S'<data>\\n  <hintSetList>\\n    <hintset pointTag=\"hr00\">\\n      <hstem pos=\"0\" width=\"36\"/>\\n      <hstem pos=\"235\" width=\"36\"/>\\n      <hstem pos=\"725\" width=\"-20\"/>\\n      <vstem pos=\"11\" width=\"722\"/>\\n      <vstem pos=\"11\" width=\"149\"/>\\n    </hintset>\\n  </hintSetList>\\n  </data>'
Ntp3
s."
EndChar

StartChar: B
Encoding: 34 66 34
GlifName: B_
Width: 683
VWidth: 0
Flags: W
LayerCount: 2
Back
Fore
SplineSet
383 349 m 258
NamedP: "hr00"
 482 349 541 287 541 191 c 256
 541 84 489 36 374 36 c 258
 287 36 l 258
 250 36 237 47 237 74 c 258
 237 349 l 257
 383 349 l 258
NamedP: "hr00"
237 638 m 258
 237 651 242 661 251 666 c 256
 260 671 284 674 322 674 c 256
 377 674 415 669 437 661 c 256
 460 652 477 639 488 620 c 256
 500 601 506 574 506 541 c 256
 506 430 452 384 371 384 c 258
 237 384 l 257
 237 638 l 258
24 674 m 257
 86 674 l 258
 118 674 134 659 134 634 c 258
 134 64 l 258
 134 49 117 36 82 36 c 258
 24 36 l 257
 24 0 l 257
 383 0 l 258
 498 0 590 42 629 97 c 256
 648 125 658 156 658 191 c 256
 658 282 592 344 457 372 c 257
 566 405 619 461 619 542 c 256
 619 638 538 710 393 710 c 258
 24 710 l 257
 24 674 l 257
EndSplineSet
PickledDataWithLists: "(dp1
S'com.adobe.type.autohint'
p2
(S'data'
S'<data>\\n  <hintSetList>\\n    <hintset pointTag=\"hr00\">\\n      <hstem pos=\"0\" width=\"36\"/>\\n      <hstem pos=\"349\" width=\"35\"/>\\n      <hstem pos=\"674\" width=\"36\"/>\\n      <vstem pos=\"134\" width=\"103\"/>\\n      <vstem pos=\"506\" width=\"113\"/>\\n      <vstem pos=\"541\" width=\"117\"/>\\n    </hintset>\\n  </hintSetList>\\n  </data>'
Ntp3
s."
EndChar

StartChar: C
Encoding: 35 67 35
GlifName: C_
Width: 644
VWidth: 0
Flags: W
LayerCount: 2
Back
Fore
SplineSet
524 649 m 257
NamedP: "hr00"
 457 700 402 719 342 719 c 256
 231 719 131 657 70 532 c 256
 39 470 24 404 24 333 c 256
 24 266 39 205 68 149 c 256
 97 93 137 50 186 21 c 256
 236 -8 291 -23 351 -23 c 256
 496 -23 598 71 618 240 c 257
 585 240 l 257
 561 91 477 17 364 17 c 256
 298 17 246 41 209 88 c 256
 167 143 146 225 146 332 c 256
 146 459 164 548 201 601 c 256
 238 654 287 681 347 681 c 256
 402 681 448 656 488 609 c 256
 520 571 547 513 568 432 c 257
 600 432 l 257
 588 718 l 257
 558 718 l 257
 524 649 l 257
NamedP: "hr00"
EndSplineSet
PickledDataWithLists: "(dp1
S'com.adobe.type.autohint'
p2
(S'data'
S'<data>\\n  <hintSetList>\\n    <hintset pointTag=\"hr00\">\\n      <hstem pos=\"-23\" width=\"40\"/>\\n      <hstem pos=\"681\" width=\"38\"/>\\n      <vstem pos=\"24\" width=\"122\"/>\\n    </hintset>\\n  </hintSetList>\\n  </data>'
Ntp3
s."
EndChar

StartChar: D
Encoding: 36 68 36
GlifName: D_
Width: 725
VWidth: 0
Flags: W
LayerCount: 2
Back
Fore
SplineSet
362 674 m 258
NamedP: "hr00"
 433 674 487 651 522 604 c 256
 563 549 584 463 584 345 c 256
 584 264 574 201 555 156 c 256
 542 123 522 97 495 78 c 256
 454 50 407 36 353 36 c 258
 291 36 l 258
 255 36 239 47 239 71 c 258
 239 638 l 258
 239 662 253 674 281 674 c 258
 362 674 l 258
NamedP: "hr00"
24 674 m 257
 97 674 l 258
 121 674 137 662 137 642 c 258
 137 69 l 258
 137 46 124 36 91 36 c 258
 24 36 l 257
 24 0 l 257
 353 0 l 258
 408 0 453 6 487 17 c 256
 576 46 640 108 671 185 c 256
 691 236 699 294 699 359 c 256
 699 436 682 503 649 560 c 256
 616 617 577 658 530 681 c 256
 491 700 445 710 391 710 c 258
 24 710 l 257
 24 674 l 257
EndSplineSet
PickledDataWithLists: "(dp1
S'com.adobe.type.autohint'
p2
(S'data'
S'<data>\\n  <hintSetList>\\n    <hintset pointTag=\"hr00\">\\n      <hstem pos=\"0\" width=\"36\"/>\\n      <hstem pos=\"674\" width=\"36\"/>\\n      <vstem pos=\"137\" width=\"102\"/>\\n      <vstem pos=\"584\" width=\"115\"/>\\n    </hintset>\\n  </hintSetList>\\n  </data>'
Ntp3
s."
EndChar

StartChar: E
Encoding: 37 69 37
GlifName: E_
Width: 649
VWidth: 0
Flags: W
LayerCount: 2
Back
Fore
SplineSet
24 674 m 257
NamedP: "hr00"
 81 674 l 258
 110 674 124 662 124 638 c 258
 124 74 l 258
 124 50 109 36 73 36 c 258
 24 36 l 257
 24 0 l 257
 609 0 l 257
 622 264 l 257
 588 264 l 257
 569 112 499 36 380 36 c 258
 270 36 l 258
 239 36 226 47 226 67 c 258
 226 350 l 257
 281 350 l 258
 353 350 395 306 399 198 c 257
 432 198 l 257
 432 526 l 257
 399 526 l 257
 395 431 351 384 286 384 c 258
 226 384 l 257
 226 638 l 258
 226 662 237 674 260 674 c 258
 399 674 l 258
 488 674 543 620 568 471 c 257
 600 471 l 257
 588 710 l 257
 24 710 l 257
 24 674 l 257
NamedP: "hr00"
EndSplineSet
PickledDataWithLists: "(dp1
S'com.adobe.type.autohint'
p2
(S'data'
S'<data>\\n  <hintSetList>\\n    <hintset pointTag=\"hr00\">\\n      <hstem pos=\"0\" width=\"36\"/>\\n      <hstem pos=\"350\" width=\"34\"/>\\n      <hstem pos=\"674\" width=\"36\"/>\\n      <vstem pos=\"124\" width=\"102\"/>\\n      <vstem pos=\"399\" width=\"33\"/>\\n    </hintset>\\n  </hintSetList>\\n  </data>'
Ntp3
s."
EndChar

StartChar: F
Encoding: 38 70 38
GlifName: F_
Width: 644
VWidth: 0
Flags: W
LayerCount: 2
Back
Fore
SplineSet
24 674 m 257
NamedP: "hr00"
 93 674 l 258
 128 674 138 664 138 639 c 258
 138 74 l 258
 138 46 126 36 97 36 c 258
 24 36 l 257
 24 0 l 257
 366 0 l 257
 366 36 l 257
 291 36 l 258
 255 36 240 48 240 79 c 258
 240 351 l 257
 300 351 l 258
 371 351 411 310 414 202 c 257
 449 202 l 257
 449 522 l 257
 414 522 l 257
 411 431 369 385 300 385 c 258
 240 385 l 257
 240 643 l 258
 240 663 250 674 273 674 c 258
 386 674 l 258
 443 674 485 658 515 630 c 256
 542 603 564 549 579 464 c 257
 611 464 l 257
 601 710 l 257
 24 710 l 257
 24 674 l 257
NamedP: "hr00"
EndSplineSet
PickledDataWithLists: "(dp1
S'com.adobe.type.autohint'
p2
(S'data'
S'<data>\\n  <hintSetList>\\n    <hintset pointTag=\"hr00\">\\n      <hstem pos=\"0\" width=\"36\"/>\\n      <hstem pos=\"351\" width=\"34\"/>\\n      <hstem pos=\"674\" width=\"36\"/>\\n      <vstem pos=\"138\" width=\"102\"/>\\n      <vstem pos=\"414\" width=\"35\"/>\\n    </hintset>\\n  </hintSetList>\\n  </data>'
Ntp3
s."
EndChar

StartChar: G
Encoding: 39 71 39
GlifName: G_
Width: 740
VWidth: 0
Flags: W
LayerCount: 2
Back
Fore
SplineSet
527 649 m 257
NamedP: "hr00"
 458 701 407 719 348 719 c 256
 295 719 243 703 191 670 c 256
 139 637 98 593 68 536 c 256
 39 480 25 417 24 347 c 256
 20 135 176 -22 356 -19 c 256
 439 -18 506 20 554 99 c 257
 567 60 579 20 589 -22 c 257
 622 -22 l 257
 622 249 l 258
 622 272 636 285 672 285 c 258
 711 285 l 257
 711 319 l 257
 414 319 l 257
 414 285 l 257
 475 285 l 258
 511 285 527 272 527 253 c 258
 527 185 l 258
 527 86 463 15 351 17 c 256
 226 20 147 100 145 346 c 256
 143 595 232 678 357 682 c 256
 410 684 458 659 500 613 c 256
 533 577 561 518 585 437 c 257
 615 437 l 257
 598 719 l 257
 566 719 l 257
 527 649 l 257
NamedP: "hr00"
EndSplineSet
PickledDataWithLists: "(dp1
S'com.adobe.type.autohint'
p2
(S'data'
S'<data>\\n  <hintSetList>\\n    <hintset pointTag=\"hr00\">\\n      <hstem pos=\"-1\" width=\"-21\"/>\\n      <hstem pos=\"-19\" width=\"36\"/>\\n      <hstem pos=\"285\" width=\"34\"/>\\n      <hstem pos=\"682\" width=\"37\"/>\\n      <vstem pos=\"24\" width=\"121\"/>\\n      <vstem pos=\"527\" width=\"95\"/>\\n    </hintset>\\n  </hintSetList>\\n  </data>'
Ntp3
s."
EndChar

StartChar: H
Encoding: 40 72 40
GlifName: H_
Width: 775
VWidth: 0
Flags: W
LayerCount: 2
Back
Fore
SplineSet
24 674 m 257
NamedP: "hr00"
 76 674 l 258
 113 674 123 666 123 613 c 258
 123 101 l 258
 123 78 122 65 120 60 c 256
 115 45 102 36 81 36 c 258
 24 36 l 257
 24 0 l 257
 327 0 l 257
 327 36 l 257
 272 36 l 258
 252 36 238 41 230 52 c 256
 226 57 224 72 224 97 c 258
 224 349 l 257
 549 349 l 257
 549 101 l 258
 549 74 547 58 542 52 c 256
 535 41 522 36 501 36 c 258
 449 36 l 257
 449 0 l 257
 751 0 l 257
 751 36 l 257
 702 36 l 258
 681 36 666 41 657 52 c 256
 652 57 650 72 650 97 c 258
 650 608 l 258
 650 631 651 646 653 651 c 256
 660 668 670 674 695 674 c 258
 751 674 l 257
 751 710 l 257
 449 710 l 257
 449 674 l 257
 501 674 l 258
 522 674 535 671 540 665 c 256
 546 659 549 642 549 613 c 258
 549 394 l 257
 224 394 l 257
 224 613 l 258
 224 666 232 674 272 674 c 258
 327 674 l 257
 327 710 l 257
 24 710 l 257
 24 674 l 257
NamedP: "hr00"
EndSplineSet
PickledDataWithLists: "(dp1
S'com.adobe.type.autohint'
p2
(S'data'
S'<data>\\n  <hintSetList>\\n    <hintset pointTag=\"hr00\">\\n      <hstem pos=\"0\" width=\"36\"/>\\n      <hstem pos=\"349\" width=\"45\"/>\\n      <hstem pos=\"674\" width=\"36\"/>\\n      <vstem pos=\"123\" width=\"101\"/>\\n      <vstem pos=\"549\" width=\"101\"/>\\n    </hintset>\\n  </hintSetList>\\n  </data>'
Ntp3
s."
EndChar

StartChar: I
Encoding: 41 73 41
GlifName: I_
Width: 400
VWidth: 0
Flags: W
LayerCount: 2
Back
Fore
SplineSet
36 674 m 257
NamedP: "hr00"
 92 674 l 258
 116 674 132 671 141 664 c 256
 147 659 150 646 150 625 c 258
 150 87 l 258
 150 43 142 36 97 36 c 258
 36 36 l 257
 36 0 l 257
 364 0 l 257
 364 36 l 257
 300 36 l 258
 281 36 267 40 259 48 c 257
 253 52 250 65 250 87 c 258
 250 625 l 258
 250 666 259 674 307 674 c 258
 364 674 l 257
 364 710 l 257
 36 710 l 257
 36 674 l 257
NamedP: "hr00"
EndSplineSet
PickledDataWithLists: "(dp1
S'com.adobe.type.autohint'
p2
(S'data'
S'<data>\\n  <hintSetList>\\n    <hintset pointTag=\"hr00\">\\n      <hstem pos=\"0\" width=\"36\"/>\\n      <hstem pos=\"674\" width=\"36\"/>\\n      <vstem pos=\"150\" width=\"100\"/>\\n    </hintset>\\n  </hintSetList>\\n  </data>'
Ntp3
s."
EndChar

StartChar: J
Encoding: 42 74 42
GlifName: J_
Width: 545
VWidth: 0
Flags: W
LayerCount: 2
Back
Fore
SplineSet
200 669 m 257
NamedP: "hr00"
 263 669 l 258
 303 669 319 657 319 633 c 258
 319 178 l 258
 319 79 271 21 190 21 c 256
 155 21 126 31 101 50 c 256
 76 69 64 91 64 115 c 256
 64 124 66 131 69 136 c 256
 72 141 77 143 83 143 c 256
 86 143 91 142 100 139 c 256
 111 136 119 134 125 134 c 256
 154 134 181 161 181 200 c 256
 181 243 150 272 107 272 c 256
 52 272 12 227 12 154 c 256
 12 106 30 65 66 32 c 256
 103 -1 149 -17 206 -18 c 256
 334 -19 420 67 420 171 c 258
 420 633 l 258
 420 657 435 669 470 669 c 258
 514 669 l 257
 514 705 l 257
 200 705 l 257
 200 669 l 257
NamedP: "hr00"
EndSplineSet
PickledDataWithLists: "(dp1
S'com.adobe.type.autohint'
p2
(S'data'
S'<data>\\n  <hintSetList>\\n    <hintset pointTag=\"hr00\">\\n      <hstem pos=\"-18\" width=\"39\"/>\\n      <hstem pos=\"134\" width=\"138\"/>\\n      <hstem pos=\"669\" width=\"36\"/>\\n      <vstem pos=\"12\" width=\"52\"/>\\n      <vstem pos=\"319\" width=\"101\"/>\\n    </hintset>\\n  </hintSetList>\\n  </data>'
Ntp3
s."
EndChar

StartChar: K
Encoding: 43 75 43
GlifName: K_
Width: 791
VWidth: 0
Flags: W
LayerCount: 2
Back
Fore
SplineSet
25 674 m 257
NamedP: "hr00"
 77 674 l 258
 118 674 135 662 135 639 c 258
 135 71 l 258
 135 51 120 36 87 36 c 258
 25 36 l 257
 25 0 l 257
 350 0 l 257
 350 36 l 257
 282 36 l 258
 267 36 255 40 244 48 c 256
 238 52 235 60 235 71 c 258
 235 246 l 257
 346 366 l 257
 542 78 l 257
 545 72 547 66 547 60 c 256
 547 48 533 36 481 36 c 258
 445 36 l 257
 445 0 l 257
 765 0 l 257
 765 36 l 257
 739 36 l 258
 699 36 674 50 648 89 c 258
 413 438 l 257
 577 609 l 258
 617 650 667 674 706 674 c 258
 729 674 l 257
 729 710 l 257
 437 710 l 257
 437 674 l 257
 458 674 l 258
 505 674 524 659 524 636 c 256
 524 621 516 605 501 588 c 258
 235 303 l 257
 235 634 l 258
 235 658 250 674 282 674 c 258
 350 674 l 257
 350 710 l 257
 25 710 l 257
 25 674 l 257
NamedP: "hr00"
EndSplineSet
PickledDataWithLists: "(dp1
S'com.adobe.type.autohint'
p2
(S'data'
S'<data>\\n  <hintSetList>\\n    <hintset pointTag=\"hr00\">\\n      <hstem pos=\"0\" width=\"36\"/>\\n      <hstem pos=\"674\" width=\"36\"/>\\n      <vstem pos=\"135\" width=\"100\"/>\\n    </hintset>\\n  </hintSetList>\\n  </data>'
Ntp3
s."
EndChar

StartChar: L
Encoding: 44 76 44
GlifName: L_
Width: 654
VWidth: 0
Flags: W
LayerCount: 2
Back
Fore
SplineSet
29 674 m 257
NamedP: "hr00"
 100 674 l 258
 128 674 140 662 140 638 c 258
 140 83 l 258
 140 50 127 36 86 36 c 258
 29 36 l 257
 29 0 l 257
 620 0 l 257
 637 272 l 257
 603 272 l 257
 574 100 506 36 398 36 c 258
 299 36 l 258
 255 36 243 45 243 73 c 258
 243 634 l 258
 243 662 255 674 279 674 c 258
 358 674 l 257
 358 710 l 257
 29 710 l 257
 29 674 l 257
NamedP: "hr00"
EndSplineSet
PickledDataWithLists: "(dp1
S'com.adobe.type.autohint'
p2
(S'data'
S'<data>\\n  <hintSetList>\\n    <hintset pointTag=\"hr00\">\\n      <hstem pos=\"0\" width=\"36\"/>\\n      <hstem pos=\"674\" width=\"36\"/>\\n      <vstem pos=\"140\" width=\"103\"/>\\n    </hintset>\\n  </hintSetList>\\n  </data>'
Ntp3
s."
EndChar

StartChar: M
Encoding: 45 77 45
GlifName: M_
Width: 926
VWidth: 0
Flags: W
LayerCount: 2
Back
Fore
SplineSet
15 674 m 257
NamedP: "hr00"
 75 674 l 258
 116 674 128 663 128 639 c 258
 128 150 l 258
 128 67 102 43 15 36 c 257
 15 0 l 257
 282 0 l 257
 282 36 l 257
 188 46 168 66 168 154 c 258
 168 670 l 257
 421 0 l 257
 453 0 l 257
 686 674 l 257
 686 71 l 258
 686 51 672 36 637 36 c 258
 576 36 l 257
 576 0 l 257
 900 0 l 257
 900 36 l 257
 847 36 l 258
 804 36 789 47 789 71 c 258
 789 634 l 258
 789 663 799 674 842 674 c 258
 900 674 l 257
 900 710 l 257
 659 710 l 257
 463 150 l 257
 252 710 l 257
 15 710 l 257
 15 674 l 257
NamedP: "hr00"
EndSplineSet
PickledDataWithLists: "(dp1
S'com.adobe.type.autohint'
p2
(S'data'
S'<data>\\n  <hintSetList>\\n    <hintset pointTag=\"hr00\">\\n      <hstem pos=\"0\" width=\"36\"/>\\n      <hstem pos=\"674\" width=\"36\"/>\\n      <vstem pos=\"128\" width=\"40\"/>\\n      <vstem pos=\"686\" width=\"103\"/>\\n    </hintset>\\n  </hintSetList>\\n  </data>'
Ntp3
s."
EndChar

StartChar: N
Encoding: 46 78 46
GlifName: N_
Width: 801
VWidth: 0
Flags: W
LayerCount: 2
Back
Fore
SplineSet
27 674 m 257
NamedP: "hr00"
 59 674 l 258
 73 674 85 671 94 666 c 257
 101 665 113 655 129 636 c 257
 137 629 l 257
 137 146 l 258
 137 86 96 40 27 36 c 257
 27 0 l 257
 298 0 l 257
 298 36 l 257
 217 39 179 76 179 153 c 258
 179 579 l 257
 621 0 l 257
 666 0 l 257
 666 564 l 258
 666 609 687 650 712 663 c 256
 725 670 744 674 770 674 c 257
 770 710 l 257
 521 710 l 257
 521 674 l 257
 554 673 579 664 596 647 c 256
 615 627 625 597 625 556 c 258
 625 153 l 257
 196 710 l 257
 27 710 l 257
 27 674 l 257
NamedP: "hr00"
EndSplineSet
PickledDataWithLists: "(dp1
S'com.adobe.type.autohint'
p2
(S'data'
S'<data>\\n  <hintSetList>\\n    <hintset pointTag=\"hr00\">\\n      <hstem pos=\"0\" width=\"36\"/>\\n      <hstem pos=\"674\" width=\"36\"/>\\n      <vstem pos=\"137\" width=\"42\"/>\\n      <vstem pos=\"625\" width=\"41\"/>\\n    </hintset>\\n  </hintSetList>\\n  </data>'
Ntp3
s."
EndChar

StartChar: O
Encoding: 47 79 47
GlifName: O_
Width: 737
VWidth: 0
Flags: W
LayerCount: 2
Back
Fore
SplineSet
369 682 m 256
NamedP: "hr00"
 487 679 578 594 576 342 c 256
 575 106 485 14 366 14 c 256
 308 14 258 38 219 86 c 256
 179 135 160 223 160 351 c 256
 160 468 179 552 217 604 c 256
 256 656 306 684 369 682 c 256
NamedP: "hr00"
361 719 m 256
 306 718 253 703 202 671 c 256
 151 639 111 595 82 539 c 256
 53 483 38 420 38 351 c 256
 38 280 52 216 83 157 c 256
 113 99 154 54 204 23 c 256
 254 -8 308 -22 365 -23 c 256
 537 -27 699 137 698 350 c 256
 698 560 540 722 361 719 c 256
EndSplineSet
PickledDataWithLists: "(dp1
S'com.adobe.type.autohint'
p2
(S'data'
S'<data>\\n  <hintSetList>\\n    <hintset pointTag=\"hr00\">\\n      <hstem pos=\"-23\" width=\"37\"/>\\n      <hstem pos=\"682\" width=\"37\"/>\\n      <vstem pos=\"38\" width=\"122\"/>\\n      <vstem pos=\"576\" width=\"122\"/>\\n    </hintset>\\n  </hintSetList>\\n  </data>'
Ntp3
s."
EndChar

StartChar: P
Encoding: 48 80 48
GlifName: P_
Width: 646
VWidth: 0
Flags: W
LayerCount: 2
Back
Fore
SplineSet
238 634 m 258
NamedP: "hr00"
 238 666 248 678 320 678 c 256
 427 678 465 658 488 614 c 256
 500 592 506 561 506 520 c 256
 506 403 457 356 334 356 c 258
 238 356 l 257
 238 634 l 258
NamedP: "hr00"
24 674 m 257
 76 674 l 258
 123 674 135 663 135 634 c 258
 135 67 l 258
 135 47 123 36 95 36 c 258
 24 36 l 257
 24 0 l 257
 365 0 l 257
 365 36 l 257
 283 36 l 258
 268 36 257 40 248 48 c 256
 241 53 238 63 238 78 c 258
 238 320 l 257
 365 320 l 258
 443 320 508 340 561 382 c 256
 599 412 618 458 618 516 c 256
 618 632 531 710 374 710 c 258
 24 710 l 257
 24 674 l 257
EndSplineSet
PickledDataWithLists: "(dp1
S'com.adobe.type.autohint'
p2
(S'data'
S'<data>\\n  <hintSetList>\\n    <hintset pointTag=\"hr00\">\\n      <hstem pos=\"0\" width=\"36\"/>\\n      <hstem pos=\"320\" width=\"36\"/>\\n      <hstem pos=\"674\" width=\"36\"/>\\n      <hstem pos=\"678\" width=\"32\"/>\\n      <vstem pos=\"135\" width=\"103\"/>\\n      <vstem pos=\"506\" width=\"112\"/>\\n    </hintset>\\n  </hintSetList>\\n  </data>'
Ntp3
s."
EndChar

StartChar: Q
Encoding: 49 81 49
GlifName: Q_
Width: 744
VWidth: 0
Flags: W
LayerCount: 2
Back
Fore
SplineSet
466 -14 m 257
NamedP: "hr00"
 435 -34 403 -43 364 -43 c 256
 339 -43 315 -38 292 -29 c 257
 268 -1 256 28 256 57 c 256
 256 120 297 161 360 161 c 256
 397 161 424 144 443 111 c 256
 458 84 465 43 466 -14 c 257
NamedP: "hr00"
524 47 m 257
 506 100 487 136 466 156 c 256
 437 184 402 198 361 198 c 256
 277 198 222 142 222 61 c 256
 222 53 223 42 224 27 c 257
 179 100 160 177 159 292 c 256
 158 536 244 625 366 625 c 256
 486 625 576 536 575 296 c 256
 574 181 559 112 524 47 c 257
549 -19 m 257
 649 65 695 161 695 292 c 256
 696 505 540 664 364 661 c 256
 274 659 197 629 137 563 c 256
 69 490 39 401 37 298 c 256
 34 77 190 -79 366 -76 c 256
 398 -75 430 -72 466 -64 c 257
 473 -139 486 -189 506 -215 c 256
 527 -242 554 -255 588 -255 c 256
 657 -255 706 -203 707 -87 c 257
 679 -87 l 257
 676 -151 657 -175 632 -175 c 256
 619 -175 608 -169 598 -156 c 256
 588 -143 577 -116 566 -73 c 256
 560 -51 554 -33 549 -19 c 257
EndSplineSet
PickledDataWithLists: "(dp1
S'com.adobe.type.autohint'
p2
(S'data'
S'<data>\\n  <hintSetList>\\n    <hintset pointTag=\"hr00\">\\n      <hstem pos=\"-255\" width=\"80\"/>\\n      <hstem pos=\"-76\" width=\"33\"/>\\n      <hstem pos=\"2\" width=\"-21\"/>\\n      <hstem pos=\"7\" width=\"-21\"/>\\n      <hstem pos=\"161\" width=\"37\"/>\\n      <hstem pos=\"625\" width=\"36\"/>\\n      <vstem pos=\"37\" width=\"122\"/>\\n      <vstem pos=\"222\" width=\"34\"/>\\n      <vstem pos=\"575\" width=\"120\"/>\\n      <vstem pos=\"679\" width=\"28\"/>\\n    </hintset>\\n  </hintSetList>\\n  </data>'
Ntp3
s."
EndChar

StartChar: R
Encoding: 50 82 50
GlifName: R_
Width: 715
VWidth: 0
Flags: W
LayerCount: 2
Back
Fore
SplineSet
240 638 m 258
NamedP: "hr00"
 240 651 245 659 254 664 c 256
 263 669 286 671 323 671 c 256
 381 671 420 666 439 659 c 256
 459 651 475 637 486 615 c 256
 498 593 504 563 504 526 c 256
 504 419 437 381 325 381 c 258
 240 381 l 257
 240 638 l 258
NamedP: "hr00"
24 671 m 257
 93 671 l 258
 124 671 138 659 138 635 c 258
 138 67 l 258
 138 47 124 34 93 34 c 258
 24 34 l 257
 24 -3 l 257
 355 -3 l 257
 355 34 l 257
 285 34 l 258
 269 34 257 37 250 43 c 256
 243 48 240 56 240 67 c 258
 240 347 l 257
 299 347 l 258
 360 347 405 323 426 286 c 256
 437 268 444 238 449 196 c 256
 457 123 465 78 472 60 c 256
 489 15 524 -9 572 -9 c 256
 647 -9 687 45 692 154 c 257
 659 154 l 257
 656 81 636 54 615 54 c 256
 606 54 597 60 588 73 c 256
 579 88 568 117 558 158 c 256
 544 217 533 255 522 274 c 256
 511 293 498 309 481 321 c 256
 464 334 433 346 386 359 c 257
 450 364 496 374 525 389 c 256
 554 404 576 423 591 448 c 256
 607 473 615 501 615 533 c 256
 615 637 532 708 391 708 c 258
 24 708 l 257
 24 671 l 257
EndSplineSet
PickledDataWithLists: "(dp1
S'com.adobe.type.autohint'
p2
(S'data'
S'<data>\\n  <hintSetList>\\n    <hintset pointTag=\"hr00\">\\n      <hstem pos=\"-9\" width=\"63\"/>\\n      <hstem pos=\"-3\" width=\"37\"/>\\n      <hstem pos=\"347\" width=\"34\"/>\\n      <hstem pos=\"671\" width=\"37\"/>\\n      <vstem pos=\"138\" width=\"102\"/>\\n      <vstem pos=\"504\" width=\"111\"/>\\n      <vstem pos=\"659\" width=\"33\"/>\\n    </hintset>\\n  </hintSetList>\\n  </data>'
Ntp3
s."
EndChar

StartChar: S
Encoding: 51 83 51
GlifName: S_
Width: 588
VWidth: 0
Flags: W
LayerCount: 2
Back
Fore
SplineSet
427 652 m 257
NamedP: "hr00"
 372 700 319 721 260 721 c 256
 198 721 147 701 107 660 c 256
 67 620 47 569 47 507 c 256
 47 447 67 400 106 368 c 256
 135 344 189 325 268 306 c 256
 339 289 386 274 410 263 c 256
 435 251 453 237 464 220 c 256
 476 203 482 183 482 161 c 256
 482 121 467 87 436 59 c 256
 406 31 367 17 320 17 c 256
 261 17 208 39 161 83 c 256
 114 127 85 187 72 262 c 257
 37 262 l 257
 37 -13 l 257
 72 -13 l 257
 125 53 l 257
 180 6 244 -18 317 -18 c 256
 385 -18 440 3 483 45 c 256
 526 88 548 141 548 205 c 256
 548 276 517 329 453 364 c 256
 421 382 366 400 287 417 c 256
 230 430 192 441 172 451 c 256
 152 462 137 475 126 492 c 256
 116 509 111 530 111 553 c 256
 111 626 170 683 255 683 c 256
 356 683 438 612 478 455 c 257
 509 455 l 257
 505 714 l 257
 471 714 l 257
 427 652 l 257
NamedP: "hr00"
EndSplineSet
PickledDataWithLists: "(dp1
S'com.adobe.type.autohint'
p2
(S'data'
S'<data>\\n  <hintSetList>\\n    <hintset pointTag=\"hr00\">\\n      <hstem pos=\"-18\" width=\"35\"/>\\n      <hstem pos=\"8\" width=\"-21\"/>\\n      <hstem pos=\"683\" width=\"38\"/>\\n      <hstem pos=\"714\" width=\"-20\"/>\\n      <vstem pos=\"37\" width=\"35\"/>\\n      <vstem pos=\"47\" width=\"64\"/>\\n      <vstem pos=\"478\" width=\"29\"/>\\n      <vstem pos=\"482\" width=\"66\"/>\\n    </hintset>\\n  </hintSetList>\\n  </data>'
Ntp3
s."
EndChar

StartChar: T
Encoding: 52 84 52
GlifName: T_
Width: 655
VWidth: 0
Flags: W
LayerCount: 2
Back
Fore
SplineSet
25 442 m 257
NamedP: "hr00"
 60 442 l 257
 71 520 90 577 116 613 c 256
 147 656 185 678 231 678 c 256
 264 678 279 666 279 642 c 258
 279 65 l 258
 279 48 267 36 244 36 c 258
 164 36 l 257
 164 0 l 257
 492 0 l 257
 492 36 l 257
 420 36 l 258
 389 36 379 46 379 69 c 258
 379 638 l 258
 379 667 388 678 427 678 c 256
 520 678 576 599 597 442 c 257
 630 442 l 257
 616 710 l 257
 41 710 l 257
 25 442 l 257
NamedP: "hr00"
EndSplineSet
PickledDataWithLists: "(dp1
S'com.adobe.type.autohint'
p2
(S'data'
S'<data>\\n  <hintSetList>\\n    <hintset pointTag=\"hr00\">\\n      <hstem pos=\"0\" width=\"36\"/>\\n      <hstem pos=\"678\" width=\"32\"/>\\n      <vstem pos=\"279\" width=\"100\"/>\\n    </hintset>\\n  </hintSetList>\\n  </data>'
Ntp3
s."
EndChar

StartChar: U
Encoding: 53 85 53
GlifName: U_
Width: 799
VWidth: 0
Flags: W
LayerCount: 2
Back
Fore
SplineSet
24 669 m 257
NamedP: "hr00"
 91 669 l 258
 123 669 137 656 137 635 c 258
 137 206 l 258
 137 163 144 127 158 99 c 256
 194 24 269 -18 412 -18 c 256
 493 -18 556 6 606 52 c 256
 649 92 672 150 672 227 c 258
 672 574 l 258
 672 637 701 669 762 669 c 258
 781 669 l 257
 781 705 l 257
 511 705 l 257
 511 669 l 257
 567 669 584 662 599 645 c 256
 614 629 622 601 622 546 c 258
 622 219 l 258
 622 107 551 35 423 35 c 256
 330 35 271 75 250 139 c 256
 243 160 239 192 239 235 c 258
 239 635 l 258
 239 659 251 669 286 669 c 258
 352 669 l 257
 352 705 l 257
 24 705 l 257
 24 669 l 257
NamedP: "hr00"
EndSplineSet
PickledDataWithLists: "(dp1
S'com.adobe.type.autohint'
p2
(S'data'
S'<data>\\n  <hintSetList>\\n    <hintset pointTag=\"hr00\">\\n      <hstem pos=\"-18\" width=\"53\"/>\\n      <hstem pos=\"669\" width=\"36\"/>\\n      <vstem pos=\"137\" width=\"102\"/>\\n      <vstem pos=\"622\" width=\"50\"/>\\n    </hintset>\\n  </hintSetList>\\n  </data>'
Ntp3
s."
EndChar

StartChar: V
Encoding: 54 86 54
GlifName: V_
Width: 768
VWidth: 0
Flags: W
LayerCount: 2
Back
Fore
SplineSet
20 668 m 257
NamedP: "hr00"
 43 668 l 258
 82 668 103 655 120 612 c 258
 370 -22 l 257
 405 -22 l 257
 625 570 l 258
 651 641 683 668 715 668 c 258
 737 668 l 257
 737 704 l 257
 475 704 l 257
 475 668 l 257
 523 668 l 258
 559 668 583 648 583 612 c 256
 583 599 580 587 577 578 c 258
 411 126 l 257
 225 600 l 257
 221 611 l 258
 216 624 212 633 212 640 c 256
 212 657 224 668 268 668 c 258
 319 668 l 257
 319 704 l 257
 20 704 l 257
 20 668 l 257
NamedP: "hr00"
EndSplineSet
PickledDataWithLists: "(dp1
S'com.adobe.type.autohint'
p2
(S'data'
S'<data>\\n  <hintSetList>\\n    <hintset pointTag=\"hr00\">\\n      <hstem pos=\"-1\" width=\"-21\"/>\\n      <hstem pos=\"668\" width=\"36\"/>\\n      <vstem pos=\"20\" width=\"717\"/>\\n      <vstem pos=\"583\" width=\"154\"/>\\n    </hintset>\\n  </hintSetList>\\n  </data>'
Ntp3
s."
EndChar

StartChar: W
Encoding: 55 87 55
GlifName: W_
Width: 972
VWidth: 0
Flags: W
LayerCount: 2
Back
Fore
SplineSet
15 668 m 257
NamedP: "hr00"
 60 668 74 659 90 608 c 258
 290 -22 l 257
 326 -22 l 257
 482 498 l 257
 646 -22 l 257
 680 -22 l 257
 855 561 l 258
 881 647 899 657 956 668 c 257
 956 704 l 257
 733 704 l 257
 733 668 l 257
 756 668 l 258
 795 668 813 650 813 605 c 256
 813 592 812 577 807 561 c 258
 685 157 l 257
 539 623 l 258
 537 630 536 636 536 643 c 256
 536 660 548 668 600 668 c 258
 631 668 l 257
 631 704 l 257
 335 704 l 257
 335 668 l 257
 378 668 l 258
 401 668 417 664 424 656 c 256
 432 648 444 620 460 573 c 257
 333 157 l 257
 187 608 l 257
 184 617 l 258
 180 630 177 639 177 644 c 256
 177 661 186 668 235 668 c 258
 252 668 l 257
 252 704 l 257
 15 704 l 257
 15 668 l 257
NamedP: "hr00"
EndSplineSet
PickledDataWithLists: "(dp1
S'com.adobe.type.autohint'
p2
(S'data'
S'<data>\\n  <hintSetList>\\n    <hintset pointTag=\"hr00\">\\n      <hstem pos=\"-1\" width=\"-21\"/>\\n      <hstem pos=\"668\" width=\"36\"/>\\n      <vstem pos=\"15\" width=\"941\"/>\\n      <vstem pos=\"15\" width=\"162\"/>\\n      <vstem pos=\"813\" width=\"143\"/>\\n    </hintset>\\n  </hintSetList>\\n  </data>'
Ntp3
s."
EndChar

StartChar: X
Encoding: 56 88 56
GlifName: X_
Width: 720
VWidth: 0
Flags: W
LayerCount: 2
Back
Fore
SplineSet
24 674 m 257
NamedP: "hr00"
 50 673 69 670 80 664 c 257
 92 659 105 645 121 622 c 258
 316 343 l 257
 165 127 l 258
 121 64 81 39 24 36 c 257
 24 0 l 257
 295 0 l 257
 295 36 l 257
 268 36 l 258
 228 36 208 53 208 84 c 256
 208 103 217 125 234 150 c 258
 342 303 l 257
 485 92 l 258
 495 78 500 67 500 60 c 256
 500 48 490 36 450 36 c 258
 412 36 l 257
 412 0 l 257
 693 0 l 257
 693 36 l 257
 646 39 632 45 620 62 c 258
 396 386 l 257
 542 599 l 258
 561 626 581 648 602 660 c 256
 619 670 641 674 670 674 c 257
 670 710 l 257
 412 710 l 257
 412 674 l 257
 476 673 493 658 493 633 c 256
 493 620 488 604 474 583 c 258
 370 425 l 257
 234 625 l 258
 225 639 220 648 220 652 c 256
 220 665 232 674 281 674 c 258
 316 674 l 257
 316 710 l 257
 24 710 l 257
 24 674 l 257
NamedP: "hr00"
EndSplineSet
PickledDataWithLists: "(dp1
S'com.adobe.type.autohint'
p2
(S'data'
S'<data>\\n  <hintSetList>\\n    <hintset pointTag=\"hr00\">\\n      <hstem pos=\"0\" width=\"36\"/>\\n      <hstem pos=\"674\" width=\"36\"/>\\n      <vstem pos=\"24\" width=\"669\"/>\\n    </hintset>\\n  </hintSetList>\\n  </data>'
Ntp3
s."
EndChar

StartChar: Y
Encoding: 57 89 57
GlifName: Y_
Width: 756
VWidth: 0
Flags: W
LayerCount: 2
Back
Fore
SplineSet
24 674 m 257
NamedP: "hr00"
 84 673 104 664 123 634 c 258
 343 290 l 257
 343 71 l 258
 343 48 329 36 292 36 c 258
 229 36 l 257
 229 0 l 257
 555 0 l 257
 555 36 l 257
 493 36 l 258
 476 36 462 40 453 47 c 256
 446 51 443 59 443 71 c 258
 443 296 l 257
 606 596 l 258
 639 657 669 674 732 674 c 257
 732 710 l 257
 461 710 l 257
 461 674 l 257
 493 674 l 258
 534 674 557 652 557 620 c 256
 557 607 554 595 549 585 c 258
 418 346 l 257
 238 626 l 258
 233 633 231 640 231 649 c 256
 231 665 243 674 300 674 c 258
 335 674 l 257
 335 710 l 257
 24 710 l 257
 24 674 l 257
NamedP: "hr00"
EndSplineSet
PickledDataWithLists: "(dp1
S'com.adobe.type.autohint'
p2
(S'data'
S'<data>\\n  <hintSetList>\\n    <hintset pointTag=\"hr00\">\\n      <hstem pos=\"0\" width=\"36\"/>\\n      <hstem pos=\"674\" width=\"36\"/>\\n      <vstem pos=\"343\" width=\"100\"/>\\n      <vstem pos=\"557\" width=\"175\"/>\\n    </hintset>\\n  </hintSetList>\\n  </data>'
Ntp3
s."
EndChar

StartChar: Z
Encoding: 58 90 58
GlifName: Z_
Width: 600
VWidth: 0
Flags: W
LayerCount: 2
Back
Fore
SplineSet
57 464 m 257
NamedP: "hr00"
 90 464 l 257
 105 573 145 636 204 661 c 256
 227 670 258 674 297 674 c 258
 444 674 l 257
 34 32 l 257
 34 0 l 257
 547 0 l 257
 560 266 l 257
 527 266 l 257
 512 199 496 151 479 122 c 256
 462 93 439 72 410 57 c 256
 382 43 346 36 302 36 c 258
 148 36 l 257
 554 674 l 257
 554 710 l 257
 72 710 l 257
 57 464 l 257
NamedP: "hr00"
EndSplineSet
PickledDataWithLists: "(dp1
S'com.adobe.type.autohint'
p2
(S'data'
S'<data>\\n  <hintSetList>\\n    <hintset pointTag=\"hr00\">\\n      <hstem pos=\"0\" width=\"36\"/>\\n      <hstem pos=\"674\" width=\"36\"/>\\n      <vstem pos=\"34\" width=\"526\"/>\\n    </hintset>\\n  </hintSetList>\\n  </data>'
Ntp3
s."
EndChar

StartChar: bracketleft
Encoding: 59 91 59
GlifName: bracketleft
Width: 379
VWidth: 0
Flags: W
LayerCount: 2
Back
Fore
SplineSet
304 -302 m 257
NamedP: "hr00"
 304 -257 l 257
 162 -257 l 257
 162 775 l 257
 304 775 l 257
 304 819 l 257
 69 819 l 257
 69 -302 l 257
 304 -302 l 257
NamedP: "hr00"
EndSplineSet
PickledDataWithLists: "(dp1
S'com.adobe.type.autohint'
p2
(S'data'
S'<data>\\n  <hintSetList>\\n    <hintset pointTag=\"hr00\">\\n      <hstem pos=\"-302\" width=\"45\"/>\\n      <hstem pos=\"775\" width=\"44\"/>\\n      <vstem pos=\"69\" width=\"93\"/>\\n    </hintset>\\n  </hintSetList>\\n  </data>'
Ntp3
s."
EndChar

StartChar: backslash
Encoding: 60 92 60
GlifName: backslash
Width: 598
VWidth: 0
Flags: W
LayerCount: 2
Back
Fore
SplineSet
149 763 m 257
NamedP: "hr00"
 69 763 l 257
 438 -227 l 257
 520 -227 l 257
 149 763 l 257
NamedP: "hr00"
EndSplineSet
PickledDataWithLists: "(dp1
S'com.adobe.type.autohint'
p2
(S'data'
S'<data>\\n  <hintSetList>\\n    <hintset pointTag=\"hr00\">\\n      <hstem pos=\"-227\" width=\"990\"/>\\n      <vstem pos=\"69\" width=\"451\"/>\\n    </hintset>\\n  </hintSetList>\\n  </data>'
Ntp3
s."
EndChar

StartChar: bracketright
Encoding: 61 93 61
GlifName: bracketright
Width: 379
VWidth: 0
Flags: W
LayerCount: 2
Back
Fore
SplineSet
304 819 m 257
NamedP: "hr00"
 69 819 l 257
 69 775 l 257
 210 775 l 257
 210 -257 l 257
 69 -257 l 257
 69 -302 l 257
 304 -302 l 257
 304 819 l 257
NamedP: "hr00"
EndSplineSet
PickledDataWithLists: "(dp1
S'com.adobe.type.autohint'
p2
(S'data'
S'<data>\\n  <hintSetList>\\n    <hintset pointTag=\"hr00\">\\n      <hstem pos=\"-302\" width=\"45\"/>\\n      <hstem pos=\"775\" width=\"44\"/>\\n      <vstem pos=\"210\" width=\"94\"/>\\n    </hintset>\\n  </hintSetList>\\n  </data>'
Ntp3
s."
EndChar

StartChar: asciicircum
Encoding: 62 94 62
GlifName: asciicircum
Width: 588
VWidth: 0
Flags: W
LayerCount: 2
Back
Fore
SplineSet
69 145 m 257
NamedP: "hr00"
 96 145 l 257
 291 359 l 257
 481 145 l 257
 508 145 l 257
 326 465 l 257
 248 465 l 257
 69 145 l 257
NamedP: "hr00"
EndSplineSet
PickledDataWithLists: "(dp1
S'com.adobe.type.autohint'
p2
(S'data'
S'<data>\\n  <hintSetList>\\n    <hintset pointTag=\"hr00\">\\n      <hstem pos=\"145\" width=\"320\"/>\\n      <vstem pos=\"69\" width=\"439\"/>\\n    </hintset>\\n  </hintSetList>\\n  </data>'
Ntp3
s."
EndChar

StartChar: underscore
Encoding: 63 95 63
GlifName: underscore
Width: 703
VWidth: 0
Flags: W
LayerCount: 2
Back
Fore
SplineSet
69 -429 m 257
NamedP: "hr00"
 628 -429 l 257
 628 -391 l 257
 69 -391 l 257
 69 -429 l 257
NamedP: "hr00"
EndSplineSet
PickledDataWithLists: "(dp1
S'com.adobe.type.autohint'
p2
(S'data'
S'<data>\\n  <hintSetList>\\n    <hintset pointTag=\"hr00\">\\n      <hstem pos=\"-429\" width=\"38\"/>\\n      <vstem pos=\"69\" width=\"559\"/>\\n    </hintset>\\n  </hintSetList>\\n  </data>'
Ntp3
s."
EndChar

StartChar: grave
Encoding: 64 96 64
GlifName: grave
Width: 322
VWidth: 0
Flags: W
LayerCount: 2
Back
Fore
SplineSet
213 608 m 257
NamedP: "hr00"
 244 608 l 257
 186 871 l 257
 69 871 l 257
 213 608 l 257
NamedP: "hr00"
EndSplineSet
PickledDataWithLists: "(dp1
S'com.adobe.type.autohint'
p2
(S'data'
S'<data>\\n  <hintSetList>\\n    <hintset pointTag=\"hr00\">\\n      <hstem pos=\"608\" width=\"263\"/>\\n      <vstem pos=\"69\" width=\"175\"/>\\n    </hintset>\\n  </hintSetList>\\n  </data>'
Ntp3
s."
EndChar

StartChar: a
Encoding: 65 97 65
GlifName: a
Width: 545
VWidth: 0
Flags: W
LayerCount: 2
Back
Fore
SplineSet
336 170 m 258
NamedP: "hr00"
 336 127 322 91 294 62 c 256
 267 33 234 19 195 19 c 256
 155 19 125 48 125 99 c 256
 125 134 138 161 164 180 c 256
 197 205 254 224 336 235 c 257
 336 170 l 258
NamedP: "hr00"
494 45 m 257
 479 35 466 30 454 30 c 256
 443 30 433 36 425 47 c 256
 418 56 415 72 415 93 c 258
 415 340 l 258
 415 373 401 401 374 424 c 256
 345 447 305 459 252 459 c 256
 194 459 147 446 111 419 c 256
 75 393 57 364 57 333 c 256
 57 298 80 273 113 273 c 256
 144 273 164 295 164 324 c 256
 164 333 159 345 149 358 c 256
 142 367 138 375 138 380 c 256
 138 389 145 397 160 406 c 256
 180 417 204 423 232 423 c 256
 293 423 336 383 336 334 c 258
 336 266 l 257
 245 256 171 235 116 204 c 256
 61 173 34 135 34 88 c 256
 34 28 82 -18 175 -18 c 256
 207 -18 234 -13 257 -2 c 256
 280 9 308 30 339 62 c 257
 360 3 389 -18 432 -18 c 256
 461 -18 487 -6 510 18 c 257
 494 45 l 257
EndSplineSet
PickledDataWithLists: "(dp1
S'com.adobe.type.autohint'
p2
(S'data'
S'<data>\\n  <hintSetList>\\n    <hintset pointTag=\"hr00\">\\n      <hstem pos=\"-18\" width=\"37\"/>\\n      <hstem pos=\"423\" width=\"36\"/>\\n      <vstem pos=\"34\" width=\"91\"/>\\n      <vstem pos=\"57\" width=\"107\"/>\\n      <vstem pos=\"336\" width=\"79\"/>\\n    </hintset>\\n  </hintSetList>\\n  </data>'
Ntp3
s."
EndChar

StartChar: b
Encoding: 66 98 66
GlifName: b
Width: 534
VWidth: 0
Flags: W
LayerCount: 2
Back
Fore
SplineSet
290 419 m 256
NamedP: "hr00"
 357 419 405 362 405 226 c 256
 405 157 393 103 368 66 c 256
 349 37 323 22 290 22 c 256
 217 22 168 76 168 215 c 256
 168 360 219 419 290 419 c 256
NamedP: "hr00"
6 708 m 257
 6 671 l 257
 27 671 l 258
 67 671 89 654 89 621 c 258
 89 113 l 258
 89 72 85 34 76 -3 c 257
 95 -9 l 257
 112 10 130 33 149 62 c 257
 196 13 237 -9 292 -9 c 256
 349 -9 398 13 437 58 c 256
 476 103 496 163 496 236 c 256
 496 303 478 358 441 399 c 256
 405 440 361 461 308 461 c 256
 253 461 208 434 169 381 c 257
 169 716 l 257
 6 708 l 257
EndSplineSet
PickledDataWithLists: "(dp1
S'com.adobe.type.autohint'
p2
(S'data'
S'<data>\\n  <hintSetList>\\n    <hintset pointTag=\"hr00\">\\n      <hstem pos=\"-9\" width=\"31\"/>\\n      <hstem pos=\"18\" width=\"-21\"/>\\n      <hstem pos=\"419\" width=\"42\"/>\\n      <hstem pos=\"671\" width=\"45\"/>\\n      <vstem pos=\"89\" width=\"80\"/>\\n      <vstem pos=\"405\" width=\"91\"/>\\n    </hintset>\\n  </hintSetList>\\n  </data>'
Ntp3
s."
EndChar

StartChar: c
Encoding: 67 99 67
GlifName: c
Width: 435
VWidth: 0
Flags: W
LayerCount: 2
Back
Fore
SplineSet
375 130 m 257
NamedP: "hr00"
 348 59 308 23 254 23 c 256
 173 23 116 91 116 219 c 256
 116 286 132 341 160 382 c 256
 180 411 209 425 248 425 c 256
 292 425 318 404 318 385 c 256
 318 382 316 376 311 369 c 256
 300 357 294 344 294 331 c 256
 294 300 317 279 346 279 c 256
 375 279 399 306 399 342 c 256
 399 371 385 397 356 422 c 256
 327 447 291 459 247 459 c 256
 188 459 137 437 93 393 c 256
 50 350 28 288 28 209 c 256
 28 140 48 85 87 44 c 256
 127 3 178 -18 241 -18 c 256
 326 -18 381 28 405 121 c 257
 375 130 l 257
NamedP: "hr00"
EndSplineSet
PickledDataWithLists: "(dp1
S'com.adobe.type.autohint'
p2
(S'data'
S'<data>\\n  <hintSetList>\\n    <hintset pointTag=\"hr00\">\\n      <hstem pos=\"-18\" width=\"41\"/>\\n      <hstem pos=\"425\" width=\"34\"/>\\n      <vstem pos=\"28\" width=\"88\"/>\\n      <vstem pos=\"294\" width=\"105\"/>\\n    </hintset>\\n  </hintSetList>\\n  </data>'
Ntp3
s."
EndChar

StartChar: d
Encoding: 68 100 68
GlifName: d
Width: 544
VWidth: 0
Flags: W
LayerCount: 2
Back
Fore
SplineSet
232 421 m 256
NamedP: "hr00"
 265 421 294 406 317 375 c 256
 344 340 358 293 358 232 c 256
 358 104 299 35 231 35 c 256
 164 35 120 87 120 235 c 256
 120 370 161 421 232 421 c 256
NamedP: "hr00"
260 671 m 257
 292 671 l 258
 335 671 357 654 357 629 c 258
 357 373 l 257
 322 432 276 461 219 461 c 256
 172 461 130 443 94 408 c 256
 48 363 25 302 25 226 c 256
 25 156 43 99 79 56 c 256
 115 13 158 -9 209 -9 c 256
 272 -9 318 25 357 89 c 257
 368 -3 l 257
 521 -3 l 257
 521 34 l 257
 489 34 l 258
 454 34 436 52 436 101 c 258
 436 716 l 257
 260 708 l 257
 260 671 l 257
EndSplineSet
PickledDataWithLists: "(dp1
S'com.adobe.type.autohint'
p2
(S'data'
S'<data>\\n  <hintSetList>\\n    <hintset pointTag=\"hr00\">\\n      <hstem pos=\"-9\" width=\"44\"/>\\n      <hstem pos=\"-3\" width=\"37\"/>\\n      <hstem pos=\"421\" width=\"40\"/>\\n      <hstem pos=\"671\" width=\"45\"/>\\n      <vstem pos=\"25\" width=\"95\"/>\\n      <vstem pos=\"357\" width=\"79\"/>\\n    </hintset>\\n  </hintSetList>\\n  </data>'
Ntp3
s."
EndChar

StartChar: e
Encoding: 69 101 69
GlifName: e
Width: 475
VWidth: 0
Flags: W
LayerCount: 2
Back
Fore
SplineSet
116 251 m 257
NamedP: "hr00"
 117 371 169 430 236 430 c 256
 267 430 293 418 314 393 c 256
 335 368 346 338 346 303 c 256
 346 266 333 251 310 251 c 258
 116 251 l 257
NamedP: "hr00"
437 218 m 257
 436 262 430 299 419 329 c 256
 388 412 322 459 235 459 c 256
 176 459 127 436 86 391 c 256
 45 346 25 288 25 215 c 256
 25 147 45 91 86 47 c 256
 127 4 178 -18 239 -18 c 256
 327 -18 394 28 441 119 c 257
 410 132 l 257
 372 61 322 25 260 25 c 256
 217 25 182 41 155 73 c 256
 130 101 117 149 116 218 c 257
 437 218 l 257
EndSplineSet
PickledDataWithLists: "(dp1
S'com.adobe.type.autohint'
p2
(S'data'
S'<data>\\n  <hintSetList>\\n    <hintset pointTag=\"hr00\">\\n      <hstem pos=\"-18\" width=\"43\"/>\\n      <hstem pos=\"218\" width=\"33\"/>\\n      <hstem pos=\"430\" width=\"29\"/>\\n      <vstem pos=\"25\" width=\"91\"/>\\n      <vstem pos=\"346\" width=\"91\"/>\\n    </hintset>\\n  </hintSetList>\\n  </data>'
Ntp3
s."
EndChar

StartChar: f
Encoding: 70 102 70
GlifName: f
Width: 326
VWidth: 0
Flags: W
LayerCount: 2
Back
Fore
SplineSet
183 550 m 258
NamedP: "hr00"
 183 645 226 693 279 693 c 256
 308 693 323 682 323 671 c 256
 323 668 318 663 309 656 c 257
 298 645 292 633 292 618 c 256
 292 591 311 572 339 572 c 256
 370 572 391 594 391 633 c 256
 391 688 348 728 277 728 c 256
 228 728 186 707 153 665 c 256
 120 624 103 563 103 483 c 258
 103 450 l 257
 26 450 l 257
 26 408 l 257
 103 408 l 257
 103 71 l 258
 103 47 92 36 59 36 c 258
 20 36 l 257
 20 0 l 257
 295 0 l 257
 295 36 l 257
 234 36 l 258
 217 36 203 40 194 49 c 257
 187 54 183 64 183 79 c 258
 183 408 l 257
 295 408 l 257
 295 450 l 257
 183 450 l 257
 183 550 l 258
NamedP: "hr00"
EndSplineSet
PickledDataWithLists: "(dp1
S'com.adobe.type.autohint'
p2
(S'data'
S'<data>\\n  <hintSetList>\\n    <hintset pointTag=\"hr00\">\\n      <hstem pos=\"0\" width=\"36\"/>\\n      <hstem pos=\"408\" width=\"42\"/>\\n      <hstem pos=\"693\" width=\"35\"/>\\n      <vstem pos=\"103\" width=\"80\"/>\\n      <vstem pos=\"292\" width=\"99\"/>\\n    </hintset>\\n  </hintSetList>\\n  </data>'
Ntp3
s."
EndChar

StartChar: g
Encoding: 71 103 71
GlifName: g
Width: 527
VWidth: 0
Flags: W
LayerCount: 2
Back
Fore
SplineSet
251 -8 m 256
NamedP: "hr00"
 357 -8 387 -39 387 -80 c 256
 387 -124 332 -168 221 -168 c 256
 176 -168 140 -160 115 -144 c 256
 96 -131 86 -113 86 -92 c 256
 86 -45 134 -8 251 -8 c 256
NamedP: "hr00"
223 424 m 256
 279 424 321 377 321 304 c 256
 321 223 282 178 223 178 c 256
 163 178 124 223 124 306 c 256
 124 381 163 424 223 424 c 256
348 416 m 257
 308 443 270 455 223 455 c 256
 168 455 124 440 89 411 c 256
 55 382 38 345 38 302 c 256
 38 247 65 205 120 174 c 257
 56 153 33 122 33 82 c 256
 33 37 65 8 129 -8 c 257
 50 -23 19 -57 19 -96 c 256
 19 -120 32 -142 59 -162 c 256
 92 -187 142 -199 211 -199 c 256
 295 -199 358 -181 399 -144 c 256
 429 -117 444 -84 444 -46 c 256
 444 22 395 68 276 66 c 258
 158 64 l 258
 129 64 110 67 101 74 c 257
 90 80 85 90 85 103 c 256
 85 118 91 129 103 136 c 256
 116 144 141 148 177 148 c 258
 230 148 l 258
 259 148 289 156 320 173 c 256
 352 190 374 209 387 230 c 256
 400 251 407 276 407 304 c 256
 407 335 397 361 372 398 c 257
 384 412 396 419 407 419 c 256
 413 419 417 414 420 405 c 256
 426 382 438 371 457 371 c 256
 476 371 492 388 492 412 c 256
 492 441 469 466 436 466 c 256
 409 466 380 449 348 416 c 257
EndSplineSet
PickledDataWithLists: "(dp1
S'com.adobe.type.autohint'
p2
(S'data'
S'<data>\\n  <hintSetList>\\n    <hintset pointTag=\"hr00\">\\n      <hstem pos=\"-199\" width=\"31\"/>\\n      <hstem pos=\"-8\" width=\"74\"/>\\n      <hstem pos=\"148\" width=\"30\"/>\\n      <hstem pos=\"419\" width=\"47\"/>\\n      <hstem pos=\"424\" width=\"31\"/>\\n      <vstem pos=\"19\" width=\"67\"/>\\n      <vstem pos=\"33\" width=\"52\"/>\\n      <vstem pos=\"38\" width=\"86\"/>\\n      <vstem pos=\"321\" width=\"86\"/>\\n      <vstem pos=\"387\" width=\"57\"/>\\n    </hintset>\\n  </hintSetList>\\n  </data>'
Ntp3
s."
EndChar

StartChar: h
Encoding: 72 104 72
GlifName: h
Width: 600
VWidth: 0
Flags: W
LayerCount: 2
Back
Fore
SplineSet
14 674 m 257
NamedP: "hr00"
 48 674 l 258
 84 674 106 656 106 617 c 258
 106 80 l 258
 106 49 92 36 55 36 c 258
 28 36 l 257
 28 0 l 257
 267 0 l 257
 267 36 l 257
 228 36 l 258
 197 36 184 48 184 80 c 258
 184 259 l 258
 184 342 250 411 313 408 c 256
 370 406 409 365 409 289 c 258
 409 75 l 258
 409 50 396 36 356 36 c 258
 329 36 l 257
 329 0 l 257
 573 0 l 257
 573 36 l 257
 534 36 l 258
 502 36 490 47 490 75 c 258
 490 289 l 258
 490 364 461 421 425 443 c 256
 402 457 376 463 347 463 c 256
 287 463 232 432 184 371 c 257
 184 718 l 257
 14 710 l 257
 14 674 l 257
NamedP: "hr00"
EndSplineSet
PickledDataWithLists: "(dp1
S'com.adobe.type.autohint'
p2
(S'data'
S'<data>\\n  <hintSetList>\\n    <hintset pointTag=\"hr00\">\\n      <hstem pos=\"0\" width=\"36\"/>\\n      <hstem pos=\"408\" width=\"55\"/>\\n      <hstem pos=\"674\" width=\"44\"/>\\n      <hstem pos=\"710\" width=\"-20\"/>\\n      <vstem pos=\"106\" width=\"78\"/>\\n      <vstem pos=\"409\" width=\"81\"/>\\n    </hintset>\\n  </hintSetList>\\n  </data>'
Ntp3
s."
EndChar

StartChar: i
Encoding: 73 105 73
GlifName: i
Width: 308
VWidth: 0
Flags: W
LayerCount: 2
Back
Fore
SplineSet
22 413 m 257
NamedP: "hr00"
 60 413 l 258
 99 413 121 395 121 359 c 258
 121 76 l 258
 121 49 107 36 79 36 c 258
 32 36 l 257
 32 0 l 257
 286 0 l 257
 286 36 l 257
 236 36 l 258
 225 36 216 40 209 47 c 257
 204 50 201 57 201 67 c 258
 201 456 l 257
 22 450 l 257
 22 413 l 257
NamedP: "hr00"
146 718 m 256
 119 718 92 693 92 665 c 256
 92 636 116 611 148 611 c 256
 177 611 201 635 201 664 c 256
 201 693 175 718 146 718 c 256
EndSplineSet
PickledDataWithLists: "(dp1
S'com.adobe.type.autohint'
p2
(S'data'
S'<data>\\n  <hintSetList>\\n    <hintset pointTag=\"hr00\">\\n      <hstem pos=\"0\" width=\"36\"/>\\n      <hstem pos=\"413\" width=\"43\"/>\\n      <hstem pos=\"611\" width=\"107\"/>\\n      <vstem pos=\"92\" width=\"109\"/>\\n      <vstem pos=\"121\" width=\"80\"/>\\n    </hintset>\\n  </hintSetList>\\n  </data>'
Ntp3
s."
EndChar

StartChar: j
Encoding: 74 106 74
GlifName: j
Width: 290
VWidth: 0
Flags: W
LayerCount: 2
Back
Fore
SplineSet
49 452 m 257
NamedP: "hr00"
 49 419 l 257
 88 419 l 258
 133 419 154 400 154 364 c 258
 154 -14 l 258
 154 -41 151 -68 145 -93 c 256
 141 -113 135 -127 127 -136 c 256
 122 -141 116 -144 110 -144 c 256
 99 -144 97 -143 92 -122 c 256
 86 -93 72 -79 49 -79 c 256
 22 -79 0 -100 0 -131 c 256
 0 -167 25 -189 66 -189 c 256
 109 -189 147 -168 181 -127 c 256
 215 -86 232 -35 232 28 c 258
 232 459 l 257
 49 452 l 257
NamedP: "hr00"
184 722 m 256
 155 722 130 696 130 667 c 256
 130 638 155 614 184 614 c 256
 215 614 239 636 239 667 c 256
 239 699 215 722 184 722 c 256
EndSplineSet
PickledDataWithLists: "(dp1
S'com.adobe.type.autohint'
p2
(S'data'
S'<data>\\n  <hintSetList>\\n    <hintset pointTag=\"hr00\">\\n      <hstem pos=\"-189\" width=\"45\"/>\\n      <hstem pos=\"419\" width=\"40\"/>\\n      <hstem pos=\"614\" width=\"108\"/>\\n      <vstem pos=\"130\" width=\"109\"/>\\n      <vstem pos=\"154\" width=\"78\"/>\\n    </hintset>\\n  </hintSetList>\\n  </data>'
Ntp3
s."
EndChar

StartChar: k
Encoding: 75 107 75
GlifName: k
Width: 583
VWidth: 0
Flags: W
LayerCount: 2
Back
Fore
SplineSet
23 674 m 257
NamedP: "hr00"
 48 674 l 258
 70 674 88 669 102 660 c 256
 111 653 115 642 115 629 c 258
 115 73 l 258
 115 50 99 36 70 36 c 258
 29 36 l 257
 29 0 l 257
 272 0 l 257
 272 36 l 257
 241 36 l 258
 225 36 212 39 203 45 c 256
 197 50 194 56 194 65 c 258
 194 179 l 257
 262 237 l 257
 382 65 l 258
 385 60 387 56 387 52 c 256
 387 45 378 36 342 36 c 258
 317 36 l 257
 317 0 l 257
 564 0 l 257
 564 36 l 257
 538 36 l 258
 512 36 494 43 484 56 c 258
 317 286 l 257
 420 378 l 258
 445 401 481 413 529 416 c 257
 529 450 l 257
 289 450 l 257
 289 416 l 257
 317 415 337 412 350 406 c 256
 359 401 363 395 363 386 c 256
 363 377 355 367 342 355 c 258
 194 227 l 257
 194 718 l 257
 23 710 l 257
 23 674 l 257
NamedP: "hr00"
EndSplineSet
PickledDataWithLists: "(dp1
S'com.adobe.type.autohint'
p2
(S'data'
S'<data>\\n  <hintSetList>\\n    <hintset pointTag=\"hr00\">\\n      <hstem pos=\"0\" width=\"36\"/>\\n      <hstem pos=\"416\" width=\"34\"/>\\n      <hstem pos=\"674\" width=\"44\"/>\\n      <hstem pos=\"710\" width=\"-20\"/>\\n      <vstem pos=\"115\" width=\"79\"/>\\n    </hintset>\\n  </hintSetList>\\n  </data>'
Ntp3
s."
EndChar

StartChar: l
Encoding: 76 108 76
GlifName: l
Width: 308
VWidth: 0
Flags: W
LayerCount: 2
Back
Fore
SplineSet
23 710 m 257
NamedP: "hr00"
 23 674 l 257
 64 674 l 258
 81 674 95 669 107 660 c 256
 116 652 120 640 120 623 c 258
 120 76 l 258
 120 51 105 36 76 36 c 258
 31 36 l 257
 31 0 l 257
 285 0 l 257
 285 36 l 257
 238 36 l 258
 227 36 217 40 208 47 c 256
 203 50 201 57 201 66 c 258
 201 718 l 257
 23 710 l 257
NamedP: "hr00"
EndSplineSet
PickledDataWithLists: "(dp1
S'com.adobe.type.autohint'
p2
(S'data'
S'<data>\\n  <hintSetList>\\n    <hintset pointTag=\"hr00\">\\n      <hstem pos=\"0\" width=\"36\"/>\\n      <hstem pos=\"674\" width=\"44\"/>\\n      <hstem pos=\"710\" width=\"-20\"/>\\n      <vstem pos=\"120\" width=\"81\"/>\\n    </hintset>\\n  </hintSetList>\\n  </data>'
Ntp3
s."
EndChar

StartChar: m
Encoding: 77 109 77
GlifName: m
Width: 843
VWidth: 0
Flags: W
LayerCount: 2
Back
Fore
SplineSet
34 417 m 257
NamedP: "hr00"
 83 412 96 397 96 364 c 258
 96 70 l 258
 96 49 81 36 57 36 c 258
 22 36 l 257
 22 0 l 257
 249 0 l 257
 249 36 l 257
 226 36 l 258
 207 36 194 40 185 47 c 256
 179 51 176 60 176 74 c 258
 176 254 l 258
 176 297 189 335 215 368 c 256
 233 391 259 403 293 403 c 256
 346 403 380 365 380 277 c 258
 380 70 l 258
 380 49 363 36 330 36 c 258
 305 36 l 257
 305 0 l 257
 534 0 l 257
 534 36 l 257
 503 36 l 258
 475 36 460 47 460 74 c 258
 460 267 l 258
 460 288 467 312 481 341 c 256
 498 378 533 402 574 402 c 256
 626 402 662 366 662 298 c 258
 662 74 l 258
 662 47 649 36 610 36 c 258
 587 36 l 257
 587 0 l 257
 814 0 l 257
 814 36 l 257
 791 36 l 258
 774 36 761 40 752 48 c 257
 745 51 741 60 741 74 c 258
 741 298 l 258
 741 348 728 389 701 421 c 256
 681 446 650 459 609 459 c 256
 549 459 496 423 452 354 c 257
 432 429 392 459 329 459 c 256
 270 459 225 433 176 362 c 257
 175 392 170 424 163 459 c 257
 34 450 l 257
 34 417 l 257
NamedP: "hr00"
EndSplineSet
PickledDataWithLists: "(dp1
S'com.adobe.type.autohint'
p2
(S'data'
S'<data>\\n  <hintSetList>\\n    <hintset pointTag=\"hr00\">\\n      <hstem pos=\"0\" width=\"36\"/>\\n      <hstem pos=\"403\" width=\"56\"/>\\n      <hstem pos=\"417\" width=\"42\"/>\\n      <vstem pos=\"96\" width=\"80\"/>\\n      <vstem pos=\"380\" width=\"80\"/>\\n      <vstem pos=\"662\" width=\"79\"/>\\n    </hintset>\\n  </hintSetList>\\n  </data>'
Ntp3
s."
EndChar

StartChar: n
Encoding: 78 110 78
GlifName: n
Width: 600
VWidth: 0
Flags: W
LayerCount: 2
Back
Fore
SplineSet
31 419 m 257
NamedP: "hr00"
 54 419 l 258
 93 419 114 399 114 359 c 258
 114 69 l 258
 114 49 96 36 67 36 c 258
 35 36 l 257
 35 0 l 257
 273 0 l 257
 273 36 l 257
 242 36 l 258
 207 36 193 48 193 80 c 258
 193 249 l 258
 193 295 205 333 230 362 c 256
 255 391 285 406 320 406 c 256
 357 406 384 391 402 362 c 256
 414 342 421 311 421 268 c 258
 421 76 l 258
 421 49 405 36 365 36 c 258
 342 36 l 257
 342 0 l 257
 579 0 l 257
 579 36 l 257
 548 36 l 258
 512 36 499 48 499 80 c 258
 499 299 l 258
 499 400 444 459 358 459 c 256
 289 459 234 427 193 359 c 257
 190 398 186 431 181 460 c 257
 31 450 l 257
 31 419 l 257
NamedP: "hr00"
EndSplineSet
PickledDataWithLists: "(dp1
S'com.adobe.type.autohint'
p2
(S'data'
S'<data>\\n  <hintSetList>\\n    <hintset pointTag=\"hr00\">\\n      <hstem pos=\"0\" width=\"36\"/>\\n      <hstem pos=\"406\" width=\"53\"/>\\n      <hstem pos=\"419\" width=\"41\"/>\\n      <vstem pos=\"114\" width=\"79\"/>\\n      <vstem pos=\"421\" width=\"78\"/>\\n    </hintset>\\n  </hintSetList>\\n  </data>'
Ntp3
s."
EndChar

StartChar: o
Encoding: 79 111 79
GlifName: o
Width: 479
VWidth: 0
Flags: W
LayerCount: 2
Back
Fore
SplineSet
230 425 m 256
NamedP: "hr00"
 306 425 356 367 356 228 c 256
 356 77 305 17 230 17 c 256
 158 17 107 79 107 223 c 256
 107 363 158 425 230 425 c 256
NamedP: "hr00"
230 459 m 256
 171 459 121 437 80 393 c 256
 39 349 19 291 19 220 c 256
 19 150 39 93 80 48 c 256
 121 4 170 -18 228 -18 c 256
 345 -17 447 78 444 220 c 256
 443 292 423 350 382 393 c 256
 341 437 291 459 230 459 c 256
EndSplineSet
PickledDataWithLists: "(dp1
S'com.adobe.type.autohint'
p2
(S'data'
S'<data>\\n  <hintSetList>\\n    <hintset pointTag=\"hr00\">\\n      <hstem pos=\"-18\" width=\"35\"/>\\n      <hstem pos=\"425\" width=\"34\"/>\\n      <vstem pos=\"19\" width=\"88\"/>\\n      <vstem pos=\"356\" width=\"88\"/>\\n    </hintset>\\n  </hintSetList>\\n  </data>'
Ntp3
s."
EndChar

StartChar: p
Encoding: 80 112 80
GlifName: p
Width: 536
VWidth: 0
Flags: W
LayerCount: 2
Back
Fore
SplineSet
299 414 m 256
NamedP: "hr00"
 366 414 413 358 413 218 c 256
 413 151 400 102 377 68 c 256
 359 42 334 28 299 28 c 256
 228 28 174 88 174 216 c 256
 174 345 231 414 299 414 c 256
NamedP: "hr00"
15 448 m 257
 15 416 l 257
 79 415 94 399 94 354 c 258
 94 -119 l 258
 94 -139 78 -153 49 -153 c 258
 15 -153 l 257
 15 -186 l 257
 255 -186 l 257
 255 -153 l 257
 221 -153 l 258
 206 -153 194 -149 185 -141 c 256
 178 -135 174 -125 174 -111 c 258
 174 72 l 257
 211 13 256 -15 312 -15 c 256
 361 -15 404 4 440 42 c 256
 483 89 504 148 504 221 c 256
 504 364 415 457 322 457 c 256
 263 457 217 431 172 359 c 257
 171 390 167 423 160 457 c 257
 15 448 l 257
EndSplineSet
PickledDataWithLists: "(dp1
S'com.adobe.type.autohint'
p2
(S'data'
S'<data>\\n  <hintSetList>\\n    <hintset pointTag=\"hr00\">\\n      <hstem pos=\"-186\" width=\"33\"/>\\n      <hstem pos=\"-15\" width=\"43\"/>\\n      <hstem pos=\"414\" width=\"43\"/>\\n      <vstem pos=\"94\" width=\"80\"/>\\n      <vstem pos=\"413\" width=\"91\"/>\\n    </hintset>\\n  </hintSetList>\\n  </data>'
Ntp3
s."
EndChar

StartChar: q
Encoding: 81 113 81
GlifName: q
Width: 526
VWidth: 0
Flags: W
LayerCount: 2
Back
Fore
SplineSet
234 424 m 256
NamedP: "hr00"
 303 421 356 378 354 219 c 256
 353 86 300 29 234 29 c 256
 167 29 118 87 118 226 c 256
 118 362 167 427 234 424 c 256
NamedP: "hr00"
376 384 m 257
 324 436 281 455 229 457 c 256
 124 460 21 352 23 217 c 256
 24 150 42 95 80 51 c 256
 118 7 163 -15 215 -15 c 256
 270 -15 315 12 354 65 c 257
 354 -106 l 258
 354 -139 339 -153 299 -153 c 258
 269 -153 l 257
 269 -186 l 257
 504 -186 l 257
 504 -153 l 257
 484 -153 l 258
 465 -153 452 -149 443 -140 c 257
 436 -135 433 -123 433 -106 c 258
 433 326 l 258
 433 370 437 411 446 448 c 257
 429 457 l 257
 409 434 391 410 376 384 c 257
EndSplineSet
PickledDataWithLists: "(dp1
S'com.adobe.type.autohint'
p2
(S'data'
S'<data>\\n  <hintSetList>\\n    <hintset pointTag=\"hr00\">\\n      <hstem pos=\"-186\" width=\"33\"/>\\n      <hstem pos=\"-15\" width=\"44\"/>\\n      <hstem pos=\"424\" width=\"33\"/>\\n      <vstem pos=\"23\" width=\"95\"/>\\n      <vstem pos=\"354\" width=\"79\"/>\\n    </hintset>\\n  </hintSetList>\\n  </data>'
Ntp3
s."
EndChar

StartChar: r
Encoding: 82 114 82
GlifName: r
Width: 435
VWidth: 0
Flags: W
LayerCount: 2
Back
Fore
SplineSet
24 416 m 257
NamedP: "hr00"
 64 416 l 258
 97 416 117 395 117 354 c 258
 117 66 l 258
 117 49 101 36 72 36 c 258
 27 36 l 257
 27 0 l 257
 307 0 l 257
 307 36 l 257
 250 36 l 258
 211 36 198 48 198 69 c 258
 198 166 l 258
 198 201 208 248 228 306 c 256
 240 343 258 373 281 394 c 256
 297 409 312 417 325 417 c 256
 331 417 334 415 334 410 c 256
 334 408 332 403 327 395 c 256
 322 386 320 375 320 364 c 256
 320 333 338 312 367 312 c 256
 395 312 418 336 418 376 c 256
 418 425 387 459 339 459 c 256
 267 459 221 396 185 276 c 257
 185 459 l 257
 24 450 l 257
 24 416 l 257
NamedP: "hr00"
EndSplineSet
PickledDataWithLists: "(dp1
S'com.adobe.type.autohint'
p2
(S'data'
S'<data>\\n  <hintSetList>\\n    <hintset pointTag=\"hr00\">\\n      <hstem pos=\"0\" width=\"36\"/>\\n      <hstem pos=\"416\" width=\"43\"/>\\n      <vstem pos=\"117\" width=\"68\"/>\\n      <vstem pos=\"320\" width=\"98\"/>\\n    </hintset>\\n  </hintSetList>\\n  </data>'
Ntp3
s."
EndChar

StartChar: s
Encoding: 83 115 83
GlifName: s
Width: 408
VWidth: 0
Flags: W
LayerCount: 2
Back
Fore
SplineSet
19 165 m 257
NamedP: "hr00"
 29 -14 l 257
 54 -14 l 257
 89 27 l 257
 127 -3 168 -18 213 -18 c 256
 261 -18 300 -4 331 23 c 256
 362 51 378 85 378 124 c 256
 378 181 348 223 295 242 c 256
 280 248 246 255 191 264 c 256
 146 271 116 281 99 294 c 256
 84 307 76 323 76 342 c 256
 76 383 113 419 173 419 c 256
 244 419 291 382 320 290 c 257
 352 290 l 257
 339 451 l 257
 320 451 l 257
 287 417 l 257
 254 442 218 455 178 455 c 256
 127 455 88 438 60 403 c 256
 38 376 27 345 27 312 c 256
 27 269 50 229 87 208 c 256
 106 198 140 188 189 178 c 256
 241 168 273 161 284 156 c 257
 296 152 305 145 312 134 c 256
 319 124 322 112 322 99 c 256
 322 52 286 18 215 18 c 256
 139 18 90 54 51 165 c 257
 19 165 l 257
NamedP: "hr00"
EndSplineSet
PickledDataWithLists: "(dp1
S'com.adobe.type.autohint'
p2
(S'data'
S'<data>\\n  <hintSetList>\\n    <hintset pointTag=\"hr00\">\\n      <hstem pos=\"-18\" width=\"36\"/>\\n      <hstem pos=\"7\" width=\"-21\"/>\\n      <hstem pos=\"419\" width=\"36\"/>\\n      <vstem pos=\"27\" width=\"49\"/>\\n      <vstem pos=\"322\" width=\"56\"/>\\n    </hintset>\\n  </hintSetList>\\n  </data>'
Ntp3
s."
EndChar

StartChar: t
Encoding: 84 116 84
GlifName: t
Width: 382
VWidth: 0
Flags: W
LayerCount: 2
Back
Fore
SplineSet
148 631 m 257
NamedP: "hr00"
 146 567 131 517 102 481 c 256
 84 458 57 444 22 437 c 257
 22 403 l 257
 100 403 l 257
 100 101 l 258
 100 36 144 -9 219 -9 c 256
 299 -9 354 48 359 167 c 257
 325 167 l 257
 320 76 287 38 244 38 c 256
 207 38 180 66 180 115 c 258
 180 403 l 257
 325 403 l 257
 325 448 l 257
 180 448 l 257
 180 631 l 257
 148 631 l 257
NamedP: "hr00"
EndSplineSet
PickledDataWithLists: "(dp1
S'com.adobe.type.autohint'
p2
(S'data'
S'<data>\\n  <hintSetList>\\n    <hintset pointTag=\"hr00\">\\n      <hstem pos=\"-9\" width=\"47\"/>\\n      <hstem pos=\"403\" width=\"45\"/>\\n      <vstem pos=\"100\" width=\"80\"/>\\n      <vstem pos=\"325\" width=\"34\"/>\\n    </hintset>\\n  </hintSetList>\\n  </data>'
Ntp3
s."
EndChar

StartChar: u
Encoding: 85 117 85
GlifName: u
Width: 579
VWidth: 0
Flags: W
LayerCount: 2
Back
Fore
SplineSet
11 448 m 257
NamedP: "hr00"
 11 413 l 257
 41 413 60 410 69 403 c 256
 83 394 90 381 90 363 c 258
 90 169 l 258
 90 104 105 59 133 32 c 256
 161 6 194 -9 235 -9 c 256
 288 -9 344 24 399 87 c 257
 408 -3 l 257
 559 1 l 257
 559 34 l 257
 531 34 l 258
 496 34 475 52 475 87 c 258
 475 456 l 257
 318 448 l 257
 318 413 l 257
 382 412 399 394 399 363 c 258
 399 196 l 258
 399 153 386 116 361 87 c 256
 336 58 305 44 269 44 c 256
 212 44 170 84 170 157 c 258
 170 456 l 257
 11 448 l 257
NamedP: "hr00"
EndSplineSet
PickledDataWithLists: "(dp1
S'com.adobe.type.autohint'
p2
(S'data'
S'<data>\\n  <hintSetList>\\n    <hintset pointTag=\"hr00\">\\n      <hstem pos=\"-9\" width=\"53\"/>\\n      <hstem pos=\"-3\" width=\"37\"/>\\n      <hstem pos=\"22\" width=\"-21\"/>\\n      <hstem pos=\"413\" width=\"43\"/>\\n      <vstem pos=\"90\" width=\"80\"/>\\n      <vstem pos=\"399\" width=\"76\"/>\\n    </hintset>\\n  </hintSetList>\\n  </data>'
Ntp3
s."
EndChar

StartChar: v
Encoding: 86 118 86
GlifName: v
Width: 527
VWidth: 0
Flags: W
LayerCount: 2
Back
Fore
SplineSet
11 412 m 257
NamedP: "hr00"
 51 412 64 402 77 373 c 258
 255 -18 l 257
 279 -18 l 257
 445 363 l 258
 458 392 477 409 517 412 c 257
 517 446 l 257
 330 446 l 257
 330 412 l 257
 376 407 399 392 399 368 c 256
 399 364 398 360 396 356 c 258
 287 99 l 257
 168 363 l 258
 165 370 164 377 164 385 c 256
 164 402 172 412 233 412 c 257
 233 446 l 257
 11 446 l 257
 11 412 l 257
NamedP: "hr00"
EndSplineSet
PickledDataWithLists: "(dp1
S'com.adobe.type.autohint'
p2
(S'data'
S'<data>\\n  <hintSetList>\\n    <hintset pointTag=\"hr00\">\\n      <hstem pos=\"3\" width=\"-21\"/>\\n      <hstem pos=\"412\" width=\"34\"/>\\n      <vstem pos=\"11\" width=\"506\"/>\\n      <vstem pos=\"11\" width=\"222\"/>\\n      <vstem pos=\"330\" width=\"187\"/>\\n    </hintset>\\n  </hintSetList>\\n  </data>'
Ntp3
s."
EndChar

StartChar: w
Encoding: 87 119 87
GlifName: w
Width: 750
VWidth: 0
Flags: W
LayerCount: 2
Back
Fore
SplineSet
14 412 m 257
NamedP: "hr00"
 45 411 55 404 65 380 c 258
 225 -18 l 257
 254 -18 l 257
 367 297 l 257
 492 -18 l 257
 521 -18 l 257
 652 346 l 258
 666 386 685 405 730 412 c 257
 730 446 l 257
 555 446 l 257
 555 412 l 257
 599 411 613 398 613 377 c 256
 613 367 610 355 605 340 c 258
 525 113 l 257
 422 367 l 258
 419 374 417 381 417 388 c 256
 417 403 429 412 462 412 c 258
 479 412 l 257
 479 446 l 257
 263 446 l 257
 263 412 l 257
 286 412 302 409 311 402 c 256
 320 396 332 380 345 355 c 257
 256 113 l 257
 155 367 l 258
 151 376 150 383 150 390 c 256
 150 405 161 412 185 412 c 258
 211 412 l 257
 211 446 l 257
 14 446 l 257
 14 412 l 257
NamedP: "hr00"
EndSplineSet
PickledDataWithLists: "(dp1
S'com.adobe.type.autohint'
p2
(S'data'
S'<data>\\n  <hintSetList>\\n    <hintset pointTag=\"hr00\">\\n      <hstem pos=\"3\" width=\"-21\"/>\\n      <hstem pos=\"412\" width=\"34\"/>\\n      <vstem pos=\"14\" width=\"197\"/>\\n      <vstem pos=\"263\" width=\"216\"/>\\n      <vstem pos=\"555\" width=\"175\"/>\\n    </hintset>\\n  </hintSetList>\\n  </data>'
Ntp3
s."
EndChar

StartChar: x
Encoding: 88 120 88
GlifName: x
Width: 527
VWidth: 0
Flags: W
LayerCount: 2
Back
Fore
SplineSet
22 417 m 257
NamedP: "hr00"
 54 416 77 405 91 386 c 258
 223 215 l 257
 133 102 l 258
 117 81 98 64 76 52 c 257
 64 44 46 39 22 36 c 257
 22 0 l 257
 218 0 l 257
 218 36 l 257
 193 37 176 40 167 45 c 256
 160 50 157 56 157 64 c 256
 157 71 162 82 172 95 c 258
 245 188 l 257
 334 69 l 258
 340 60 343 55 343 52 c 256
 343 47 341 44 336 41 c 256
 328 38 315 36 298 36 c 258
 281 36 l 257
 281 0 l 257
 512 0 l 257
 512 36 l 257
 471 36 452 45 434 69 c 258
 294 250 l 257
 382 359 l 258
 407 390 442 410 487 417 c 257
 487 450 l 257
 298 450 l 257
 298 417 l 257
 337 413 356 404 356 390 c 256
 356 384 354 378 349 371 c 258
 273 275 l 257
 194 378 l 258
 188 386 185 393 185 398 c 256
 185 409 203 416 240 417 c 257
 240 450 l 257
 22 450 l 257
 22 417 l 257
NamedP: "hr00"
EndSplineSet
PickledDataWithLists: "(dp1
S'com.adobe.type.autohint'
p2
(S'data'
S'<data>\\n  <hintSetList>\\n    <hintset pointTag=\"hr00\">\\n      <hstem pos=\"0\" width=\"36\"/>\\n      <hstem pos=\"417\" width=\"33\"/>\\n      <vstem pos=\"22\" width=\"490\"/>\\n      <vstem pos=\"22\" width=\"218\"/>\\n      <vstem pos=\"22\" width=\"196\"/>\\n      <vstem pos=\"281\" width=\"231\"/>\\n      <vstem pos=\"298\" width=\"189\"/>\\n    </hintset>\\n  </hintSetList>\\n  </data>'
Ntp3
s."
EndChar

StartChar: y
Encoding: 89 121 89
GlifName: y
Width: 527
VWidth: 0
Flags: W
LayerCount: 2
Back
Fore
SplineSet
20 423 m 257
NamedP: "hr00"
 57 418 70 408 83 381 c 258
 254 16 l 257
 225 -43 205 -80 193 -97 c 256
 182 -114 169 -127 156 -134 c 256
 143 -142 131 -146 120 -146 c 256
 111 -146 106 -142 106 -135 c 256
 106 -132 106 -129 107 -124 c 256
 109 -118 110 -113 110 -109 c 256
 110 -86 90 -70 67 -70 c 256
 39 -70 19 -89 19 -118 c 256
 19 -157 51 -186 98 -186 c 256
 132 -186 163 -174 191 -149 c 256
 220 -124 248 -78 276 -13 c 258
 443 374 l 258
 456 403 480 420 515 423 c 257
 515 455 l 257
 329 455 l 257
 329 423 l 257
 386 419 397 406 397 383 c 256
 397 367 394 351 387 335 c 258
 295 110 l 257
 171 381 l 258
 169 386 168 390 168 394 c 256
 168 411 179 423 216 423 c 258
 237 423 l 257
 237 455 l 257
 20 455 l 257
 20 423 l 257
NamedP: "hr00"
EndSplineSet
PickledDataWithLists: "(dp1
S'com.adobe.type.autohint'
p2
(S'data'
S'<data>\\n  <hintSetList>\\n    <hintset pointTag=\"hr00\">\\n      <hstem pos=\"-186\" width=\"40\"/>\\n      <hstem pos=\"423\" width=\"32\"/>\\n      <vstem pos=\"19\" width=\"91\"/>\\n      <vstem pos=\"20\" width=\"217\"/>\\n      <vstem pos=\"329\" width=\"186\"/>\\n    </hintset>\\n  </hintSetList>\\n  </data>'
Ntp3
s."
EndChar

StartChar: z
Encoding: 90 122 90
GlifName: z
Width: 434
VWidth: 0
Flags: W
LayerCount: 2
Back
Fore
SplineSet
34 289 m 257
NamedP: "hr00"
 71 289 l 257
 84 369 102 392 127 405 c 256
 140 412 158 416 182 416 c 258
 303 416 l 257
 20 34 l 257
 20 0 l 257
 398 0 l 257
 409 176 l 257
 378 176 l 257
 357 69 320 36 257 36 c 258
 120 36 l 257
 402 421 l 257
 402 450 l 257
 46 450 l 257
 34 289 l 257
NamedP: "hr00"
EndSplineSet
PickledDataWithLists: "(dp1
S'com.adobe.type.autohint'
p2
(S'data'
S'<data>\\n  <hintSetList>\\n    <hintset pointTag=\"hr00\">\\n      <hstem pos=\"0\" width=\"36\"/>\\n      <hstem pos=\"416\" width=\"34\"/>\\n      <vstem pos=\"20\" width=\"389\"/>\\n    </hintset>\\n  </hintSetList>\\n  </data>'
Ntp3
s."
EndChar

StartChar: braceleft
Encoding: 91 123 91
GlifName: braceleft
Width: 576
VWidth: 0
Flags: W
LayerCount: 2
Back
Fore
SplineSet
69 257 m 257
NamedP: "hr00"
 106 257 139 242 167 215 c 256
 196 187 210 154 210 115 c 258
 210 -36 l 258
 210 -111 238 -174 295 -227 c 256
 352 -280 419 -306 495 -306 c 257
 473 -288 l 257
 426 -288 386 -263 353 -214 c 256
 320 -165 304 -106 304 -36 c 258
 304 115 l 258
 304 171 238 232 127 263 c 257
 238 294 304 354 304 413 c 258
 304 563 l 258
 304 632 320 691 353 741 c 256
 386 792 426 817 472 817 c 257
 472 833 l 257
 401 833 339 806 287 753 c 256
 236 700 210 637 210 563 c 258
 210 413 l 258
 210 374 196 341 167 314 c 256
 139 287 106 273 69 273 c 257
 69 257 l 257
NamedP: "hr00"
EndSplineSet
PickledDataWithLists: "(dp1
S'com.adobe.type.autohint'
p2
(S'data'
S'<data>\\n  <hintSetList>\\n    <hintset pointTag=\"hr00\">\\n      <hstem pos=\"-306\" width=\"18\"/>\\n      <hstem pos=\"257\" width=\"16\"/>\\n      <hstem pos=\"817\" width=\"16\"/>\\n      <vstem pos=\"210\" width=\"94\"/>\\n    </hintset>\\n  </hintSetList>\\n  </data>'
Ntp3
s."
EndChar

StartChar: bar
Encoding: 92 124 92
GlifName: bar
Width: 217
VWidth: 0
Flags: W
LayerCount: 2
Back
Fore
SplineSet
142 -436 m 257
NamedP: "hr00"
 142 960 l 257
 69 960 l 257
 69 -436 l 257
 142 -436 l 257
NamedP: "hr00"
EndSplineSet
PickledDataWithLists: "(dp1
S'com.adobe.type.autohint'
p2
(S'data'
S'<data>\\n  <hintSetList>\\n    <hintset pointTag=\"hr00\">\\n      <hstem pos=\"-436\" width=\"1396\"/>\\n      <vstem pos=\"69\" width=\"73\"/>\\n    </hintset>\\n  </hintSetList>\\n  </data>'
Ntp3
s."
EndChar

StartChar: braceright
Encoding: 93 125 93
GlifName: braceright
Width: 548
VWidth: 0
Flags: W
LayerCount: 2
Back
Fore
SplineSet
472 266 m 257
NamedP: "hr00"
 435 266 402 279 373 307 c 256
 345 334 331 368 331 407 c 258
 331 555 l 258
 331 629 305 693 254 746 c 256
 203 800 141 827 69 827 c 257
 69 809 l 257
 115 809 155 784 188 735 c 256
 221 686 238 626 238 555 c 258
 238 407 l 258
 238 348 303 288 414 257 c 257
 303 225 238 166 238 109 c 258
 238 -43 l 258
 238 -113 221 -173 188 -222 c 256
 155 -271 115 -296 69 -296 c 257
 69 -312 l 257
 141 -312 203 -285 254 -232 c 256
 305 -179 331 -116 331 -43 c 258
 331 109 l 258
 331 148 345 181 373 208 c 256
 402 235 435 249 472 249 c 257
 472 266 l 257
NamedP: "hr00"
EndSplineSet
PickledDataWithLists: "(dp1
S'com.adobe.type.autohint'
p2
(S'data'
S'<data>\\n  <hintSetList>\\n    <hintset pointTag=\"hr00\">\\n      <hstem pos=\"-312\" width=\"16\"/>\\n      <hstem pos=\"249\" width=\"17\"/>\\n      <hstem pos=\"809\" width=\"18\"/>\\n      <vstem pos=\"238\" width=\"93\"/>\\n    </hintset>\\n  </hintSetList>\\n  </data>'
Ntp3
s."
EndChar

StartChar: asciitilde
Encoding: 94 126 94
GlifName: asciitilde
Width: 773
VWidth: 0
Flags: W
LayerCount: 2
Back
Fore
SplineSet
87 178 m 257
NamedP: "hr00"
 123 229 181 264 240 264 c 256
 275 264 323 247 384 213 c 256
 445 179 493 162 528 162 c 256
 580 162 644 219 696 308 c 257
 680 325 l 257
 645 277 586 248 525 248 c 256
 490 248 444 265 387 298 c 256
 330 332 286 349 253 349 c 256
 176 349 102 286 69 197 c 257
 87 178 l 257
NamedP: "hr00"
EndSplineSet
PickledDataWithLists: "(dp1
S'com.adobe.type.autohint'
p2
(S'data'
S'<data>\\n  <hintSetList>\\n    <hintset pointTag=\"hr00\">\\n      <hstem pos=\"162\" width=\"86\"/>\\n      <hstem pos=\"264\" width=\"85\"/>\\n      <vstem pos=\"69\" width=\"627\"/>\\n    </hintset>\\n  </hintSetList>\\n  </data>'
Ntp3
s."
EndChar

StartChar: ellipsis
Encoding: 95 8230 95
GlifName: ellipsis
Width: 1066
VWidth: 0
Flags: W
LayerCount: 2
Back
Fore
SplineSet
821 -38 m 257
NamedP: "hr00"
 1014 -38 l 257
 1014 26 l 257
 821 26 l 257
 821 -38 l 257
NamedP: "hr00"
428 -38 m 257
 623 -38 l 257
 623 26 l 257
 428 26 l 257
 428 -38 l 257
20 -38 m 257
 213 -38 l 257
 213 26 l 257
 20 26 l 257
 20 -38 l 257
EndSplineSet
PickledDataWithLists: "(dp1
S'com.adobe.type.autohint'
p2
(S'data'
S'<data>\\n  <hintSetList>\\n    <hintset pointTag=\"hr00\">\\n      <hstem pos=\"-38\" width=\"64\"/>\\n      <vstem pos=\"20\" width=\"193\"/>\\n      <vstem pos=\"428\" width=\"195\"/>\\n      <vstem pos=\"821\" width=\"193\"/>\\n    </hintset>\\n  </hintSetList>\\n  </data>'
Ntp3
s."
EndChar

StartChar: quoteleft
Encoding: 96 8216 96
GlifName: quoteleft
Width: 252
VWidth: 0
Flags: W
LayerCount: 2
Back
Fore
SplineSet
162 664 m 257
NamedP: "hr00"
 129 639 106 615 88 590 c 256
 66 559 53 526 53 491 c 256
 53 448 78 410 117 410 c 256
 142 410 170 432 170 456 c 256
 170 483 148 506 123 506 c 257
 105 504 l 257
 101 503 l 257
 93 503 l 257
 89 509 l 257
 86 526 92 546 105 569 c 256
 120 596 143 622 174 647 c 257
 162 664 l 257
NamedP: "hr00"
EndSplineSet
PickledDataWithLists: "(dp1
S'com.adobe.type.autohint'
p2
(S'data'
S'<data>\\n  <hintSetList>\\n    <hintset pointTag=\"hr00\">\\n      <hstem pos=\"410\" width=\"96\"/>\\n      <vstem pos=\"53\" width=\"36\"/>\\n    </hintset>\\n  </hintSetList>\\n  </data>'
Ntp3
s."
EndChar

StartChar: quoteright
Encoding: 97 8217 97
GlifName: quoteright
Width: 252
VWidth: 0
Flags: W
LayerCount: 2
Back
Fore
SplineSet
176 517 m 256
NamedP: "hr00"
 176 561 151 598 111 598 c 256
 102 598 93 595 84 590 c 256
 67 581 59 568 59 551 c 256
 59 523 79 500 106 500 c 257
 122 502 l 257
 128 503 l 257
 134 503 l 257
 139 498 l 257
 142 481 137 461 124 438 c 256
 108 411 85 385 55 360 c 257
 67 345 l 257
 100 369 125 393 142 416 c 256
 165 447 176 481 176 517 c 256
NamedP: "hr00"
EndSplineSet
PickledDataWithLists: "(dp1
S'com.adobe.type.autohint'
p2
(S'data'
S'<data>\\n  <hintSetList>\\n    <hintset pointTag=\"hr00\">\\n      <hstem pos=\"500\" width=\"98\"/>\\n      <vstem pos=\"139\" width=\"37\"/>\\n    </hintset>\\n  </hintSetList>\\n  </data>'
Ntp3
s."
EndChar

StartChar: quotedblleft
Encoding: 98 8220 98
GlifName: quotedblleft
Width: 464
VWidth: 0
Flags: W
LayerCount: 2
Back
Fore
SplineSet
377 664 m 257
NamedP: "hr00"
 345 639 321 615 303 590 c 256
 281 559 268 526 268 491 c 256
 268 448 293 410 333 410 c 256
 357 410 384 432 384 456 c 256
 384 483 363 506 338 506 c 257
 321 504 l 257
 316 503 l 257
 308 503 l 257
 304 509 l 257
 301 526 307 546 320 569 c 256
 335 596 358 622 388 647 c 257
 377 664 l 257
NamedP: "hr00"
185 664 m 257
 152 639 129 615 111 590 c 256
 89 559 76 526 76 491 c 256
 76 448 101 410 140 410 c 256
 165 410 193 432 193 456 c 256
 193 483 171 506 146 506 c 257
 128 504 l 257
 124 503 l 257
 116 503 l 257
 112 509 l 257
 109 526 115 546 128 569 c 256
 143 596 166 622 197 647 c 257
 185 664 l 257
EndSplineSet
PickledDataWithLists: "(dp1
S'com.adobe.type.autohint'
p2
(S'data'
S'<data>\\n  <hintSetList>\\n    <hintset pointTag=\"hr00\">\\n      <hstem pos=\"410\" width=\"96\"/>\\n      <vstem pos=\"76\" width=\"36\"/>\\n      <vstem pos=\"268\" width=\"36\"/>\\n    </hintset>\\n  </hintSetList>\\n  </data>'
Ntp3
s."
EndChar

StartChar: quotedblright
Encoding: 99 8221 99
GlifName: quotedblright
Width: 464
VWidth: 0
Flags: W
LayerCount: 2
Back
Fore
SplineSet
383 517 m 256
NamedP: "hr00"
 383 561 358 598 318 598 c 256
 309 598 300 595 291 590 c 256
 274 581 266 568 266 551 c 256
 266 523 288 500 312 500 c 257
 330 502 l 257
 335 503 l 257
 341 503 l 257
 347 498 l 257
 350 481 344 461 331 438 c 256
 316 411 293 385 262 360 c 257
 274 345 l 257
 308 369 333 393 349 416 c 256
 372 447 383 481 383 517 c 256
NamedP: "hr00"
176 517 m 256
 176 561 151 598 111 598 c 256
 102 598 93 595 84 590 c 256
 67 581 59 568 59 551 c 256
 59 523 79 500 106 500 c 257
 122 502 l 257
 128 503 l 257
 134 503 l 257
 139 498 l 257
 142 481 137 461 124 438 c 256
 108 411 85 385 55 360 c 257
 67 345 l 257
 100 369 125 393 142 416 c 256
 165 447 176 481 176 517 c 256
EndSplineSet
PickledDataWithLists: "(dp1
S'com.adobe.type.autohint'
p2
(S'data'
S'<data>\\n  <hintSetList>\\n    <hintset pointTag=\"hr00\">\\n      <hstem pos=\"500\" width=\"98\"/>\\n      <vstem pos=\"139\" width=\"37\"/>\\n      <vstem pos=\"347\" width=\"36\"/>\\n    </hintset>\\n  </hintSetList>\\n  </data>'
Ntp3
s."
EndChar

StartChar: bullet
Encoding: 100 8226 100
GlifName: bullet
Width: 552
VWidth: 0
Flags: W
LayerCount: 2
Back
Fore
SplineSet
273 341 m 258
NamedP: "hr00"
 266 334 259 330 251 327 c 257
 251 348 255 373 263 401 c 256
 268 418 277 440 289 468 c 256
 300 492 303 506 303 525 c 256
 303 540 297 554 284 566 c 256
 273 577 259 586 244 591 c 257
 205 580 179 557 179 518 c 256
 179 509 182 496 188 480 c 257
 194 468 232 375 232 343 c 258
 232 327 l 257
 215 334 199 346 183 364 c 256
 174 375 162 392 147 413 c 256
 133 434 121 449 111 456 c 257
 96 469 81 476 64 476 c 256
 50 476 37 472 25 464 c 257
 20 462 13 458 4 451 c 257
 1 421 l 257
 1 392 12 372 35 360 c 256
 47 354 71 348 106 343 c 256
 153 336 193 326 224 307 c 257
 199 292 163 281 127 276 c 258
 83 270 l 258
 60 267 41 260 26 250 c 256
 9 239 0 221 0 198 c 256
 0 190 3 178 4 165 c 257
 28 148 41 140 65 140 c 256
 80 140 93 145 105 154 c 256
 114 160 124 170 134 185 c 256
 153 214 168 233 178 244 c 256
 197 265 215 280 232 290 c 257
 232 283 l 258
 232 250 222 220 206 180 c 258
 194 149 l 258
 186 129 181 111 181 96 c 256
 181 77 187 62 200 49 c 256
 212 37 225 28 244 23 c 257
 280 34 305 59 305 99 c 256
 305 110 303 119 299 128 c 258
 293 146 l 257
 276 183 l 258
 268 200 262 216 258 231 c 256
 253 250 250 266 250 279 c 257
 251 290 l 257
 268 279 286 264 303 246 c 257
 347 189 l 258
 359 173 368 160 377 154 c 256
 390 145 406 140 423 140 c 256
 444 140 461 149 478 165 c 257
 481 170 482 182 482 193 c 256
 482 237 450 265 407 270 c 258
 358 276 l 258
 321 281 288 292 257 307 c 257
 276 319 299 329 325 334 c 258
 395 346 l 258
 454 356 482 377 483 419 c 256
 483 428 482 438 478 451 c 257
 455 464 442 474 419 474 c 256
 403 474 389 469 376 460 c 256
 369 454 360 442 347 425 c 258
 323 394 l 257
 273 341 l 258
NamedP: "hr00"
EndSplineSet
PickledDataWithLists: "(dp1
S'com.adobe.type.autohint'
p2
(S'data'
S'<data>\\n  <hintSetList>\\n    <hintset pointTag=\"hr00\">\\n      <hstem pos=\"23\" width=\"568\"/>\\n      <hstem pos=\"140\" width=\"133\"/>\\n      <vstem pos=\"232\" width=\"19\"/>\\n    </hintset>\\n  </hintSetList>\\n  </data>'
Ntp3
s."
EndChar

StartChar: endash
Encoding: 101 8211 101
GlifName: endash
Width: 679
VWidth: 0
Flags: W
LayerCount: 2
Back
Fore
SplineSet
20 204 m 257
NamedP: "hr00"
 625 204 l 257
 625 277 l 257
 20 277 l 257
 20 204 l 257
NamedP: "hr00"
EndSplineSet
PickledDataWithLists: "(dp1
S'com.adobe.type.autohint'
p2
(S'data'
S'<data>\\n  <hintSetList>\\n    <hintset pointTag=\"hr00\">\\n      <hstem pos=\"204\" width=\"73\"/>\\n      <vstem pos=\"20\" width=\"605\"/>\\n    </hintset>\\n  </hintSetList>\\n  </data>'
Ntp3
s."
EndChar

StartChar: emdash
Encoding: 102 8212 102
GlifName: emdash
Width: 1480
VWidth: 0
Flags: W
LayerCount: 2
Back
Fore
SplineSet
2 204 m 257
NamedP: "hr00"
 1392 204 l 257
 1392 277 l 257
 2 277 l 257
 2 204 l 257
NamedP: "hr00"
EndSplineSet
PickledDataWithLists: "(dp1
S'com.adobe.type.autohint'
p2
(S'data'
S'<data>\\n  <hintSetList>\\n    <hintset pointTag=\"hr00\">\\n      <hstem pos=\"204\" width=\"73\"/>\\n      <vstem pos=\"2\" width=\"1390\"/>\\n    </hintset>\\n  </hintSetList>\\n  </data>'
Ntp3
s."
EndChar

StartChar: cent
Encoding: 103 162 103
GlifName: cent
Width: 623
VWidth: 0
Flags: W
LayerCount: 2
Back
Fore
SplineSet
209 39 m 257
NamedP: "hr00"
 161 86 135 161 135 257 c 256
 135 312 154 360 192 399 c 256
 230 438 276 458 330 458 c 256
 339 458 351 456 367 451 c 257
 209 39 l 257
NamedP: "hr00"
322 -86 m 256
 375 -86 423 -70 465 -40 c 256
 508 -9 535 29 547 78 c 257
 529 86 l 257
 492 25 421 -19 341 -19 c 256
 306 -19 269 -9 241 14 c 257
 400 438 l 257
 420 433 432 413 432 389 c 257
 437 361 458 343 482 343 c 256
 503 343 520 362 520 385 c 256
 520 426 480 466 416 487 c 257
 498 699 l 257
 457 699 l 257
 377 490 l 257
 352 490 l 258
 274 490 207 461 152 404 c 256
 97 347 69 278 69 197 c 256
 69 104 109 17 180 -40 c 257
 112 -223 l 257
 151 -223 l 257
 215 -57 l 257
 258 -76 293 -86 322 -86 c 256
EndSplineSet
PickledDataWithLists: "(dp1
S'com.adobe.type.autohint'
p2
(S'data'
S'<data>\\n  <hintSetList>\\n    <hintset pointTag=\"hr00\">\\n      <hstem pos=\"-86\" width=\"67\"/>\\n      <hstem pos=\"458\" width=\"32\"/>\\n      <vstem pos=\"69\" width=\"66\"/>\\n      <vstem pos=\"432\" width=\"88\"/>\\n    </hintset>\\n  </hintSetList>\\n  </data>'
Ntp3
s."
EndChar

StartChar: copyright
Encoding: 104 169 104
GlifName: copyright
Width: 668
VWidth: 0
Flags: W
LayerCount: 2
Back
Fore
SplineSet
432 487 m 257
NamedP: "hr00"
 424 472 419 468 410 468 c 256
 407 468 402 469 394 472 c 256
 351 485 343 487 316 487 c 256
 255 487 204 468 165 430 c 256
 126 392 106 346 106 293 c 256
 106 240 125 196 162 159 c 256
 199 123 246 105 302 105 c 256
 370 105 424 134 463 191 c 257
 448 198 l 257
 415 153 371 131 316 131 c 256
 233 131 176 185 176 305 c 256
 176 349 189 392 206 416 c 256
 229 449 265 468 312 468 c 256
 375 468 420 437 441 369 c 257
 456 369 l 257
 448 487 l 257
 432 487 l 257
NamedP: "hr00"
299 568 m 256
 391 568 487 520 536 432 c 256
 561 388 573 343 573 296 c 256
 573 200 522 105 434 57 c 256
 391 34 346 22 299 22 c 256
 206 22 111 71 62 158 c 256
 38 202 26 248 26 296 c 256
 26 343 38 388 63 432 c 256
 88 476 122 510 165 533 c 256
 209 556 254 568 299 568 c 256
299 595 m 256
 249 595 200 582 152 556 c 256
 104 530 67 493 40 445 c 256
 13 397 0 347 0 296 c 256
 0 244 13 194 39 146 c 256
 66 98 103 61 150 35 c 256
 198 9 248 -4 299 -4 c 256
 403 -4 506 50 559 146 c 256
 585 194 599 244 599 296 c 256
 599 347 585 397 558 445 c 256
 531 493 494 530 446 556 c 256
 399 582 350 595 299 595 c 256
EndSplineSet
PickledDataWithLists: "(dp1
S'com.adobe.type.autohint'
p2
(S'data'
S'<data>\\n  <hintSetList>\\n    <hintset pointTag=\"hr00\">\\n      <hstem pos=\"-4\" width=\"26\"/>\\n      <hstem pos=\"105\" width=\"26\"/>\\n      <hstem pos=\"468\" width=\"19\"/>\\n      <hstem pos=\"568\" width=\"27\"/>\\n      <vstem pos=\"0\" width=\"26\"/>\\n      <vstem pos=\"106\" width=\"70\"/>\\n      <vstem pos=\"573\" width=\"26\"/>\\n    </hintset>\\n  </hintSetList>\\n  </data>'
Ntp3
s."
EndChar

StartChar: registered
Encoding: 105 174 105
GlifName: registered
Width: 672
VWidth: 0
Flags: W
LayerCount: 2
Back
Fore
SplineSet
233 452 m 257
NamedP: "hr00"
 246 457 258 459 268 459 c 256
 319 459 354 423 354 378 c 257
 348 334 330 301 233 302 c 257
 233 452 l 257
NamedP: "hr00"
134 461 m 257
 159 461 166 455 170 442 c 256
 171 439 171 427 171 406 c 258
 171 185 l 258
 171 164 170 151 169 146 c 257
 164 134 156 127 128 127 c 257
 128 114 l 257
 283 114 l 257
 283 127 l 257
 246 127 237 135 233 154 c 257
 233 284 l 257
 264 284 l 257
 389 114 l 257
 465 114 l 257
 465 127 l 257
 456 128 450 130 445 134 c 256
 436 140 426 150 415 163 c 257
 328 289 l 257
 393 306 421 341 421 382 c 256
 421 437 379 477 296 477 c 258
 134 477 l 257
 134 461 l 257
298 565 m 256
 390 565 486 517 534 429 c 256
 558 386 570 341 570 294 c 256
 570 199 521 105 433 57 c 256
 390 34 345 22 298 22 c 256
 205 22 111 71 62 158 c 256
 38 201 26 247 26 294 c 256
 26 341 38 386 63 429 c 256
 88 473 121 507 164 530 c 256
 207 553 252 565 298 565 c 256
298 592 m 256
 249 592 200 579 152 553 c 256
 104 528 67 491 40 443 c 256
 13 395 0 345 0 294 c 256
 0 190 55 87 150 35 c 256
 198 9 247 -4 298 -4 c 256
 349 -4 399 9 446 35 c 256
 494 61 531 98 557 145 c 256
 583 192 596 242 596 294 c 256
 596 345 583 395 556 443 c 256
 530 491 493 528 445 553 c 256
 397 579 348 592 298 592 c 256
EndSplineSet
PickledDataWithLists: "(dp1
S'com.adobe.type.autohint'
p2
(S'data'
S'<data>\\n  <hintSetList>\\n    <hintset pointTag=\"hr00\">\\n      <hstem pos=\"-4\" width=\"26\"/>\\n      <hstem pos=\"114\" width=\"13\"/>\\n      <hstem pos=\"284\" width=\"18\"/>\\n      <hstem pos=\"459\" width=\"18\"/>\\n      <hstem pos=\"565\" width=\"27\"/>\\n      <vstem pos=\"0\" width=\"26\"/>\\n      <vstem pos=\"171\" width=\"62\"/>\\n      <vstem pos=\"354\" width=\"67\"/>\\n      <vstem pos=\"570\" width=\"26\"/>\\n    </hintset>\\n  </hintSetList>\\n  </data>'
Ntp3
s."
EndChar

StartChar: onequarter
Encoding: 106 188 106
GlifName: onequarter
Width: 803
VWidth: 0
Flags: W
LayerCount: 2
Back
Fore
SplineSet
217 279 m 257
NamedP: "hr00"
 217 669 l 257
 165 669 l 257
 160 616 132 596 65 596 c 258
 55 596 l 257
 55 559 l 257
 69 559 l 258
 95 559 112 560 121 561 c 256
 130 563 143 564 160 564 c 257
 160 279 l 257
 217 279 l 257
NamedP: "hr00"
224 -27 m 257
 663 678 l 257
 594 678 l 257
 154 -27 l 257
 224 -27 l 257
742 -8 m 257
 742 86 l 257
 798 86 l 257
 798 131 l 257
 742 131 l 257
 742 372 l 257
 686 372 l 257
 502 126 l 257
 502 86 l 257
 685 86 l 257
 685 -8 l 257
 742 -8 l 257
564 131 m 257
 685 294 l 257
 685 131 l 257
 564 131 l 257
EndSplineSet
PickledDataWithLists: "(dp1
S'com.adobe.type.autohint'
p2
(S'data'
S'<data>\\n  <hintSetList>\\n    <hintset pointTag=\"hr00\">\\n      <hstem pos=\"-8\" width=\"139\"/>\\n      <hstem pos=\"86\" width=\"45\"/>\\n      <hstem pos=\"559\" width=\"37\"/>\\n      <vstem pos=\"160\" width=\"57\"/>\\n      <vstem pos=\"685\" width=\"57\"/>\\n    </hintset>\\n  </hintSetList>\\n  </data>'
Ntp3
s."
EndChar

StartChar: onehalf
Encoding: 107 189 107
GlifName: onehalf
Width: 803
VWidth: 0
Flags: W
LayerCount: 2
Back
Fore
SplineSet
217 279 m 257
NamedP: "hr00"
 217 669 l 257
 165 669 l 257
 160 616 132 596 65 596 c 258
 55 596 l 257
 55 559 l 257
 69 559 l 258
 95 559 112 560 121 561 c 256
 130 563 143 564 160 564 c 257
 160 279 l 257
 217 279 l 257
NamedP: "hr00"
224 -27 m 257
 663 678 l 257
 594 678 l 257
 154 -27 l 257
 224 -27 l 257
793 -8 m 257
 793 38 l 257
 559 38 l 257
 562 57 585 86 645 118 c 258
 677 135 l 258
 717 156 745 172 758 185 c 256
 782 210 794 237 794 266 c 256
 794 338 741 382 656 382 c 256
 567 382 515 338 511 245 c 257
 567 245 l 257
 568 309 600 338 655 338 c 256
 707 338 736 310 736 266 c 256
 736 245 728 227 713 214 c 257
 703 203 681 189 647 172 c 256
 630 163 617 157 608 153 c 257
 531 110 501 67 501 12 c 258
 501 -8 l 257
 793 -8 l 257
EndSplineSet
PickledDataWithLists: "(dp1
S'com.adobe.type.autohint'
p2
(S'data'
S'<data>\\n  <hintSetList>\\n    <hintset pointTag=\"hr00\">\\n      <hstem pos=\"-8\" width=\"46\"/>\\n      <hstem pos=\"338\" width=\"44\"/>\\n      <hstem pos=\"559\" width=\"37\"/>\\n      <vstem pos=\"160\" width=\"57\"/>\\n      <vstem pos=\"501\" width=\"58\"/>\\n      <vstem pos=\"511\" width=\"56\"/>\\n      <vstem pos=\"736\" width=\"58\"/>\\n    </hintset>\\n  </hintSetList>\\n  </data>'
Ntp3
s."
EndChar

StartChar: threequarters
Encoding: 108 190 108
GlifName: threequarters
Width: 802
VWidth: 0
Flags: W
LayerCount: 2
Back
Fore
SplineSet
19 394 m 258
NamedP: "hr00"
 19 317 74 268 165 268 c 256
 256 268 311 314 311 389 c 256
 311 415 303 437 290 454 c 256
 276 472 265 482 255 483 c 257
 268 492 296 525 296 565 c 256
 296 629 248 669 168 669 c 256
 85 669 37 628 32 544 c 257
 88 544 l 257
 89 601 117 626 168 626 c 256
 211 626 239 601 239 565 c 256
 239 524 210 502 151 502 c 258
 127 502 l 257
 127 458 l 257
 144 461 145 460 154 460 c 256
 221 460 252 437 252 389 c 256
 252 341 220 314 164 314 c 256
 109 314 80 341 77 402 c 257
 19 402 l 257
 19 394 l 258
NamedP: "hr00"
223 -27 m 257
 663 678 l 257
 593 678 l 257
 154 -27 l 257
 223 -27 l 257
741 -8 m 257
 741 86 l 257
 797 86 l 257
 797 131 l 257
 741 131 l 257
 741 372 l 257
 685 372 l 257
 501 126 l 257
 501 86 l 257
 685 86 l 257
 685 -8 l 257
 741 -8 l 257
565 131 m 257
 685 294 l 257
 685 131 l 257
 565 131 l 257
EndSplineSet
PickledDataWithLists: "(dp1
S'com.adobe.type.autohint'
p2
(S'data'
S'<data>\\n  <hintSetList>\\n    <hintset pointTag=\"hr00\">\\n      <hstem pos=\"-8\" width=\"139\"/>\\n      <hstem pos=\"86\" width=\"45\"/>\\n      <hstem pos=\"268\" width=\"46\"/>\\n      <hstem pos=\"460\" width=\"42\"/>\\n      <hstem pos=\"626\" width=\"43\"/>\\n      <vstem pos=\"19\" width=\"58\"/>\\n      <vstem pos=\"32\" width=\"56\"/>\\n      <vstem pos=\"239\" width=\"57\"/>\\n      <vstem pos=\"252\" width=\"59\"/>\\n      <vstem pos=\"685\" width=\"56\"/>\\n    </hintset>\\n  </hintSetList>\\n  </data>'
Ntp3
s."
EndChar

StartChar: multiply
Encoding: 109 215 109
GlifName: multiply
Width: 522
VWidth: 0
Flags: W
LayerCount: 2
Back
Fore
SplineSet
113 19 m 257
NamedP: "hr00"
 257 162 l 257
 401 19 l 257
 442 61 l 257
 300 206 l 257
 444 351 l 257
 402 393 l 257
 257 249 l 257
 113 393 l 257
 69 351 l 257
 214 206 l 257
 70 61 l 257
 113 19 l 257
NamedP: "hr00"
EndSplineSet
PickledDataWithLists: "(dp1
S'com.adobe.type.autohint'
p2
(S'data'
S'<data>\\n  <hintSetList>\\n    <hintset pointTag=\"hr00\">\\n      <hstem pos=\"19\" width=\"374\"/>\\n      <vstem pos=\"69\" width=\"375\"/>\\n    </hintset>\\n  </hintSetList>\\n  </data>'
Ntp3
s."
EndChar

StartChar: divide
Encoding: 110 247 110
GlifName: divide
Width: 642
VWidth: 0
Flags: W
LayerCount: 2
Back
Fore
SplineSet
265 61 m 256
NamedP: "hr00"
 265 33 288 8 319 8 c 256
 348 8 372 33 372 61 c 256
 372 92 348 115 319 115 c 256
 288 115 265 92 265 61 c 256
NamedP: "hr00"
265 393 m 256
 265 361 288 340 319 340 c 256
 348 340 372 361 372 393 c 256
 372 424 348 447 319 447 c 256
 288 447 265 424 265 393 c 256
69 192 m 257
 567 192 l 257
 567 254 l 257
 69 254 l 257
 69 192 l 257
EndSplineSet
PickledDataWithLists: "(dp1
S'com.adobe.type.autohint'
p2
(S'data'
S'<data>\\n  <hintSetList>\\n    <hintset pointTag=\"hr00\">\\n      <hstem pos=\"8\" width=\"107\"/>\\n      <hstem pos=\"192\" width=\"62\"/>\\n      <hstem pos=\"340\" width=\"107\"/>\\n      <vstem pos=\"265\" width=\"107\"/>\\n    </hintset>\\n  </hintSetList>\\n  </data>'
Ntp3
s."
EndChar

StartChar: .notdef
Encoding: 111 -1 111
GlifName: _notdef
Width: 800
VWidth: 0
Flags: W
LayerCount: 2
Back
Fore
SplineSet
650 50 m 257
NamedP: "hr00"
 150 50 l 257
 150 650 l 257
 650 650 l 257
 650 50 l 257
NamedP: "hr00"
100 700 m 257
 100 0 l 257
 700 0 l 257
 700 700 l 257
 100 700 l 257
EndSplineSet
PickledDataWithLists: "(dp1
S'com.adobe.type.autohint'
p2
(S'data'
S'<data>\\n  <hintSetList>\\n    <hintset pointTag=\"hr00\">\\n      <hstem pos=\"0\" width=\"50\"/>\\n      <hstem pos=\"650\" width=\"50\"/>\\n      <vstem pos=\"100\" width=\"50\"/>\\n      <vstem pos=\"650\" width=\"50\"/>\\n    </hintset>\\n  </hintSetList>\\n  </data>'
Ntp3
s."
EndChar

StartChar: uni0950
Encoding: 114 2384 114
GlifName: uni0950
Width: 798
VWidth: 0
Flags: W
LayerCount: 2
Back
Fore
SplineSet
366 695 m 257
NamedP: "hr00"
 413 646 l 257
 461 691 l 257
 413 740 l 257
 366 695 l 257
NamedP: "hr00"
276 647 m 257
 320 578 375 544 440 544 c 256
 483 544 526 566 567 611 c 257
 504 662 l 257
 476 623 442 604 403 604 c 256
 362 604 327 623 296 662 c 257
 276 647 l 257
524 403 m 257
 543 442 573 461 613 461 c 256
 672 461 712 403 712 320 c 256
 712 232 666 167 606 167 c 256
 570 167 552 197 552 257 c 258
 552 286 l 257
 552 343 l 258
 552 374 543 394 524 403 c 257
37 343 m 257
 46 246 76 165 130 99 c 256
 183 34 247 1 320 1 c 256
 411 1 469 57 469 140 c 256
 469 190 448 244 405 301 c 257
 437 322 463 333 483 333 c 256
 506 333 518 310 518 264 c 258
 518 229 l 258
 518 136 542 102 602 102 c 256
 693 102 746 189 746 325 c 256
 746 460 706 528 622 528 c 256
 559 528 520 489 505 411 c 257
 498 412 493 412 489 412 c 256
 450 412 410 392 368 351 c 257
 351 366 l 257
 360 383 364 401 364 420 c 256
 364 508 305 569 218 569 c 256
 185 569 154 562 125 548 c 257
 156 473 l 257
 193 493 228 503 261 503 c 256
 306 503 330 482 330 445 c 256
 330 394 293 358 220 337 c 257
 251 261 l 257
 284 276 312 301 336 334 c 257
 383 286 406 233 406 175 c 256
 406 144 395 117 374 94 c 256
 353 72 328 61 298 61 c 256
 241 61 191 88 147 142 c 256
 104 196 75 266 62 351 c 257
 37 343 l 257
EndSplineSet
PickledDataWithLists: "(dp1
S'com.adobe.type.autohint'
p2
(S'data'
S'<data>\\n  <hintSetList>\\n    <hintset pointTag=\"hr00\">\\n      <hstem pos=\"1\" width=\"60\"/>\\n      <hstem pos=\"102\" width=\"65\"/>\\n      <hstem pos=\"333\" width=\"79\"/>\\n      <hstem pos=\"461\" width=\"67\"/>\\n      <hstem pos=\"503\" width=\"66\"/>\\n      <hstem pos=\"544\" width=\"60\"/>\\n      <vstem pos=\"330\" width=\"34\"/>\\n      <vstem pos=\"406\" width=\"63\"/>\\n      <vstem pos=\"518\" width=\"34\"/>\\n      <vstem pos=\"712\" width=\"34\"/>\\n    </hintset>\\n  </hintSetList>\\n  </data>'
Ntp3
s."
EndChar

StartChar: uni0951
Encoding: 115 2385 115
GlifName: uni0951
Width: 0
VWidth: 0
Flags: W
LayerCount: 2
Back
Fore
SplineSet
-213 1409 m 257
NamedP: "hr00"
 -273 1409 l 257
 -273 971 l 257
 -213 971 l 257
 -213 1409 l 257
NamedP: "hr00"
EndSplineSet
PickledDataWithLists: "(dp1
S'com.adobe.type.autohint'
p2
(S'data'
S'<data>\\n  <hintSetList>\\n    <hintset pointTag=\"hr00\">\\n      <hstem pos=\"971\" width=\"438\"/>\\n      <vstem pos=\"-273\" width=\"60\"/>\\n    </hintset>\\n  </hintSetList>\\n  </data>'
Ntp3
s."
EndChar

StartChar: uni0952
Encoding: 116 2386 116
GlifName: uni0952
Width: 0
VWidth: 0
Flags: W
LayerCount: 2
Back
Fore
SplineSet
-61 -378 m 257
NamedP: "hr00"
 -675 -378 l 257
 -675 -432 l 257
 -61 -432 l 257
 -61 -378 l 257
NamedP: "hr00"
EndSplineSet
PickledDataWithLists: "(dp1
S'com.adobe.type.autohint'
p2
(S'data'
S'<data>\\n  <hintSetList>\\n    <hintset pointTag=\"hr00\">\\n      <hstem pos=\"-432\" width=\"54\"/>\\n      <vstem pos=\"-675\" width=\"614\"/>\\n    </hintset>\\n  </hintSetList>\\n  </data>'
Ntp3
s."
EndChar

StartChar: uni0964
Encoding: 117 2404 117
GlifName: uni0964
Width: 228
VWidth: 0
Flags: W
LayerCount: 2
Back
Fore
SplineSet
148 450 m 257
NamedP: "hr00"
 75 450 l 257
 75 -9 l 257
 148 -9 l 257
 148 450 l 257
NamedP: "hr00"
EndSplineSet
PickledDataWithLists: "(dp1
S'com.adobe.type.autohint'
p2
(S'data'
S'<data>\\n  <hintSetList>\\n    <hintset pointTag=\"hr00\">\\n      <hstem pos=\"12\" width=\"-21\"/>\\n      <vstem pos=\"75\" width=\"73\"/>\\n    </hintset>\\n  </hintSetList>\\n  </data>'
Ntp3
s."
EndChar

StartChar: uni0965
Encoding: 118 2405 118
GlifName: uni0965
Width: 409
VWidth: 0
Flags: W
LayerCount: 2
Back
Fore
SplineSet
323 450 m 257
NamedP: "hr00"
 249 450 l 257
 249 -9 l 257
 323 -9 l 257
 323 450 l 257
NamedP: "hr00"
150 451 m 257
 77 451 l 257
 77 -8 l 257
 150 -8 l 257
 150 451 l 257
EndSplineSet
PickledDataWithLists: "(dp1
S'com.adobe.type.autohint'
p2
(S'data'
S'<data>\\n  <hintSetList>\\n    <hintset pointTag=\"hr00\">\\n      <hstem pos=\"13\" width=\"-21\"/>\\n      <vstem pos=\"77\" width=\"73\"/>\\n      <vstem pos=\"249\" width=\"74\"/>\\n    </hintset>\\n  </hintSetList>\\n  </data>'
Ntp3
s."
EndChar

StartChar: uni0C01
Encoding: 119 3073 119
GlifName: uni0C01_
Width: 422
VWidth: 0
Flags: W
LayerCount: 2
Back
Fore
SplineSet
297 434 m 257
NamedP: "hr00"
 314 434 323 439 323 450 c 256
 323 459 315 466 298 468 c 258
 242 474 l 257
 170 474 112 452 67 407 c 256
 22 362 0 306 0 239 c 256
 0 166 23 105 73 57 c 256
 119 13 174 -8 236 -8 c 256
 291 -8 341 -3 341 30 c 256
 341 58 315 82 298 73 c 257
 290 70 273 66 250 66 c 256
 193 66 146 83 108 118 c 256
 71 153 52 198 52 253 c 256
 52 309 70 354 107 388 c 256
 144 422 190 439 245 439 c 256
 268 439 276 438 297 434 c 257
NamedP: "hr00"
EndSplineSet
PickledDataWithLists: "(dp1
S'com.adobe.type.autohint'
p2
(S'data'
S'<data>\\n  <hintSetList>\\n    <hintset pointTag=\"hr00\">\\n      <hstem pos=\"-8\" width=\"74\"/>\\n      <hstem pos=\"439\" width=\"35\"/>\\n      <vstem pos=\"0\" width=\"52\"/>\\n    </hintset>\\n  </hintSetList>\\n  </data>'
Ntp3
s."
EndChar

StartChar: uni0C02
Encoding: 120 3074 120
GlifName: uni0C02_
Width: 565
VWidth: 0
Flags: W
LayerCount: 2
Back
Fore
SplineSet
421 249 m 256
NamedP: "hr00"
 421 196 404 153 369 122 c 256
 335 91 292 76 240 76 c 256
 187 76 143 91 107 122 c 256
 72 153 54 197 54 253 c 256
 54 310 72 353 108 384 c 256
 144 415 188 430 241 430 c 256
 293 430 336 413 370 380 c 256
 404 347 421 304 421 249 c 256
NamedP: "hr00"
477 224 m 256
 477 300 454 360 408 405 c 256
 363 450 307 473 240 473 c 256
 169 473 112 451 67 407 c 256
 22 363 0 307 0 240 c 256
 0 169 23 110 69 63 c 256
 116 16 174 -8 245 -8 c 256
 308 -8 363 14 408 59 c 256
 454 104 477 159 477 224 c 256
EndSplineSet
PickledDataWithLists: "(dp1
S'com.adobe.type.autohint'
p2
(S'data'
S'<data>\\n  <hintSetList>\\n    <hintset pointTag=\"hr00\">\\n      <hstem pos=\"-8\" width=\"84\"/>\\n      <hstem pos=\"430\" width=\"43\"/>\\n      <vstem pos=\"0\" width=\"54\"/>\\n      <vstem pos=\"421\" width=\"56\"/>\\n    </hintset>\\n  </hintSetList>\\n  </data>'
Ntp3
s."
EndChar

StartChar: uni0C03
Encoding: 121 3075 121
GlifName: uni0C03_
Width: 305
VWidth: 0
Flags: W
LayerCount: 2
Back
Fore
SplineSet
174 110 m 256
NamedP: "hr00"
 174 74 139 44 104 44 c 256
 69 44 36 74 36 110 c 256
 36 149 67 175 104 175 c 256
 140 175 174 149 174 110 c 256
NamedP: "hr00"
174 413 m 256
 174 381 140 349 104 349 c 256
 67 349 36 381 36 413 c 256
 36 453 65 480 104 480 c 256
 140 480 174 452 174 413 c 256
211 99 m 256
 211 128 201 153 180 173 c 256
 159 194 135 204 106 204 c 256
 78 204 53 193 32 172 c 256
 11 151 0 126 0 99 c 256
 0 69 11 44 32 23 c 256
 54 2 79 -8 106 -8 c 256
 165 -8 211 39 211 99 c 256
211 403 m 256
 211 462 165 508 106 508 c 256
 47 508 0 462 0 403 c 256
 0 344 47 297 106 297 c 256
 165 297 211 344 211 403 c 256
EndSplineSet
PickledDataWithLists: "(dp1
S'com.adobe.type.autohint'
p2
(S'data'
S'<data>\\n  <hintSetList>\\n    <hintset pointTag=\"hr00\">\\n      <hstem pos=\"-8\" width=\"52\"/>\\n      <hstem pos=\"175\" width=\"29\"/>\\n      <hstem pos=\"297\" width=\"52\"/>\\n      <hstem pos=\"480\" width=\"28\"/>\\n      <vstem pos=\"0\" width=\"36\"/>\\n      <vstem pos=\"174\" width=\"37\"/>\\n    </hintset>\\n  </hintSetList>\\n  </data>'
Ntp3
s."
EndChar

StartChar: uni0C05
Encoding: 122 3077 122
GlifName: uni0C05_
Width: 686
VWidth: 0
Flags: W
LayerCount: 2
Back
Fore
SplineSet
231 381 m 256
NamedP: "hr00"
 231 346 202 318 167 318 c 256
 132 318 101 346 101 381 c 256
 101 420 132 454 167 454 c 256
 200 454 231 417 231 381 c 256
NamedP: "hr00"
601 283 m 256
 601 340 589 390 563 428 c 256
 535 470 497 490 450 490 c 256
 381 490 333 442 333 371 c 256
 333 312 360 263 420 227 c 257
 175 224 l 258
 164 224 159 217 159 202 c 256
 159 194 172 184 183 184 c 258
 452 184 l 258
 463 184 473 202 473 210 c 256
 473 221 458 237 427 259 c 256
 397 281 382 309 382 343 c 256
 382 395 412 434 460 434 c 256
 494 434 520 416 539 381 c 256
 554 354 561 320 561 279 c 256
 561 144 465 66 281 66 c 256
 210 66 153 85 109 123 c 256
 65 161 43 215 43 285 c 256
 43 322 52 355 70 386 c 257
 70 305 110 268 165 268 c 256
 193 268 218 278 239 298 c 256
 261 318 272 342 272 371 c 256
 272 440 237 490 165 490 c 256
 116 490 76 467 45 420 c 256
 15 374 0 322 0 263 c 256
 0 177 29 109 88 60 c 256
 143 15 210 -8 290 -8 c 256
 377 -8 450 16 508 65 c 256
 570 118 601 191 601 283 c 256
EndSplineSet
PickledDataWithLists: "(dp1
S'com.adobe.type.autohint'
p2
(S'data'
S'<data>\\n  <hintSetList>\\n    <hintset pointTag=\"hr00\">\\n      <hstem pos=\"-8\" width=\"74\"/>\\n      <hstem pos=\"184\" width=\"40\"/>\\n      <hstem pos=\"268\" width=\"50\"/>\\n      <hstem pos=\"434\" width=\"56\"/>\\n      <hstem pos=\"454\" width=\"36\"/>\\n      <vstem pos=\"0\" width=\"43\"/>\\n      <vstem pos=\"70\" width=\"31\"/>\\n      <vstem pos=\"231\" width=\"41\"/>\\n      <vstem pos=\"333\" width=\"49\"/>\\n      <vstem pos=\"561\" width=\"40\"/>\\n    </hintset>\\n  </hintSetList>\\n  </data>'
Ntp3
s."
EndChar

StartChar: uni0C06
Encoding: 123 3078 123
GlifName: uni0C06_
Width: 675
VWidth: 0
Flags: W
LayerCount: 2
Back
Fore
SplineSet
544 341 m 256
NamedP: "hr00"
 544 321 538 304 525 289 c 257
 498 295 472 302 447 308 c 256
 406 319 385 341 385 377 c 256
 385 416 409 439 456 439 c 256
 508 439 544 396 544 341 c 256
NamedP: "hr00"
229 384 m 256
 229 349 198 318 163 318 c 256
 131 318 101 349 101 384 c 256
 101 420 131 450 163 450 c 256
 202 450 229 420 229 384 c 256
586 189 m 256
 586 223 578 249 561 266 c 257
 577 296 585 324 585 351 c 256
 585 438 534 493 461 493 c 256
 377 493 336 449 336 384 c 256
 336 352 347 326 369 307 c 256
 388 292 415 280 450 272 c 258
 498 261 l 257
 458 236 431 227 399 227 c 258
 180 227 l 258
 165 227 158 219 158 204 c 256
 158 199 169 183 174 183 c 258
 417 183 l 258
 458 183 498 204 534 233 c 257
 541 221 544 209 544 197 c 256
 544 156 522 124 479 100 c 256
 436 76 383 64 318 64 c 256
 233 64 167 81 119 115 c 256
 66 153 39 210 39 285 c 256
 39 302 40 315 42 324 c 256
 44 333 52 354 66 388 c 257
 66 312 112 272 159 272 c 256
 226 272 272 314 272 371 c 256
 272 454 226 490 161 490 c 256
 112 490 72 468 43 424 c 256
 14 380 0 329 0 270 c 256
 0 177 32 106 95 57 c 256
 150 15 222 -6 311 -6 c 256
 384 -6 446 11 499 44 c 256
 557 79 586 128 586 189 c 256
EndSplineSet
PickledDataWithLists: "(dp1
S'com.adobe.type.autohint'
p2
(S'data'
S'<data>\\n  <hintSetList>\\n    <hintset pointTag=\"hr00\">\\n      <hstem pos=\"-6\" width=\"70\"/>\\n      <hstem pos=\"183\" width=\"44\"/>\\n      <hstem pos=\"272\" width=\"46\"/>\\n      <hstem pos=\"439\" width=\"54\"/>\\n      <hstem pos=\"450\" width=\"40\"/>\\n      <vstem pos=\"0\" width=\"39\"/>\\n      <vstem pos=\"66\" width=\"35\"/>\\n      <vstem pos=\"229\" width=\"43\"/>\\n      <vstem pos=\"336\" width=\"49\"/>\\n      <vstem pos=\"544\" width=\"41\"/>\\n    </hintset>\\n  </hintSetList>\\n  </data>'
Ntp3
s."
EndChar

StartChar: uni0C07
Encoding: 124 3079 124
GlifName: uni0C07_
Width: 614
VWidth: 0
Flags: W
LayerCount: 2
Back
Fore
SplineSet
447 150 m 257
NamedP: "hr00"
 389 99 316 73 228 73 c 256
 186 73 151 77 123 87 c 256
 86 100 67 122 67 150 c 256
 67 175 84 192 118 202 c 256
 152 213 191 218 235 218 c 256
 316 218 386 195 447 150 c 257
NamedP: "hr00"
581 -16 m 256
 581 38 555 94 502 153 c 257
 518 188 526 230 526 277 c 256
 526 340 514 390 490 428 c 256
 465 469 425 490 372 490 c 256
 317 490 275 454 246 382 c 257
 229 457 185 495 114 495 c 256
 49 495 0 455 0 384 c 256
 0 361 5 340 15 320 c 256
 25 300 37 290 52 290 c 257
 60 294 64 299 64 305 c 256
 64 306 60 313 52 325 c 256
 44 337 40 348 40 359 c 256
 40 406 81 439 128 439 c 256
 175 439 212 405 223 372 c 256
 224 371 227 359 233 334 c 256
 236 324 241 319 250 319 c 256
 265 319 262 330 270 359 c 256
 275 380 285 398 301 411 c 256
 319 426 344 434 375 434 c 256
 411 434 439 419 460 388 c 256
 481 358 491 323 491 283 c 256
 491 251 484 218 471 183 c 257
 445 200 l 258
 387 238 317 255 239 255 c 256
 177 255 129 248 95 233 c 256
 48 212 25 178 25 131 c 256
 25 85 49 51 95 27 c 256
 135 6 182 -6 239 -6 c 256
 347 -6 434 38 483 115 c 257
 490 105 495 96 498 87 c 257
 507 70 513 51 516 29 c 257
 516 -13 l 257
 516 -29 l 258
 516 -52 526 -64 546 -64 c 256
 569 -64 581 -48 581 -16 c 256
EndSplineSet
PickledDataWithLists: "(dp1
S'com.adobe.type.autohint'
p2
(S'data'
S'<data>\\n  <hintSetList>\\n    <hintset pointTag=\"hr00\">\\n      <hstem pos=\"-6\" width=\"79\"/>\\n      <hstem pos=\"218\" width=\"37\"/>\\n      <hstem pos=\"434\" width=\"56\"/>\\n      <hstem pos=\"439\" width=\"56\"/>\\n      <vstem pos=\"0\" width=\"40\"/>\\n      <vstem pos=\"25\" width=\"42\"/>\\n      <vstem pos=\"491\" width=\"35\"/>\\n      <vstem pos=\"516\" width=\"65\"/>\\n    </hintset>\\n  </hintSetList>\\n  </data>'
Ntp3
s."
EndChar

StartChar: uni0C08
Encoding: 125 3080 125
GlifName: uni0C08_
Width: 941
VWidth: 0
Flags: W
LayerCount: 2
Back
Fore
SplineSet
526 242 m 257
NamedP: "hr00"
 526 189 507 147 470 116 c 256
 433 85 389 70 337 70 c 256
 284 70 237 85 198 116 c 256
 159 147 139 189 139 242 c 257
 526 242 l 257
NamedP: "hr00"
810 171 m 256
 810 134 783 102 744 102 c 256
 707 102 678 135 678 171 c 256
 678 211 707 240 743 240 c 256
 779 240 810 210 810 171 c 256
139 280 m 257
 152 377 229 437 332 437 c 256
 432 437 501 380 528 280 c 257
 139 280 l 257
858 159 m 256
 858 193 850 220 833 241 c 256
 823 253 807 265 784 276 c 257
 805 301 817 318 822 325 c 257
 833 345 839 365 839 386 c 256
 839 447 793 487 738 487 c 256
 671 487 633 453 633 397 c 256
 633 372 643 360 662 360 c 256
 673 360 682 368 687 385 c 256
 692 402 695 411 696 412 c 256
 707 433 710 439 739 439 c 256
 776 439 792 411 792 375 c 256
 792 350 782 327 761 308 c 256
 741 289 721 280 701 280 c 258
 572 280 l 257
 543 389 475 451 366 468 c 257
 531 598 l 258
 590 645 620 672 620 679 c 256
 620 706 602 726 587 726 c 256
 578 726 542 696 481 636 c 256
 394 551 338 496 312 472 c 257
 301 485 286 505 267 534 c 256
 242 572 225 591 218 591 c 256
 182 591 166 570 166 542 c 256
 166 528 176 514 197 499 c 257
 216 488 237 476 258 463 c 257
 206 448 166 420 136 381 c 256
 111 349 94 316 89 280 c 257
 14 280 l 258
 5 280 0 273 0 259 c 256
 0 248 6 242 17 242 c 258
 88 242 l 257
 87 237 86 231 86 222 c 256
 86 167 105 116 145 71 c 256
 193 17 257 -8 334 -8 c 256
 407 -8 465 16 508 63 c 256
 552 110 574 170 574 242 c 257
 664 242 l 257
 637 217 625 186 625 153 c 256
 625 120 636 92 658 69 c 256
 680 46 707 35 738 35 c 256
 771 35 800 47 823 70 c 256
 846 94 858 124 858 159 c 256
EndSplineSet
PickledDataWithLists: "(dp1
S'com.adobe.type.autohint'
p2
(S'data'
S'<data>\\n  <hintSetList>\\n    <hintset pointTag=\"hr00\">\\n      <hstem pos=\"-8\" width=\"78\"/>\\n      <hstem pos=\"35\" width=\"67\"/>\\n      <hstem pos=\"242\" width=\"38\"/>\\n      <hstem pos=\"437\" width=\"31\"/>\\n      <hstem pos=\"439\" width=\"48\"/>\\n      <hstem pos=\"726\" width=\"-20\"/>\\n      <vstem pos=\"86\" width=\"53\"/>\\n      <vstem pos=\"526\" width=\"48\"/>\\n      <vstem pos=\"625\" width=\"53\"/>\\n      <vstem pos=\"792\" width=\"47\"/>\\n      <vstem pos=\"810\" width=\"48\"/>\\n    </hintset>\\n  </hintSetList>\\n  </data>'
Ntp3
s."
EndChar

StartChar: uni0C09
Encoding: 126 3081 126
GlifName: uni0C09_
Width: 662
VWidth: 0
Flags: W
LayerCount: 2
Back
Fore
SplineSet
583 123 m 256
NamedP: "hr00"
 583 188 547 244 491 244 c 256
 471 244 456 240 445 232 c 256
 437 225 433 218 433 209 c 256
 433 194 444 181 452 181 c 256
 461 181 472 196 491 196 c 256
 518 196 534 174 534 145 c 256
 534 98 493 71 446 71 c 256
 395 71 361 92 345 134 c 256
 329 177 319 198 316 198 c 256
 311 198 302 177 289 135 c 256
 277 94 250 73 207 73 c 256
 142 73 113 127 113 215 c 258
 113 232 l 258
 113 247 115 264 118 283 c 257
 546 283 l 258
 558 283 564 288 564 297 c 256
 564 314 559 323 548 323 c 258
 131 323 l 257
 172 400 234 439 319 439 c 256
 368 439 407 427 435 402 c 256
 463 378 479 366 483 366 c 256
 506 366 518 374 518 391 c 256
 518 414 497 434 456 450 c 256
 415 466 373 474 329 474 c 257
 331 490 336 511 344 538 c 256
 352 565 356 581 356 588 c 256
 356 617 343 631 316 631 c 256
 289 631 275 611 275 583 c 256
 275 576 276 567 279 556 c 258
 302 474 l 257
 253 474 207 460 164 433 c 256
 121 406 91 370 74 325 c 257
 17 325 l 258
 8 325 2 319 0 307 c 257
 0 291 6 283 19 283 c 258
 58 283 l 257
 57 266 48 224 48 200 c 256
 48 142 62 93 89 52 c 256
 116 12 152 -8 197 -8 c 256
 226 -8 253 5 276 31 c 256
 296 53 309 82 316 119 c 257
 333 28 386 -10 458 -10 c 256
 493 -10 523 3 547 29 c 256
 571 56 583 87 583 123 c 256
NamedP: "hr00"
EndSplineSet
PickledDataWithLists: "(dp1
S'com.adobe.type.autohint'
p2
(S'data'
S'<data>\\n  <hintSetList>\\n    <hintset pointTag=\"hr00\">\\n      <hstem pos=\"-10\" width=\"81\"/>\\n      <hstem pos=\"-8\" width=\"81\"/>\\n      <hstem pos=\"196\" width=\"48\"/>\\n      <hstem pos=\"283\" width=\"40\"/>\\n      <hstem pos=\"439\" width=\"35\"/>\\n      <vstem pos=\"48\" width=\"65\"/>\\n      <vstem pos=\"275\" width=\"81\"/>\\n      <vstem pos=\"534\" width=\"49\"/>\\n    </hintset>\\n  </hintSetList>\\n  </data>'
Ntp3
s."
EndChar

StartChar: uni0C0A
Encoding: 127 3082 127
GlifName: uni0C0A_
Width: 952
VWidth: 0
Flags: W
LayerCount: 2
Back
Fore
SplineSet
822 210 m 256
NamedP: "hr00"
 822 174 792 141 757 141 c 256
 718 141 690 171 690 210 c 256
 690 251 718 281 757 281 c 256
 793 281 822 251 822 210 c 256
NamedP: "hr00"
871 197 m 256
 871 261 850 292 791 315 c 257
 828 348 849 378 849 425 c 256
 849 484 812 528 752 528 c 256
 684 528 644 490 644 437 c 256
 644 418 657 402 673 402 c 256
 688 402 701 420 701 432 c 256
 701 463 721 476 749 476 c 256
 784 476 802 454 802 411 c 256
 802 391 795 374 780 359 c 257
 773 350 758 338 735 323 c 257
 134 323 l 257
 171 399 231 437 316 437 c 256
 366 437 405 424 434 398 c 256
 463 373 480 360 486 360 c 256
 507 360 516 374 516 391 c 256
 516 412 499 430 464 446 c 256
 443 455 418 463 388 467 c 257
 389 480 394 502 404 531 c 256
 410 550 415 566 415 577 c 256
 415 602 400 626 377 626 c 256
 348 626 334 610 334 579 c 256
 334 569 341 551 349 521 c 258
 362 473 l 257
 331 473 l 258
 311 473 294 472 263 471 c 257
 279 522 l 258
 288 551 292 570 292 578 c 256
 292 606 279 626 255 626 c 256
 230 626 210 607 210 579 c 256
 210 578 214 565 221 540 c 256
 229 515 235 490 240 465 c 257
 159 445 108 395 71 323 c 257
 17 323 l 258
 8 323 0 310 0 299 c 256
 0 287 7 281 21 281 c 258
 60 281 l 257
 49 235 l 257
 48 225 47 211 47 193 c 256
 47 138 60 90 87 51 c 256
 114 12 151 -8 196 -8 c 256
 255 -8 300 34 319 113 c 257
 338 26 388 -10 460 -10 c 256
 495 -10 525 3 550 28 c 256
 575 54 587 86 587 123 c 256
 587 191 551 244 494 244 c 256
 475 244 459 240 447 232 c 256
 440 226 437 218 437 209 c 256
 437 194 447 181 458 181 c 256
 462 181 475 196 494 196 c 256
 523 196 538 174 538 145 c 256
 538 98 494 70 446 70 c 256
 397 70 363 91 346 132 c 256
 329 173 319 194 316 194 c 256
 312 194 304 174 291 133 c 256
 279 93 252 73 210 73 c 256
 138 73 111 131 111 218 c 256
 111 246 114 258 118 281 c 257
 675 281 l 257
 646 249 635 224 635 187 c 256
 635 155 647 128 670 106 c 256
 693 84 721 73 754 73 c 256
 787 73 815 85 837 109 c 256
 860 133 871 162 871 197 c 256
EndSplineSet
PickledDataWithLists: "(dp1
S'com.adobe.type.autohint'
p2
(S'data'
S'<data>\\n  <hintSetList>\\n    <hintset pointTag=\"hr00\">\\n      <hstem pos=\"-10\" width=\"80\"/>\\n      <hstem pos=\"-8\" width=\"81\"/>\\n      <hstem pos=\"73\" width=\"68\"/>\\n      <hstem pos=\"196\" width=\"48\"/>\\n      <hstem pos=\"281\" width=\"42\"/>\\n      <hstem pos=\"437\" width=\"36\"/>\\n      <hstem pos=\"476\" width=\"52\"/>\\n      <vstem pos=\"47\" width=\"64\"/>\\n      <vstem pos=\"210\" width=\"82\"/>\\n      <vstem pos=\"334\" width=\"81\"/>\\n      <vstem pos=\"538\" width=\"49\"/>\\n      <vstem pos=\"635\" width=\"55\"/>\\n      <vstem pos=\"644\" width=\"57\"/>\\n      <vstem pos=\"802\" width=\"47\"/>\\n      <vstem pos=\"822\" width=\"49\"/>\\n    </hintset>\\n  </hintSetList>\\n  </data>'
Ntp3
s."
EndChar

StartChar: uni0C0B
Encoding: 128 3083 128
GlifName: uni0C0B_
Width: 1201
VWidth: 0
Flags: W
LayerCount: 2
Back
Fore
SplineSet
810 101 m 257
NamedP: "hr00"
 834 32 874 -8 938 -8 c 256
 995 -8 1041 18 1075 69 c 256
 1104 112 1117 159 1117 209 c 256
 1117 286 1101 354 1073 402 c 257
 1038 450 992 474 935 474 c 256
 904 474 886 469 880 459 c 256
 877 454 875 445 875 434 c 256
 875 411 888 399 914 399 c 258
 951 399 l 258
 989 399 1019 383 1042 350 c 256
 1065 317 1077 280 1077 237 c 256
 1077 192 1062 152 1032 119 c 256
 1003 86 967 70 925 70 c 256
 872 70 840 102 831 166 c 257
 836 209 l 257
 836 286 822 355 791 402 c 256
 759 451 711 474 653 474 c 256
 623 474 605 469 599 459 c 256
 596 454 594 445 594 434 c 256
 594 411 607 399 633 399 c 258
 669 399 l 258
 708 399 738 383 761 350 c 256
 784 317 796 280 796 237 c 256
 796 192 781 152 751 119 c 256
 721 86 685 70 644 70 c 256
 589 70 557 104 550 171 c 257
 553 214 l 258
 558 291 537 354 506 403 c 256
 475 453 430 478 372 478 c 256
 325 478 310 469 310 437 c 256
 310 404 323 402 367 402 c 258
 385 402 l 258
 418 402 444 388 468 364 c 256
 496 334 512 293 512 236 c 256
 512 131 469 67 386 67 c 256
 348 67 321 88 305 129 c 256
 289 170 279 191 276 191 c 256
 273 191 261 171 242 130 c 256
 223 89 190 69 144 69 c 256
 89 69 62 100 62 161 c 256
 62 200 98 226 169 241 c 256
 241 256 277 295 277 356 c 256
 277 425 231 473 159 473 c 256
 68 473 10 435 10 359 c 256
 10 338 23 316 48 316 c 256
 65 316 82 332 82 349 c 256
 82 397 120 430 165 430 c 256
 209 430 241 407 241 351 c 256
 241 321 223 299 187 289 c 256
 155 280 123 275 91 267 c 256
 38 255 0 199 0 134 c 256
 0 100 14 68 41 37 c 256
 68 7 101 -8 139 -8 c 256
 203 -8 252 25 276 105 c 257
 283 30 332 -8 385 -8 c 256
 449 -8 496 32 529 101 c 257
 554 30 593 -8 657 -8 c 256
 728 -8 775 32 810 101 c 257
NamedP: "hr00"
EndSplineSet
PickledDataWithLists: "(dp1
S'com.adobe.type.autohint'
p2
(S'data'
S'<data>\\n  <hintSetList>\\n    <hintset pointTag=\"hr00\">\\n      <hstem pos=\"-8\" width=\"78\"/>\\n      <hstem pos=\"-8\" width=\"75\"/>\\n      <hstem pos=\"399\" width=\"75\"/>\\n      <hstem pos=\"402\" width=\"76\"/>\\n      <hstem pos=\"430\" width=\"43\"/>\\n      <vstem pos=\"0\" width=\"62\"/>\\n      <vstem pos=\"10\" width=\"72\"/>\\n      <vstem pos=\"241\" width=\"36\"/>\\n      <vstem pos=\"512\" width=\"41\"/>\\n      <vstem pos=\"796\" width=\"40\"/>\\n      <vstem pos=\"1077\" width=\"40\"/>\\n    </hintset>\\n  </hintSetList>\\n  </data>'
Ntp3
s."
EndChar

StartChar: uni0C0C
Encoding: 129 3084 129
GlifName: uni0C0C_
Width: 641
VWidth: 0
Flags: W
LayerCount: 2
Back
Fore
SplineSet
578 316 m 256
NamedP: "hr00"
 578 359 567 394 546 421 c 256
 521 452 483 467 432 467 c 256
 391 467 359 456 336 434 c 256
 321 420 304 395 284 359 c 257
 273 373 259 396 242 429 c 257
 221 454 188 467 143 467 c 256
 90 467 52 449 27 412 c 256
 9 386 0 358 0 328 c 256
 0 281 13 246 38 224 c 256
 42 220 47 217 53 214 c 257
 62 214 66 216 66 220 c 256
 66 224 62 228 61 231 c 256
 58 240 53 250 47 263 c 256
 40 278 36 289 36 298 c 256
 36 350 80 389 140 389 c 256
 173 389 202 380 226 358 c 256
 248 338 266 309 284 273 c 257
 308 318 324 346 333 355 c 256
 353 378 383 389 423 389 c 256
 476 389 525 354 525 303 c 256
 525 270 498 239 443 210 c 258
 292 131 l 257
 238 94 211 49 211 -3 c 256
 211 -40 223 -69 246 -92 c 256
 270 -117 305 -130 354 -130 c 256
 441 -130 494 -77 494 -16 c 256
 494 12 479 34 459 34 c 256
 440 34 423 14 410 -26 c 256
 397 -67 371 -87 332 -87 c 256
 284 -87 249 -49 249 -9 c 256
 249 40 275 83 334 111 c 258
 493 187 l 258
 552 215 578 263 578 316 c 256
NamedP: "hr00"
EndSplineSet
PickledDataWithLists: "(dp1
S'com.adobe.type.autohint'
p2
(S'data'
S'<data>\\n  <hintSetList>\\n    <hintset pointTag=\"hr00\">\\n      <hstem pos=\"-130\" width=\"43\"/>\\n      <hstem pos=\"389\" width=\"78\"/>\\n      <vstem pos=\"0\" width=\"36\"/>\\n      <vstem pos=\"211\" width=\"38\"/>\\n      <vstem pos=\"525\" width=\"53\"/>\\n    </hintset>\\n  </hintSetList>\\n  </data>'
Ntp3
s."
EndChar

StartChar: uni0C0E
Encoding: 130 3086 130
GlifName: uni0C0E_
Width: 636
VWidth: 0
Flags: W
LayerCount: 2
Back
Fore
SplineSet
223 156 m 256
NamedP: "hr00"
 223 109 183 73 139 73 c 256
 90 73 54 109 54 156 c 256
 54 205 92 244 139 244 c 256
 183 244 223 203 223 156 c 256
NamedP: "hr00"
553 273 m 256
 553 380 522 471 464 550 c 256
 404 630 330 671 239 671 c 256
 159 671 146 658 146 629 c 256
 146 606 157 594 178 594 c 256
 182 594 193 595 212 597 c 256
 231 599 246 600 259 600 c 256
 334 600 397 567 448 500 c 256
 495 439 518 366 518 283 c 256
 518 226 505 180 482 140 c 256
 455 94 420 70 375 70 c 256
 334 70 306 85 290 115 c 257
 280 144 271 174 261 205 c 256
 245 253 195 280 139 280 c 256
 100 280 67 265 40 236 c 256
 13 207 0 171 0 130 c 256
 0 93 13 60 41 32 c 256
 69 4 102 -9 139 -9 c 256
 199 -9 242 18 267 73 c 257
 298 21 339 -8 386 -8 c 256
 441 -8 484 24 515 89 c 256
 540 142 553 204 553 273 c 256
EndSplineSet
PickledDataWithLists: "(dp1
S'com.adobe.type.autohint'
p2
(S'data'
S'<data>\\n  <hintSetList>\\n    <hintset pointTag=\"hr00\">\\n      <hstem pos=\"-9\" width=\"82\"/>\\n      <hstem pos=\"-8\" width=\"78\"/>\\n      <hstem pos=\"244\" width=\"36\"/>\\n      <hstem pos=\"600\" width=\"71\"/>\\n      <vstem pos=\"0\" width=\"54\"/>\\n      <vstem pos=\"518\" width=\"35\"/>\\n    </hintset>\\n  </hintSetList>\\n  </data>'
Ntp3
s."
EndChar

StartChar: uni0C0F
Encoding: 131 3087 131
GlifName: uni0C0F_
Width: 632
VWidth: 0
Flags: W
LayerCount: 2
Back
Fore
SplineSet
220 156 m 256
NamedP: "hr00"
 220 109 183 73 139 73 c 256
 92 73 54 111 54 156 c 256
 54 207 90 246 139 246 c 256
 183 246 220 207 220 156 c 256
NamedP: "hr00"
548 259 m 256
 548 320 535 378 510 434 c 256
 485 490 454 536 412 570 c 256
 358 615 307 634 235 634 c 256
 202 634 180 626 180 591 c 256
 180 562 191 557 226 557 c 258
 246 557 l 258
 287 557 331 554 359 538 c 256
 403 513 439 475 467 424 c 256
 495 374 509 320 509 263 c 256
 509 212 497 168 472 129 c 256
 448 90 415 71 372 71 c 256
 336 71 310 84 293 109 c 256
 291 112 282 135 267 180 c 256
 256 212 242 236 224 251 c 256
 202 270 173 280 137 280 c 256
 98 280 65 266 39 237 c 256
 13 208 0 173 0 132 c 256
 0 93 14 59 41 32 c 256
 68 5 101 -9 139 -9 c 256
 194 -9 233 15 266 71 c 257
 298 18 338 -8 385 -8 c 256
 438 -8 480 21 511 80 c 256
 536 129 548 189 548 259 c 256
271 748 m 256
 271 779 255 784 214 784 c 256
 171 784 133 765 98 728 c 256
 64 691 47 647 47 595 c 256
 47 548 56 509 80 509 c 256
 91 509 96 516 96 530 c 257
 92 551 89 562 89 586 c 256
 89 641 109 681 148 703 c 256
 158 709 174 710 196 710 c 258
 227 710 l 258
 252 710 271 727 271 748 c 256
EndSplineSet
PickledDataWithLists: "(dp1
S'com.adobe.type.autohint'
p2
(S'data'
S'<data>\\n  <hintSetList>\\n    <hintset pointTag=\"hr00\">\\n      <hstem pos=\"-9\" width=\"82\"/>\\n      <hstem pos=\"-8\" width=\"79\"/>\\n      <hstem pos=\"246\" width=\"34\"/>\\n      <hstem pos=\"557\" width=\"77\"/>\\n      <hstem pos=\"710\" width=\"74\"/>\\n      <vstem pos=\"0\" width=\"54\"/>\\n      <vstem pos=\"47\" width=\"42\"/>\\n      <vstem pos=\"509\" width=\"39\"/>\\n    </hintset>\\n  </hintSetList>\\n  </data>'
Ntp3
s."
EndChar

StartChar: uni0C10
Encoding: 132 3088 132
GlifName: uni0C10_
Width: 623
VWidth: 0
Flags: W
LayerCount: 2
Back
Fore
SplineSet
216 156 m 256
NamedP: "hr00"
 216 112 178 73 135 73 c 256
 87 73 52 112 52 156 c 256
 52 205 88 244 135 244 c 256
 178 244 216 203 216 156 c 256
NamedP: "hr00"
538 218 m 256
 538 383 483 473 394 473 c 256
 331 473 290 454 266 371 c 257
 243 444 198 478 141 478 c 256
 58 478 3 433 3 354 c 256
 3 319 21 280 41 280 c 256
 52 280 58 285 58 294 c 256
 58 299 45 316 45 347 c 256
 45 396 93 421 146 421 c 256
 193 421 232 390 244 358 c 257
 247 347 249 333 250 316 c 257
 253 307 258 302 267 302 c 256
 283 302 283 318 286 355 c 257
 302 386 334 411 381 411 c 256
 422 411 453 392 474 355 c 256
 491 324 500 282 500 229 c 256
 500 185 489 147 468 116 c 256
 447 85 417 70 378 70 c 256
 325 70 293 94 277 135 c 257
 270 160 262 195 250 220 c 257
 225 261 193 280 137 280 c 256
 53 280 0 220 0 139 c 256
 0 98 13 64 40 35 c 256
 67 6 98 -8 134 -8 c 256
 195 -8 238 21 263 79 c 257
 298 20 336 -8 381 -8 c 256
 485 -8 538 62 538 218 c 256
EndSplineSet
PickledDataWithLists: "(dp1
S'com.adobe.type.autohint'
p2
(S'data'
S'<data>\\n  <hintSetList>\\n    <hintset pointTag=\"hr00\">\\n      <hstem pos=\"-8\" width=\"78\"/>\\n      <hstem pos=\"-8\" width=\"81\"/>\\n      <hstem pos=\"244\" width=\"36\"/>\\n      <hstem pos=\"411\" width=\"62\"/>\\n      <hstem pos=\"421\" width=\"57\"/>\\n      <vstem pos=\"0\" width=\"52\"/>\\n      <vstem pos=\"3\" width=\"42\"/>\\n      <vstem pos=\"500\" width=\"38\"/>\\n    </hintset>\\n  </hintSetList>\\n  </data>'
Ntp3
s."
EndChar

StartChar: uni0C12
Encoding: 133 3090 133
GlifName: uni0C12_
Width: 670
VWidth: 0
Flags: W
LayerCount: 2
Back
Fore
SplineSet
587 139 m 256
NamedP: "hr00"
 587 165 581 190 570 214 c 256
 559 238 547 250 535 250 c 256
 526 250 521 247 521 241 c 256
 521 238 524 233 530 224 c 256
 542 205 548 187 548 169 c 256
 548 112 510 73 443 73 c 256
 399 73 357 102 334 137 c 257
 327 152 321 167 315 184 c 256
 312 190 308 193 305 193 c 257
 288 167 272 140 255 113 c 257
 233 86 203 73 165 73 c 256
 106 73 60 108 60 161 c 256
 60 210 85 236 126 248 c 256
 135 250 149 252 168 254 c 256
 188 256 203 259 213 262 c 256
 262 279 290 311 290 366 c 256
 290 451 231 495 146 495 c 256
 61 495 5 441 5 377 c 256
 5 344 18 328 44 328 c 256
 63 328 79 349 91 391 c 256
 103 433 128 454 167 454 c 256
 216 454 253 416 253 368 c 256
 253 345 245 328 228 316 c 256
 219 309 200 302 171 294 c 257
 154 291 125 286 84 273 c 256
 28 256 0 211 0 144 c 256
 0 98 15 61 44 33 c 256
 73 6 110 -8 153 -8 c 256
 224 -8 278 31 303 118 c 257
 324 29 377 -8 448 -8 c 256
 487 -8 520 6 547 33 c 256
 574 61 587 96 587 139 c 256
NamedP: "hr00"
EndSplineSet
PickledDataWithLists: "(dp1
S'com.adobe.type.autohint'
p2
(S'data'
S'<data>\\n  <hintSetList>\\n    <hintset pointTag=\"hr00\">\\n      <hstem pos=\"-8\" width=\"81\"/>\\n      <hstem pos=\"454\" width=\"41\"/>\\n      <vstem pos=\"0\" width=\"60\"/>\\n      <vstem pos=\"253\" width=\"37\"/>\\n      <vstem pos=\"548\" width=\"39\"/>\\n    </hintset>\\n  </hintSetList>\\n  </data>'
Ntp3
s."
EndChar

StartChar: uni0C13
Encoding: 134 3091 134
GlifName: uni0C13_
Width: 654
VWidth: 0
Flags: W
LayerCount: 2
Back
Fore
SplineSet
569 132 m 256
NamedP: "hr00"
 569 159 563 184 552 207 c 256
 541 230 530 242 520 242 c 256
 508 242 502 238 502 229 c 256
 502 229 506 222 514 208 c 256
 522 194 526 179 526 163 c 256
 526 102 493 71 428 71 c 256
 408 71 388 77 369 90 c 256
 350 103 336 115 329 126 c 256
 314 150 304 187 297 187 c 257
 280 162 264 137 249 110 c 257
 228 85 199 73 162 73 c 256
 107 73 61 102 61 153 c 256
 61 201 83 225 122 237 c 257
 160 243 l 258
 181 246 196 250 206 254 c 257
 251 261 280 298 280 354 c 256
 280 413 243 461 180 478 c 257
 167 495 159 508 154 518 c 256
 147 535 144 554 144 573 c 256
 144 604 167 631 196 631 c 256
 213 631 226 624 235 611 c 256
 244 598 252 592 259 592 c 256
 276 592 293 613 293 630 c 256
 293 665 251 682 202 682 c 256
 138 682 100 637 100 573 c 256
 100 538 114 517 141 478 c 257
 100 478 67 466 42 443 c 256
 17 420 5 393 5 363 c 256
 5 332 18 316 44 316 c 256
 62 316 77 336 90 376 c 256
 103 417 128 437 165 437 c 256
 208 437 245 399 245 354 c 256
 245 332 237 315 222 303 c 256
 201 286 163 283 84 262 c 256
 27 247 0 204 0 139 c 256
 0 95 15 59 44 32 c 256
 73 5 108 -8 149 -8 c 256
 224 -8 272 33 292 114 c 257
 313 25 362 -9 433 -9 c 256
 471 -9 503 5 529 32 c 256
 556 59 569 93 569 132 c 256
NamedP: "hr00"
EndSplineSet
PickledDataWithLists: "(dp1
S'com.adobe.type.autohint'
p2
(S'data'
S'<data>\\n  <hintSetList>\\n    <hintset pointTag=\"hr00\">\\n      <hstem pos=\"-9\" width=\"80\"/>\\n      <hstem pos=\"-8\" width=\"81\"/>\\n      <hstem pos=\"229\" width=\"13\"/>\\n      <hstem pos=\"437\" width=\"41\"/>\\n      <hstem pos=\"631\" width=\"51\"/>\\n      <vstem pos=\"0\" width=\"61\"/>\\n      <vstem pos=\"100\" width=\"44\"/>\\n      <vstem pos=\"245\" width=\"35\"/>\\n      <vstem pos=\"526\" width=\"43\"/>\\n    </hintset>\\n  </hintSetList>\\n  </data>'
Ntp3
s."
EndChar

StartChar: uni0C14
Encoding: 135 3092 135
GlifName: uni0C14_
Width: 686
VWidth: 0
Flags: W
LayerCount: 2
Back
Fore
SplineSet
564 521 m 256
NamedP: "hr00"
 564 469 528 446 480 446 c 256
 433 446 391 473 391 524 c 256
 391 573 428 596 483 596 c 256
 530 596 564 577 564 521 c 256
NamedP: "hr00"
601 511 m 256
 601 556 588 592 563 619 c 256
 538 646 506 660 469 660 c 258
 44 660 l 258
 25 660 16 647 16 621 c 256
 16 601 24 591 39 591 c 258
 179 591 l 258
 214 591 237 563 237 524 c 257
 232 498 230 472 154 473 c 256
 65 475 4 425 4 354 c 256
 4 327 16 314 39 314 c 256
 57 314 70 326 78 351 c 256
 96 404 122 430 157 430 c 256
 204 430 236 396 236 349 c 256
 236 310 212 292 168 283 c 256
 125 274 82 265 62 255 c 256
 21 234 0 201 0 144 c 256
 0 52 63 -8 143 -8 c 256
 210 -8 262 30 283 117 c 257
 300 32 352 -8 419 -8 c 256
 503 -8 555 53 555 134 c 256
 555 161 549 185 536 207 c 256
 523 230 512 241 502 241 c 256
 493 241 489 237 489 229 c 257
 498 209 512 188 512 169 c 256
 512 101 475 71 419 71 c 256
 374 71 338 101 314 136 c 257
 303 159 300 184 284 184 c 257
 269 159 253 134 237 109 c 257
 216 85 188 73 152 73 c 256
 100 73 58 101 58 153 c 256
 58 200 77 220 114 232 c 256
 121 235 136 238 159 241 c 256
 182 244 202 249 219 256 c 256
 252 269 273 299 273 351 c 256
 273 391 261 419 229 443 c 257
 266 463 277 487 277 520 c 256
 277 549 273 572 245 588 c 257
 380 588 l 257
 363 563 355 538 355 512 c 256
 355 474 366 441 389 414 c 256
 412 387 441 373 474 373 c 256
 550 373 601 435 601 511 c 256
EndSplineSet
PickledDataWithLists: "(dp1
S'com.adobe.type.autohint'
p2
(S'data'
S'<data>\\n  <hintSetList>\\n    <hintset pointTag=\"hr00\">\\n      <hstem pos=\"-8\" width=\"79\"/>\\n      <hstem pos=\"373\" width=\"73\"/>\\n      <hstem pos=\"430\" width=\"43\"/>\\n      <hstem pos=\"591\" width=\"69\"/>\\n      <vstem pos=\"0\" width=\"58\"/>\\n      <vstem pos=\"236\" width=\"37\"/>\\n      <vstem pos=\"237\" width=\"40\"/>\\n      <vstem pos=\"355\" width=\"36\"/>\\n      <vstem pos=\"512\" width=\"43\"/>\\n      <vstem pos=\"564\" width=\"37\"/>\\n    </hintset>\\n  </hintSetList>\\n  </data>'
Ntp3
s."
EndChar

StartChar: uni0C15
Encoding: 136 3093 136
GlifName: uni0C15_
Width: 549
VWidth: 0
Flags: W
LayerCount: 2
Back
Fore
SplineSet
359 608 m 258
NamedP: "hr00"
 420 657 450 685 450 691 c 256
 450 719 429 747 408 740 c 256
 404 739 373 709 316 649 c 256
 243 572 189 518 154 485 c 257
 91 572 l 258
 75 595 62 605 53 605 c 256
 29 605 0 580 0 555 c 256
 0 542 11 527 35 513 c 256
 61 497 92 480 124 461 c 257
 51 440 14 400 14 341 c 256
 14 292 38 260 86 244 c 256
 113 235 155 229 213 229 c 256
 267 229 306 226 329 220 c 256
 369 211 389 189 389 156 c 256
 389 127 372 106 337 91 c 256
 308 79 269 73 220 73 c 256
 147 73 98 89 73 122 c 256
 48 155 33 172 30 172 c 256
 10 172 0 162 0 141 c 256
 0 96 22 60 65 33 c 256
 109 6 163 -8 228 -8 c 256
 288 -8 337 5 377 27 c 256
 423 53 448 89 448 140 c 256
 448 196 427 234 386 254 c 256
 355 269 300 277 220 277 c 256
 175 277 140 281 113 289 c 256
 78 300 60 320 60 349 c 256
 60 376 79 398 118 415 c 256
 147 428 181 434 220 434 c 256
 272 434 311 418 337 387 c 256
 364 356 382 341 391 341 c 256
 414 341 425 352 425 375 c 256
 425 406 405 430 366 447 c 256
 327 464 281 474 228 473 c 258
 188 472 l 257
 359 608 l 258
NamedP: "hr00"
EndSplineSet
PickledDataWithLists: "(dp1
S'com.adobe.type.autohint'
p2
(S'data'
S'<data>\\n  <hintSetList>\\n    <hintset pointTag=\"hr00\">\\n      <hstem pos=\"-8\" width=\"81\"/>\\n      <hstem pos=\"229\" width=\"48\"/>\\n      <hstem pos=\"434\" width=\"39\"/>\\n      <vstem pos=\"14\" width=\"46\"/>\\n      <vstem pos=\"389\" width=\"59\"/>\\n    </hintset>\\n  </hintSetList>\\n  </data>'
Ntp3
s."
EndChar

StartChar: uni0C16
Encoding: 137 3094 137
GlifName: uni0C16_
Width: 626
VWidth: 0
Flags: W
LayerCount: 2
Back
Fore
SplineSet
314 -61 m 256
NamedP: "hr00"
 314 -46 309 -29 298 -10 c 256
 281 19 272 36 271 40 c 257
 268 35 259 20 246 -3 c 256
 232 -27 226 -45 226 -58 c 256
 226 -77 231 -92 242 -101 c 256
 250 -108 260 -111 271 -111 c 256
 300 -111 314 -94 314 -61 c 256
NamedP: "hr00"
235 132 m 257
 207 89 173 65 134 65 c 256
 87 65 48 88 48 132 c 256
 48 172 75 192 118 192 c 256
 147 192 172 186 191 175 c 256
 204 167 218 153 235 132 c 257
171 377 m 256
 171 346 147 318 114 318 c 256
 83 318 56 346 56 377 c 256
 56 410 83 439 114 439 c 256
 147 439 171 410 171 377 c 256
543 202 m 256
 543 255 538 297 524 337 c 256
 497 415 450 467 386 467 c 256
 355 467 340 453 340 425 c 256
 340 406 361 389 385 389 c 256
 449 389 504 329 504 222 c 256
 504 117 464 65 385 65 c 256
 338 65 311 82 280 118 c 257
 294 153 301 190 301 229 c 256
 301 392 246 473 136 473 c 256
 52 473 10 435 10 359 c 256
 10 308 56 272 108 272 c 256
 135 272 159 283 178 304 c 256
 197 325 207 350 207 377 c 257
 205 388 202 401 198 416 c 257
 250 383 258 331 258 255 c 256
 258 228 256 201 249 170 c 257
 227 194 208 211 191 220 c 256
 169 233 146 239 121 239 c 256
 46 239 0 190 0 119 c 256
 0 43 55 -8 127 -8 c 256
 192 -8 237 18 266 75 c 257
 293 22 333 -8 386 -8 c 256
 486 -8 543 62 543 202 c 256
EndSplineSet
PickledDataWithLists: "(dp1
S'com.adobe.type.autohint'
p2
(S'data'
S'<data>\\n  <hintSetList>\\n    <hintset pointTag=\"hr00\">\\n      <hstem pos=\"-8\" width=\"73\"/>\\n      <hstem pos=\"192\" width=\"47\"/>\\n      <hstem pos=\"272\" width=\"46\"/>\\n      <hstem pos=\"389\" width=\"78\"/>\\n      <hstem pos=\"439\" width=\"34\"/>\\n      <vstem pos=\"0\" width=\"48\"/>\\n      <vstem pos=\"10\" width=\"46\"/>\\n      <vstem pos=\"171\" width=\"36\"/>\\n      <vstem pos=\"226\" width=\"88\"/>\\n      <vstem pos=\"258\" width=\"43\"/>\\n      <vstem pos=\"504\" width=\"39\"/>\\n    </hintset>\\n  </hintSetList>\\n  </data>'
Ntp3
s."
EndChar

StartChar: uni0C17
Encoding: 138 3095 138
GlifName: uni0C17_
Width: 596
VWidth: 0
Flags: W
LayerCount: 2
Back
Fore
SplineSet
244 473 m 257
NamedP: "hr00"
 305 520 364 567 421 612 c 256
 486 663 518 691 518 696 c 256
 518 723 501 744 480 744 c 256
 475 744 441 714 378 653 c 258
 207 485 l 257
 188 508 172 531 157 553 c 256
 134 588 119 605 110 605 c 256
 79 605 56 580 56 555 c 256
 56 541 68 526 91 512 c 256
 120 494 149 478 180 461 c 257
 121 437 76 388 43 314 c 256
 14 250 0 179 0 102 c 256
 0 37 13 -8 52 -8 c 256
 72 -8 89 9 89 30 c 257
 85 45 82 61 79 76 c 256
 73 104 70 133 70 163 c 256
 70 233 85 295 115 349 c 256
 148 408 192 437 245 437 c 256
 298 437 342 404 376 338 c 256
 403 284 416 227 416 166 c 256
 416 119 406 73 394 30 c 257
 394 11 410 -8 438 -8 c 256
 469 -8 483 39 483 108 c 256
 483 195 465 275 429 346 c 256
 385 431 323 473 244 473 c 257
NamedP: "hr00"
EndSplineSet
PickledDataWithLists: "(dp1
S'com.adobe.type.autohint'
p2
(S'data'
S'<data>\\n  <hintSetList>\\n    <hintset pointTag=\"hr00\">\\n      <hstem pos=\"13\" width=\"-21\"/>\\n      <hstem pos=\"437\" width=\"36\"/>\\n      <vstem pos=\"0\" width=\"70\"/>\\n      <vstem pos=\"416\" width=\"67\"/>\\n    </hintset>\\n  </hintSetList>\\n  </data>'
Ntp3
s."
EndChar

StartChar: uni0C18
Encoding: 139 3096 139
GlifName: uni0C18_
Width: 915
VWidth: 0
Flags: W
LayerCount: 2
Back
Fore
SplineSet
314 -61 m 256
NamedP: "hr00"
 314 -46 309 -29 298 -10 c 256
 281 19 272 36 271 40 c 257
 268 35 259 20 246 -3 c 256
 232 -27 226 -45 226 -58 c 256
 226 -77 231 -92 242 -101 c 256
 250 -108 260 -111 271 -111 c 256
 300 -111 314 -94 314 -61 c 256
NamedP: "hr00"
461 687 m 256
 461 710 448 732 424 732 c 256
 418 732 384 703 323 644 c 256
 230 553 173 496 150 473 c 257
 138 488 122 512 101 544 c 256
 78 578 61 595 52 595 c 256
 24 595 1 571 1 546 c 256
 1 532 9 518 27 507 c 258
 153 432 l 257
 170 449 213 485 281 538 c 256
 401 631 461 680 461 687 c 256
546 165 m 257
 547 176 548 184 548 189 c 258
 548 206 l 258
 548 281 533 344 504 396 c 256
 475 448 435 474 385 474 c 256
 350 474 340 458 340 434 c 256
 340 411 357 399 391 399 c 256
 427 399 455 382 476 349 c 256
 497 316 507 278 507 236 c 256
 507 127 460 71 385 71 c 256
 328 71 291 100 280 141 c 256
 268 184 257 215 245 233 c 257
 220 264 182 280 132 280 c 256
 95 280 63 266 38 238 c 256
 13 210 0 176 0 136 c 256
 0 96 14 62 41 34 c 256
 68 6 101 -8 139 -8 c 256
 194 -8 241 25 268 82 c 257
 296 25 343 -8 386 -8 c 256
 455 -8 500 28 529 89 c 257
 554 28 594 -8 653 -8 c 256
 710 -8 754 18 787 69 c 256
 816 112 831 159 831 209 c 256
 831 286 817 354 785 402 c 256
 752 450 707 474 648 474 c 256
 619 474 601 469 594 459 c 256
 591 454 590 446 590 434 c 256
 590 411 603 399 629 399 c 258
 665 399 l 258
 703 399 733 383 756 350 c 256
 779 317 791 280 791 237 c 256
 791 192 776 152 747 119 c 256
 718 86 682 70 640 70 c 256
 589 70 557 102 546 165 c 257
223 153 m 256
 223 102 183 66 139 66 c 256
 90 66 52 105 52 153 c 256
 52 204 92 246 139 246 c 256
 183 246 223 204 223 153 c 256
EndSplineSet
PickledDataWithLists: "(dp1
S'com.adobe.type.autohint'
p2
(S'data'
S'<data>\\n  <hintSetList>\\n    <hintset pointTag=\"hr00\">\\n      <hstem pos=\"-8\" width=\"79\"/>\\n      <hstem pos=\"-8\" width=\"74\"/>\\n      <hstem pos=\"246\" width=\"34\"/>\\n      <hstem pos=\"399\" width=\"75\"/>\\n      <vstem pos=\"0\" width=\"52\"/>\\n      <vstem pos=\"226\" width=\"88\"/>\\n      <vstem pos=\"507\" width=\"41\"/>\\n      <vstem pos=\"791\" width=\"40\"/>\\n    </hintset>\\n  </hintSetList>\\n  </data>'
Ntp3
s."
EndChar

StartChar: uni0C19
Encoding: 140 3097 140
GlifName: uni0C19_
Width: 644
VWidth: 0
Flags: W
LayerCount: 2
Back
Fore
SplineSet
557 136 m 256
NamedP: "hr00"
 557 161 551 185 539 208 c 256
 527 231 515 242 502 242 c 256
 493 242 489 238 489 229 c 256
 489 228 491 223 496 215 c 257
 509 199 516 182 516 163 c 256
 516 107 474 71 419 71 c 256
 375 71 339 102 316 135 c 256
 313 139 308 151 301 170 c 256
 298 179 293 184 288 184 c 257
 271 159 255 134 240 109 c 257
 219 85 189 73 149 73 c 256
 98 73 58 102 58 145 c 256
 58 184 73 211 102 224 c 257
 133 230 162 236 189 244 c 256
 229 255 256 276 267 315 c 257
 516 315 l 258
 529 315 535 321 535 333 c 256
 535 347 529 354 516 354 c 258
 412 354 l 257
 424 394 441 441 441 460 c 256
 441 489 427 504 399 504 c 256
 376 504 360 483 360 464 c 256
 360 443 373 397 389 354 c 257
 273 354 l 257
 271 387 257 415 232 437 c 256
 207 460 178 471 146 471 c 256
 62 471 1 421 1 349 c 256
 1 325 16 307 36 307 c 256
 55 307 68 320 75 345 c 256
 91 398 117 425 154 425 c 256
 203 425 235 394 235 343 c 256
 235 300 204 285 152 275 c 256
 97 265 63 252 49 241 c 257
 16 220 0 184 0 132 c 256
 0 91 14 58 42 31 c 256
 70 5 104 -8 144 -8 c 256
 216 -8 266 30 283 115 c 257
 303 34 360 -8 421 -8 c 256
 459 -8 491 6 517 33 c 256
 544 61 557 95 557 136 c 256
NamedP: "hr00"
EndSplineSet
PickledDataWithLists: "(dp1
S'com.adobe.type.autohint'
p2
(S'data'
S'<data>\\n  <hintSetList>\\n    <hintset pointTag=\"hr00\">\\n      <hstem pos=\"-8\" width=\"81\"/>\\n      <hstem pos=\"315\" width=\"39\"/>\\n      <hstem pos=\"425\" width=\"46\"/>\\n      <vstem pos=\"0\" width=\"58\"/>\\n      <vstem pos=\"235\" width=\"38\"/>\\n      <vstem pos=\"360\" width=\"81\"/>\\n      <vstem pos=\"516\" width=\"41\"/>\\n    </hintset>\\n  </hintSetList>\\n  </data>'
Ntp3
s."
EndChar

StartChar: uni0C1A
Encoding: 141 3098 141
GlifName: uni0C1A_
Width: 662
VWidth: 0
Flags: W
LayerCount: 2
Back
Fore
SplineSet
490 607 m 258
NamedP: "hr00"
 549 654 579 681 579 687 c 256
 579 711 562 743 538 735 c 256
 533 734 503 705 446 646 c 256
 373 569 318 513 283 480 c 257
 220 566 l 258
 202 590 192 603 184 603 c 256
 155 603 132 576 132 551 c 256
 132 536 148 519 179 500 c 256
 242 463 277 442 284 437 c 257
 340 437 l 258
 396 437 441 416 477 374 c 256
 512 333 531 280 531 215 c 256
 531 127 482 71 413 71 c 256
 381 71 348 98 337 122 c 257
 328 150 l 258
 324 163 319 169 311 169 c 257
 275 100 l 257
 259 78 233 67 198 67 c 256
 142 67 109 101 109 150 c 256
 109 175 131 215 154 232 c 256
 157 235 169 242 189 253 c 257
 200 256 205 261 205 266 c 256
 205 279 192 289 166 297 c 257
 118 306 70 330 36 331 c 256
 16 332 0 317 0 288 c 256
 0 256 17 252 52 253 c 258
 145 255 l 257
 86 228 57 186 57 127 c 256
 57 89 69 57 93 31 c 256
 118 5 147 -8 181 -8 c 256
 241 -8 279 20 307 76 c 257
 326 23 366 -8 411 -8 c 256
 464 -8 505 12 534 53 c 256
 558 88 570 130 570 180 c 256
 570 263 552 329 518 381 c 256
 478 441 414 473 324 473 c 257
 490 607 l 258
NamedP: "hr00"
EndSplineSet
PickledDataWithLists: "(dp1
S'com.adobe.type.autohint'
p2
(S'data'
S'<data>\\n  <hintSetList>\\n    <hintset pointTag=\"hr00\">\\n      <hstem pos=\"-8\" width=\"79\"/>\\n      <hstem pos=\"-8\" width=\"75\"/>\\n      <hstem pos=\"253\" width=\"78\"/>\\n      <hstem pos=\"437\" width=\"36\"/>\\n      <vstem pos=\"57\" width=\"52\"/>\\n      <vstem pos=\"531\" width=\"39\"/>\\n    </hintset>\\n  </hintSetList>\\n  </data>'
Ntp3
s."
EndChar

StartChar: uni0C1B
Encoding: 142 3099 142
GlifName: uni0C1B_
Width: 662
VWidth: 0
Flags: W
LayerCount: 2
Back
Fore
SplineSet
350 -61 m 256
NamedP: "hr00"
 350 -46 345 -29 334 -10 c 256
 317 19 308 36 307 40 c 257
 304 35 296 20 282 -3 c 256
 268 -27 261 -45 261 -58 c 256
 261 -77 266 -92 277 -101 c 256
 285 -108 295 -111 307 -111 c 256
 336 -111 350 -94 350 -61 c 256
NamedP: "hr00"
490 607 m 258
 549 654 579 681 579 687 c 256
 579 711 562 743 538 735 c 256
 533 734 503 705 446 646 c 256
 373 569 318 513 283 480 c 257
 220 566 l 258
 202 590 192 603 184 603 c 256
 155 603 132 576 132 551 c 256
 132 536 148 519 179 500 c 256
 242 463 277 442 284 437 c 257
 340 437 l 258
 396 437 441 416 477 374 c 256
 512 333 531 280 531 215 c 256
 531 127 482 71 413 71 c 256
 381 71 348 98 337 122 c 257
 328 150 l 258
 324 163 319 169 311 169 c 257
 275 100 l 257
 259 78 233 67 198 67 c 256
 142 67 109 101 109 150 c 256
 109 175 131 215 154 232 c 256
 157 235 169 242 189 253 c 257
 200 256 205 261 205 266 c 256
 205 279 192 289 166 297 c 257
 118 306 70 330 36 331 c 256
 16 332 0 317 0 288 c 256
 0 256 17 252 52 253 c 258
 145 255 l 257
 86 228 57 186 57 127 c 256
 57 89 69 57 93 31 c 256
 118 5 147 -8 181 -8 c 256
 241 -8 279 20 307 76 c 257
 326 23 366 -8 411 -8 c 256
 464 -8 505 12 534 53 c 256
 558 88 570 130 570 180 c 256
 570 263 552 329 518 381 c 256
 478 441 414 473 324 473 c 257
 490 607 l 258
EndSplineSet
PickledDataWithLists: "(dp1
S'com.adobe.type.autohint'
p2
(S'data'
S'<data>\\n  <hintSetList>\\n    <hintset pointTag=\"hr00\">\\n      <hstem pos=\"-8\" width=\"79\"/>\\n      <hstem pos=\"-8\" width=\"75\"/>\\n      <hstem pos=\"253\" width=\"78\"/>\\n      <hstem pos=\"437\" width=\"36\"/>\\n      <vstem pos=\"57\" width=\"52\"/>\\n      <vstem pos=\"261\" width=\"89\"/>\\n      <vstem pos=\"531\" width=\"39\"/>\\n    </hintset>\\n  </hintSetList>\\n  </data>'
Ntp3
s."
EndChar

StartChar: uni0C1C
Encoding: 143 3100 143
GlifName: uni0C1C_
Width: 642
VWidth: 0
Flags: W
LayerCount: 2
Back
Fore
SplineSet
559 130 m 256
NamedP: "hr00"
 559 169 549 209 529 209 c 256
 520 209 515 204 516 193 c 258
 518 161 l 258
 522 104 477 71 428 71 c 256
 372 71 334 102 314 139 c 257
 311 142 308 150 304 163 c 256
 301 176 296 183 290 183 c 257
 242 109 l 257
 221 85 191 73 152 73 c 256
 101 73 60 101 60 148 c 256
 60 187 76 214 109 227 c 257
 207 250 262 249 276 328 c 257
 295 251 349 218 416 218 c 256
 489 218 546 267 546 343 c 256
 546 416 502 473 433 473 c 256
 412 473 394 464 394 447 c 256
 394 428 408 425 436 425 c 256
 455 425 462 424 471 421 c 256
 496 414 508 396 508 366 c 256
 508 312 472 285 399 285 c 256
 355 285 310 315 296 343 c 256
 272 390 255 417 248 428 c 257
 222 457 189 471 149 471 c 256
 68 471 5 424 5 351 c 256
 5 324 16 311 38 311 c 256
 59 311 75 330 85 368 c 256
 96 406 120 425 159 425 c 256
 206 425 239 393 239 345 c 256
 239 312 218 290 175 279 c 256
 152 273 115 263 62 250 c 257
 22 230 0 194 0 139 c 256
 0 95 14 59 41 32 c 256
 69 5 103 -8 144 -8 c 256
 215 -8 266 27 286 114 c 257
 303 31 360 -10 424 -10 c 256
 461 -10 493 3 519 30 c 256
 546 57 559 90 559 130 c 256
NamedP: "hr00"
EndSplineSet
PickledDataWithLists: "(dp1
S'com.adobe.type.autohint'
p2
(S'data'
S'<data>\\n  <hintSetList>\\n    <hintset pointTag=\"hr00\">\\n      <hstem pos=\"-10\" width=\"81\"/>\\n      <hstem pos=\"-8\" width=\"81\"/>\\n      <hstem pos=\"218\" width=\"67\"/>\\n      <hstem pos=\"425\" width=\"48\"/>\\n      <vstem pos=\"0\" width=\"60\"/>\\n      <vstem pos=\"508\" width=\"38\"/>\\n      <vstem pos=\"518\" width=\"41\"/>\\n    </hintset>\\n  </hintSetList>\\n  </data>'
Ntp3
s."
EndChar

StartChar: uni0C1D
Encoding: 144 3101 144
GlifName: uni0C1D_
Width: 1127
VWidth: 0
Flags: W
LayerCount: 2
Back
Fore
SplineSet
775 -61 m 256
NamedP: "hr00"
 775 -46 770 -29 761 -10 c 257
 744 19 735 36 734 40 c 257
 731 35 722 20 708 -3 c 256
 693 -27 687 -45 687 -58 c 256
 687 -77 693 -92 704 -101 c 256
 712 -108 722 -111 734 -111 c 256
 761 -111 775 -94 775 -61 c 256
NamedP: "hr00"
477 224 m 257
 477 368 391 460 258 472 c 257
 426 608 l 258
 485 655 515 683 515 690 c 256
 515 715 496 745 476 736 c 257
 469 735 437 705 381 648 c 256
 306 570 252 515 219 483 c 257
 166 552 l 258
 140 585 128 604 119 604 c 256
 92 604 67 580 67 552 c 256
 67 540 78 527 101 512 c 258
 176 465 l 257
 64 440 0 351 0 240 c 256
 0 169 23 110 69 63 c 256
 116 16 174 -8 245 -8 c 256
 326 -8 405 34 450 109 c 257
 467 38 515 -8 578 -8 c 256
 613 -8 644 5 673 27 c 256
 696 45 718 72 736 109 c 257
 756 36 803 -8 867 -8 c 256
 922 -8 965 19 999 69 c 256
 1029 113 1045 159 1045 209 c 256
 1045 288 1030 351 999 400 c 256
 969 449 923 474 862 474 c 256
 833 474 815 469 808 459 c 256
 805 454 804 446 804 434 c 256
 804 411 816 399 841 399 c 258
 875 399 l 258
 914 399 945 383 969 350 c 256
 993 317 1005 280 1005 237 c 256
 1005 192 990 153 959 120 c 256
 929 87 894 70 853 70 c 256
 790 70 760 123 760 210 c 257
 758 218 l 257
 758 294 744 356 713 402 c 256
 680 451 633 474 574 474 c 256
 545 474 528 469 521 459 c 256
 518 454 517 446 517 434 c 256
 517 411 530 399 556 399 c 258
 591 399 l 258
 630 399 660 383 683 350 c 256
 706 317 718 280 718 237 c 256
 718 192 703 152 674 119 c 256
 645 86 608 70 565 70 c 256
 512 70 473 113 473 180 c 257
 477 224 l 257
421 249 m 256
 421 196 404 153 369 122 c 256
 335 91 292 76 240 76 c 256
 187 76 143 91 107 122 c 256
 72 153 54 197 54 253 c 256
 54 310 72 353 108 384 c 256
 144 415 188 430 241 430 c 256
 293 430 336 413 370 380 c 256
 404 347 421 304 421 249 c 256
EndSplineSet
PickledDataWithLists: "(dp1
S'com.adobe.type.autohint'
p2
(S'data'
S'<data>\\n  <hintSetList>\\n    <hintset pointTag=\"hr00\">\\n      <hstem pos=\"-8\" width=\"78\"/>\\n      <hstem pos=\"-8\" width=\"84\"/>\\n      <hstem pos=\"399\" width=\"75\"/>\\n      <hstem pos=\"430\" width=\"42\"/>\\n      <vstem pos=\"0\" width=\"54\"/>\\n      <vstem pos=\"421\" width=\"56\"/>\\n      <vstem pos=\"687\" width=\"88\"/>\\n      <vstem pos=\"718\" width=\"40\"/>\\n      <vstem pos=\"1005\" width=\"40\"/>\\n    </hintset>\\n  </hintSetList>\\n  </data>'
Ntp3
s."
EndChar

StartChar: uni0C1E
Encoding: 145 3102 145
GlifName: uni0C1E_
Width: 843
VWidth: 0
Flags: W
LayerCount: 2
Back
Fore
SplineSet
428 145 m 257
NamedP: "hr00"
 403 122 370 105 331 92 c 256
 292 79 257 73 226 73 c 256
 183 73 148 77 123 86 c 256
 87 99 69 119 69 146 c 256
 69 181 116 205 228 205 c 256
 288 205 344 190 393 169 c 257
 405 161 411 160 428 145 c 257
NamedP: "hr00"
769 308 m 256
 769 319 764 325 753 325 c 258
 646 325 l 257
 647 333 652 356 661 393 c 256
 666 414 669 429 669 437 c 256
 669 456 658 474 634 474 c 256
 605 474 590 462 590 437 c 256
 590 426 594 411 600 391 c 256
 603 378 610 356 621 325 c 257
 499 325 l 257
 488 412 435 471 362 471 c 256
 325 471 297 460 276 438 c 256
 267 428 254 404 237 367 c 257
 222 439 179 473 111 473 c 256
 43 473 0 427 0 366 c 256
 0 347 5 327 15 308 c 256
 26 289 37 280 48 280 c 256
 57 280 62 283 62 288 c 256
 62 296 41 317 41 349 c 256
 41 386 82 416 123 416 c 256
 149 416 172 407 191 389 c 256
 210 371 220 351 220 328 c 256
 220 314 227 307 242 307 c 256
 250 307 254 314 254 328 c 256
 254 364 292 413 362 413 c 256
 393 413 417 398 438 368 c 256
 458 339 469 305 469 266 c 256
 469 233 467 203 452 174 c 257
 392 221 324 248 236 248 c 256
 172 248 122 240 87 223 c 256
 46 204 25 173 25 130 c 256
 25 85 46 52 88 29 c 256
 128 7 174 -5 226 -5 c 256
 329 -5 417 34 464 109 c 257
 480 82 l 258
 490 65 491 49 491 18 c 258
 491 -9 l 258
 491 -54 497 -61 524 -61 c 256
 549 -61 557 -45 557 -16 c 256
 557 23 540 64 517 101 c 257
 483 145 l 257
 500 186 504 224 504 285 c 257
 758 285 l 258
 765 285 769 293 769 308 c 256
EndSplineSet
PickledDataWithLists: "(dp1
S'com.adobe.type.autohint'
p2
(S'data'
S'<data>\\n  <hintSetList>\\n    <hintset pointTag=\"hr00\">\\n      <hstem pos=\"-5\" width=\"78\"/>\\n      <hstem pos=\"205\" width=\"43\"/>\\n      <hstem pos=\"285\" width=\"40\"/>\\n      <hstem pos=\"413\" width=\"58\"/>\\n      <hstem pos=\"416\" width=\"57\"/>\\n      <vstem pos=\"0\" width=\"41\"/>\\n      <vstem pos=\"25\" width=\"44\"/>\\n      <vstem pos=\"220\" width=\"34\"/>\\n      <vstem pos=\"469\" width=\"35\"/>\\n      <vstem pos=\"491\" width=\"66\"/>\\n      <vstem pos=\"590\" width=\"79\"/>\\n    </hintset>\\n  </hintSetList>\\n  </data>'
Ntp3
s."
EndChar

StartChar: uni0C1F
Encoding: 146 3103 146
GlifName: uni0C1F_
Width: 702
VWidth: 0
Flags: W
LayerCount: 2
Back
Fore
SplineSet
223 368 m 256
NamedP: "hr00"
 223 333 198 306 163 306 c 256
 131 306 104 335 104 368 c 256
 104 404 131 430 163 430 c 256
 198 430 223 403 223 368 c 256
NamedP: "hr00"
616 229 m 256
 616 304 599 363 566 407 c 256
 533 452 490 474 438 474 c 256
 395 474 371 471 371 432 c 256
 371 404 387 398 415 398 c 256
 422 398 433 399 448 399 c 256
 485 400 516 383 540 352 c 256
 564 321 576 284 576 240 c 256
 576 193 561 153 531 120 c 256
 501 87 467 71 428 71 c 256
 376 71 350 99 337 135 c 257
 332 160 328 191 312 191 c 256
 300 191 299 174 288 139 c 256
 277 104 240 73 191 73 c 256
 144 73 106 92 80 132 c 256
 60 162 51 202 51 249 c 256
 51 280 56 315 67 353 c 257
 78 281 124 257 167 257 c 256
 228 257 273 305 273 368 c 256
 273 432 235 473 171 473 c 257
 174 486 181 505 190 529 c 256
 200 554 205 573 205 588 c 256
 205 616 192 630 166 630 c 256
 137 630 126 612 126 583 c 256
 126 576 130 558 138 528 c 256
 146 498 151 480 152 474 c 257
 104 469 67 445 40 400 c 256
 13 356 0 305 0 246 c 256
 0 179 16 120 47 71 c 256
 80 18 124 -8 179 -8 c 256
 238 -8 276 17 312 78 c 257
 349 17 380 -8 433 -8 c 256
 488 -8 533 16 566 63 c 256
 599 110 616 166 616 229 c 256
EndSplineSet
PickledDataWithLists: "(dp1
S'com.adobe.type.autohint'
p2
(S'data'
S'<data>\\n  <hintSetList>\\n    <hintset pointTag=\"hr00\">\\n      <hstem pos=\"-8\" width=\"79\"/>\\n      <hstem pos=\"257\" width=\"49\"/>\\n      <hstem pos=\"398\" width=\"76\"/>\\n      <hstem pos=\"430\" width=\"43\"/>\\n      <vstem pos=\"0\" width=\"51\"/>\\n      <vstem pos=\"126\" width=\"79\"/>\\n      <vstem pos=\"152\" width=\"19\"/>\\n      <vstem pos=\"223\" width=\"50\"/>\\n      <vstem pos=\"576\" width=\"40\"/>\\n    </hintset>\\n  </hintSetList>\\n  </data>'
Ntp3
s."
EndChar

StartChar: uni0C20
Encoding: 147 3104 147
GlifName: uni0C20_
Width: 561
VWidth: 0
Flags: W
LayerCount: 2
Back
Fore
SplineSet
166 463 m 257
NamedP: "hr00"
 57 430 0 347 0 240 c 256
 0 169 23 110 69 63 c 256
 116 16 174 -8 245 -8 c 256
 308 -8 363 14 408 59 c 256
 454 104 477 159 477 224 c 256
 477 299 455 360 411 405 c 256
 367 450 310 473 241 473 c 257
 407 608 l 258
 466 656 496 683 496 690 c 256
 496 703 492 715 484 726 c 256
 477 737 468 741 459 736 c 257
 452 735 419 706 363 648 c 256
 287 571 234 515 200 483 c 257
 178 510 161 533 149 552 c 256
 125 587 109 604 100 604 c 256
 73 604 51 580 51 552 c 256
 51 539 61 526 80 512 c 257
 107 497 136 481 166 463 c 257
NamedP: "hr00"
421 249 m 256
 421 196 404 153 369 122 c 256
 335 91 292 76 240 76 c 256
 187 76 143 91 107 122 c 256
 72 153 54 197 54 253 c 256
 54 310 72 353 108 384 c 256
 144 415 188 430 241 430 c 256
 293 430 336 413 370 380 c 256
 404 347 421 304 421 249 c 256
281 257 m 256
 281 286 261 306 237 306 c 256
 213 306 193 284 193 257 c 256
 193 230 213 211 237 211 c 256
 261 211 281 233 281 257 c 256
EndSplineSet
PickledDataWithLists: "(dp1
S'com.adobe.type.autohint'
p2
(S'data'
S'<data>\\n  <hintSetList>\\n    <hintset pointTag=\"hr00\">\\n      <hstem pos=\"-8\" width=\"84\"/>\\n      <hstem pos=\"211\" width=\"95\"/>\\n      <hstem pos=\"430\" width=\"43\"/>\\n      <vstem pos=\"0\" width=\"54\"/>\\n      <vstem pos=\"193\" width=\"88\"/>\\n      <vstem pos=\"421\" width=\"56\"/>\\n    </hintset>\\n  </hintSetList>\\n  </data>'
Ntp3
s."
EndChar

StartChar: uni0C21
Encoding: 148 3105 148
GlifName: uni0C21_
Width: 605
VWidth: 0
Flags: W
LayerCount: 2
Back
Fore
SplineSet
442 609 m 258
NamedP: "hr00"
 502 655 531 682 531 688 c 256
 531 711 513 734 493 734 c 256
 488 734 467 716 430 679 c 258
 222 476 l 257
 195 511 171 545 148 577 c 256
 138 591 129 598 123 598 c 256
 94 598 67 571 67 547 c 256
 67 533 77 520 97 507 c 256
 123 491 151 476 180 461 c 257
 63 420 0 325 0 198 c 256
 0 140 13 91 39 51 c 256
 65 12 101 -8 146 -8 c 256
 203 -8 245 32 268 115 c 257
 280 30 337 -10 402 -10 c 256
 479 -10 530 47 530 123 c 256
 530 200 485 244 433 244 c 256
 416 244 407 236 407 220 c 256
 407 204 416 196 433 196 c 256
 466 196 482 181 482 145 c 256
 482 98 442 71 389 71 c 256
 343 71 312 91 296 132 c 256
 280 173 270 193 267 193 c 256
 262 193 253 173 241 133 c 256
 229 93 202 73 159 73 c 256
 91 73 56 134 56 215 c 256
 56 287 80 342 124 382 c 256
 163 418 210 437 267 437 c 256
 307 437 339 429 364 412 c 256
 389 396 412 378 434 359 c 257
 453 359 463 367 463 384 c 256
 463 409 443 430 404 447 c 256
 365 464 319 473 267 473 c 257
 442 609 l 258
NamedP: "hr00"
EndSplineSet
PickledDataWithLists: "(dp1
S'com.adobe.type.autohint'
p2
(S'data'
S'<data>\\n  <hintSetList>\\n    <hintset pointTag=\"hr00\">\\n      <hstem pos=\"-10\" width=\"81\"/>\\n      <hstem pos=\"-8\" width=\"81\"/>\\n      <hstem pos=\"196\" width=\"48\"/>\\n      <hstem pos=\"437\" width=\"36\"/>\\n      <vstem pos=\"0\" width=\"56\"/>\\n      <vstem pos=\"482\" width=\"48\"/>\\n    </hintset>\\n  </hintSetList>\\n  </data>'
Ntp3
s."
EndChar

StartChar: uni0C22
Encoding: 149 3106 149
GlifName: uni0C22_
Width: 605
VWidth: 0
Flags: W
LayerCount: 2
Back
Fore
SplineSet
310 -61 m 256
NamedP: "hr00"
 310 -46 305 -29 294 -10 c 256
 277 19 268 36 267 40 c 257
 264 35 255 20 242 -3 c 256
 228 -27 222 -45 222 -58 c 256
 222 -77 228 -92 239 -101 c 256
 246 -108 256 -111 267 -111 c 256
 296 -111 310 -94 310 -61 c 256
NamedP: "hr00"
442 609 m 258
 502 655 531 682 531 688 c 256
 531 711 513 734 493 734 c 256
 488 734 467 716 430 679 c 258
 222 476 l 257
 195 511 171 545 148 577 c 256
 138 591 129 598 123 598 c 256
 94 598 67 571 67 547 c 256
 67 533 77 520 97 507 c 256
 123 491 151 476 180 461 c 257
 63 420 0 325 0 198 c 256
 0 140 13 91 39 51 c 256
 65 12 101 -8 146 -8 c 256
 203 -8 245 32 268 115 c 257
 280 30 337 -10 402 -10 c 256
 479 -10 530 47 530 123 c 256
 530 200 485 244 433 244 c 256
 416 244 407 236 407 220 c 256
 407 204 416 196 433 196 c 256
 466 196 482 181 482 145 c 256
 482 98 442 71 389 71 c 256
 343 71 312 91 296 132 c 256
 280 173 270 193 267 193 c 256
 262 193 253 173 241 133 c 256
 229 93 202 73 159 73 c 256
 91 73 56 134 56 215 c 256
 56 287 80 342 124 382 c 256
 163 418 210 437 267 437 c 256
 307 437 339 429 364 412 c 256
 389 396 412 378 434 359 c 257
 453 359 463 367 463 384 c 256
 463 409 443 430 404 447 c 256
 365 464 319 473 267 473 c 257
 442 609 l 258
EndSplineSet
PickledDataWithLists: "(dp1
S'com.adobe.type.autohint'
p2
(S'data'
S'<data>\\n  <hintSetList>\\n    <hintset pointTag=\"hr00\">\\n      <hstem pos=\"-10\" width=\"81\"/>\\n      <hstem pos=\"-8\" width=\"81\"/>\\n      <hstem pos=\"196\" width=\"48\"/>\\n      <hstem pos=\"437\" width=\"36\"/>\\n      <vstem pos=\"0\" width=\"56\"/>\\n      <vstem pos=\"222\" width=\"88\"/>\\n      <vstem pos=\"482\" width=\"48\"/>\\n    </hintset>\\n  </hintSetList>\\n  </data>'
Ntp3
s."
EndChar

StartChar: uni0C23
Encoding: 150 3107 150
GlifName: uni0C23_
Width: 689
VWidth: 0
Flags: W
LayerCount: 2
Back
Fore
SplineSet
495 144 m 256
NamedP: "hr00"
 495 104 464 69 425 69 c 256
 385 69 355 104 355 144 c 256
 355 184 389 218 425 218 c 256
 465 218 495 184 495 144 c 256
NamedP: "hr00"
618 227 m 256
 618 294 602 351 569 400 c 256
 537 449 493 473 437 473 c 256
 369 473 310 437 293 364 c 257
 270 437 222 474 150 474 c 256
 55 474 0 431 0 356 c 256
 0 311 22 279 66 259 c 257
 18 234 0 192 0 136 c 256
 0 44 60 -8 140 -8 c 256
 169 -8 195 3 220 24 c 256
 245 45 257 69 257 96 c 256
 257 131 246 144 227 144 c 256
 218 144 209 132 199 108 c 256
 190 85 168 73 135 73 c 256
 87 73 51 104 51 156 c 256
 51 203 90 239 137 239 c 256
 157 239 166 240 166 255 c 256
 166 272 163 275 127 275 c 256
 87 275 60 298 60 338 c 256
 60 383 106 413 159 413 c 256
 184 413 207 407 226 395 c 256
 242 385 254 372 261 355 c 257
 266 346 270 333 275 315 c 256
 280 297 285 288 290 288 c 256
 307 288 307 305 318 342 c 257
 327 363 341 381 359 393 c 256
 380 407 406 413 439 413 c 256
 530 413 578 345 578 245 c 256
 578 185 556 122 516 95 c 257
 524 116 528 135 528 150 c 256
 528 214 487 255 430 255 c 256
 353 255 308 201 308 128 c 256
 308 89 320 57 344 30 c 256
 368 3 399 -10 437 -10 c 256
 548 -10 618 83 618 227 c 256
EndSplineSet
PickledDataWithLists: "(dp1
S'com.adobe.type.autohint'
p2
(S'data'
S'<data>\\n  <hintSetList>\\n    <hintset pointTag=\"hr00\">\\n      <hstem pos=\"-10\" width=\"79\"/>\\n      <hstem pos=\"-8\" width=\"81\"/>\\n      <hstem pos=\"218\" width=\"37\"/>\\n      <hstem pos=\"239\" width=\"36\"/>\\n      <hstem pos=\"413\" width=\"61\"/>\\n      <vstem pos=\"0\" width=\"51\"/>\\n      <vstem pos=\"0\" width=\"60\"/>\\n      <vstem pos=\"308\" width=\"47\"/>\\n      <vstem pos=\"495\" width=\"33\"/>\\n      <vstem pos=\"578\" width=\"40\"/>\\n    </hintset>\\n  </hintSetList>\\n  </data>'
Ntp3
s."
EndChar

StartChar: uni0C24
Encoding: 151 3108 151
GlifName: uni0C24_
Width: 628
VWidth: 0
Flags: W
LayerCount: 2
Back
Fore
SplineSet
307 437 m 258
NamedP: "hr00"
 354 437 389 430 411 417 c 257
 423 412 439 396 458 369 c 257
 443 374 427 377 408 377 c 256
 347 377 310 334 310 277 c 256
 310 250 320 227 341 208 c 256
 362 189 385 180 411 180 c 256
 438 180 464 195 491 224 c 257
 491 174 470 134 427 104 c 256
 384 75 330 60 263 60 c 256
 201 60 149 75 107 106 c 256
 66 137 45 184 45 245 c 257
 72 204 92 189 132 189 c 256
 188 189 232 232 232 285 c 256
 232 358 192 384 136 384 c 256
 48 384 0 316 0 224 c 256
 0 153 27 97 82 53 c 256
 132 13 193 -8 266 -8 c 256
 337 -8 401 12 456 52 c 256
 514 94 543 148 543 214 c 256
 543 240 540 262 533 279 c 256
 530 288 525 302 517 319 c 257
 503 381 473 424 428 448 c 256
 396 465 352 473 296 473 c 257
 423 574 l 258
 506 640 548 677 548 684 c 256
 548 697 544 709 536 721 c 256
 529 733 519 737 507 732 c 257
 502 731 471 703 415 643 c 256
 341 566 288 510 253 477 c 257
 240 494 218 523 189 564 c 256
 173 588 161 600 154 600 c 256
 123 600 101 572 101 548 c 256
 101 533 117 516 149 498 c 258
 255 437 l 257
 307 437 l 258
NamedP: "hr00"
187 288 m 256
 187 255 162 227 130 227 c 256
 97 227 73 253 73 288 c 256
 73 324 97 347 130 347 c 256
 162 347 187 323 187 288 c 256
482 283 m 256
 482 248 456 224 421 224 c 256
 390 224 362 250 362 283 c 256
 362 316 390 343 421 343 c 256
 454 343 482 316 482 283 c 256
EndSplineSet
PickledDataWithLists: "(dp1
S'com.adobe.type.autohint'
p2
(S'data'
S'<data>\\n  <hintSetList>\\n    <hintset pointTag=\"hr00\">\\n      <hstem pos=\"-8\" width=\"68\"/>\\n      <hstem pos=\"180\" width=\"44\"/>\\n      <hstem pos=\"189\" width=\"38\"/>\\n      <hstem pos=\"343\" width=\"34\"/>\\n      <hstem pos=\"347\" width=\"37\"/>\\n      <hstem pos=\"437\" width=\"36\"/>\\n      <vstem pos=\"0\" width=\"45\"/>\\n      <vstem pos=\"187\" width=\"45\"/>\\n      <vstem pos=\"310\" width=\"52\"/>\\n      <vstem pos=\"491\" width=\"52\"/>\\n    </hintset>\\n  </hintSetList>\\n  </data>'
Ntp3
s."
EndChar

StartChar: uni0C25
Encoding: 152 3109 152
GlifName: uni0C25_
Width: 632
VWidth: 0
Flags: W
LayerCount: 2
Back
Fore
SplineSet
320 -61 m 256
NamedP: "hr00"
 320 -46 316 -29 305 -10 c 256
 289 19 278 36 277 40 c 257
 274 35 265 20 252 -3 c 256
 238 -27 232 -45 232 -58 c 256
 232 -77 238 -92 249 -101 c 256
 256 -108 265 -111 277 -111 c 256
 306 -111 320 -94 320 -61 c 256
NamedP: "hr00"
189 464 m 257
 162 457 139 448 121 437 c 256
 81 414 51 376 29 325 c 256
 11 283 0 239 0 193 c 256
 0 140 13 94 39 53 c 256
 66 12 102 -8 149 -8 c 256
 213 -8 255 28 279 113 c 257
 294 37 340 -8 399 -8 c 256
 446 -8 483 12 511 51 c 256
 536 86 548 129 548 180 c 256
 548 273 523 346 474 399 c 256
 429 448 366 473 286 473 c 257
 311 491 355 526 419 577 c 256
 505 644 548 681 548 688 c 256
 548 709 534 734 509 734 c 256
 506 734 486 715 448 679 c 256
 326 560 255 494 239 477 c 257
 222 498 205 521 188 547 c 256
 165 582 150 599 141 599 c 256
 112 599 87 572 87 547 c 256
 87 534 96 521 114 509 c 256
 138 493 163 479 189 464 c 257
496 215 m 256
 496 176 489 144 474 118 c 256
 456 87 431 71 399 71 c 256
 350 71 323 100 307 135 c 257
 300 160 296 187 281 187 c 257
 265 162 250 137 235 110 c 257
 215 85 188 73 154 73 c 256
 90 73 56 137 56 222 c 256
 56 284 77 335 118 374 c 256
 159 414 213 434 280 434 c 256
 347 434 401 412 441 368 c 256
 478 329 496 278 496 215 c 256
323 288 m 256
 323 315 302 336 277 336 c 256
 250 336 235 315 235 288 c 256
 235 260 253 242 277 242 c 256
 302 242 323 261 323 288 c 256
EndSplineSet
PickledDataWithLists: "(dp1
S'com.adobe.type.autohint'
p2
(S'data'
S'<data>\\n  <hintSetList>\\n    <hintset pointTag=\"hr00\">\\n      <hstem pos=\"-8\" width=\"81\"/>\\n      <hstem pos=\"242\" width=\"94\"/>\\n      <hstem pos=\"434\" width=\"39\"/>\\n      <vstem pos=\"0\" width=\"56\"/>\\n      <vstem pos=\"232\" width=\"88\"/>\\n      <vstem pos=\"235\" width=\"88\"/>\\n      <vstem pos=\"496\" width=\"52\"/>\\n    </hintset>\\n  </hintSetList>\\n  </data>'
Ntp3
s."
EndChar

StartChar: uni0C26
Encoding: 153 3110 153
GlifName: uni0C26_
Width: 632
VWidth: 0
Flags: W
LayerCount: 2
Back
Fore
SplineSet
189 464 m 257
NamedP: "hr00"
 162 457 139 448 121 437 c 256
 81 414 51 376 29 325 c 256
 11 283 0 239 0 193 c 256
 0 140 13 94 39 53 c 256
 66 12 102 -8 149 -8 c 256
 213 -8 255 28 279 113 c 257
 294 37 340 -8 399 -8 c 256
 446 -8 483 12 511 51 c 256
 536 86 548 129 548 180 c 256
 548 273 523 346 474 399 c 256
 429 448 366 473 286 473 c 257
 311 491 355 526 419 577 c 256
 505 644 548 681 548 688 c 256
 548 709 534 734 509 734 c 256
 506 734 486 715 448 679 c 256
 326 560 255 494 239 477 c 257
 222 498 205 521 188 547 c 256
 165 582 150 599 141 599 c 256
 112 599 87 572 87 547 c 256
 87 534 96 521 114 509 c 256
 138 493 163 479 189 464 c 257
NamedP: "hr00"
496 215 m 256
 496 176 489 144 474 118 c 256
 456 87 431 71 399 71 c 256
 350 71 323 100 307 135 c 257
 300 160 296 187 281 187 c 257
 265 162 250 137 235 110 c 257
 215 85 188 73 154 73 c 256
 90 73 56 137 56 222 c 256
 56 284 77 335 118 374 c 256
 159 414 213 434 280 434 c 256
 347 434 401 412 441 368 c 256
 478 329 496 278 496 215 c 256
EndSplineSet
PickledDataWithLists: "(dp1
S'com.adobe.type.autohint'
p2
(S'data'
S'<data>\\n  <hintSetList>\\n    <hintset pointTag=\"hr00\">\\n      <hstem pos=\"-8\" width=\"81\"/>\\n      <hstem pos=\"434\" width=\"39\"/>\\n      <vstem pos=\"0\" width=\"56\"/>\\n      <vstem pos=\"496\" width=\"52\"/>\\n    </hintset>\\n  </hintSetList>\\n  </data>'
Ntp3
s."
EndChar

StartChar: uni0C27
Encoding: 154 3111 154
GlifName: uni0C27_
Width: 635
VWidth: 0
Flags: W
LayerCount: 2
Back
Fore
SplineSet
321 -61 m 256
NamedP: "hr00"
 321 -46 317 -29 306 -10 c 256
 290 19 280 36 279 40 c 257
 276 35 268 20 254 -3 c 256
 240 -27 233 -45 233 -58 c 256
 233 -77 239 -92 250 -101 c 256
 257 -108 267 -111 279 -111 c 256
 307 -111 321 -94 321 -61 c 256
NamedP: "hr00"
189 464 m 257
 162 457 139 448 121 437 c 256
 81 414 51 376 29 325 c 256
 11 283 0 239 0 193 c 256
 0 140 13 94 39 53 c 256
 66 12 102 -8 149 -8 c 256
 213 -8 255 28 279 113 c 257
 294 37 340 -8 399 -8 c 256
 446 -8 483 12 511 51 c 256
 536 86 548 129 548 180 c 256
 548 273 523 346 474 399 c 256
 429 448 366 473 286 473 c 257
 311 491 355 526 419 577 c 256
 505 644 548 681 548 688 c 256
 548 709 534 734 509 734 c 256
 506 734 486 715 448 679 c 256
 326 560 255 494 239 477 c 257
 222 498 205 521 188 547 c 256
 165 582 150 599 141 599 c 256
 112 599 87 572 87 547 c 256
 87 534 96 521 114 509 c 256
 138 493 163 479 189 464 c 257
496 215 m 256
 496 176 489 144 474 118 c 256
 456 87 431 71 399 71 c 256
 350 71 323 100 307 135 c 257
 300 160 296 187 281 187 c 257
 265 162 250 137 235 110 c 257
 215 85 188 73 154 73 c 256
 90 73 56 137 56 222 c 256
 56 284 77 335 118 374 c 256
 159 414 213 434 280 434 c 256
 347 434 401 412 441 368 c 256
 478 329 496 278 496 215 c 256
EndSplineSet
PickledDataWithLists: "(dp1
S'com.adobe.type.autohint'
p2
(S'data'
S'<data>\\n  <hintSetList>\\n    <hintset pointTag=\"hr00\">\\n      <hstem pos=\"-8\" width=\"81\"/>\\n      <hstem pos=\"434\" width=\"39\"/>\\n      <vstem pos=\"0\" width=\"56\"/>\\n      <vstem pos=\"233\" width=\"88\"/>\\n      <vstem pos=\"496\" width=\"52\"/>\\n    </hintset>\\n  </hintSetList>\\n  </data>'
Ntp3
s."
EndChar

StartChar: uni0C28
Encoding: 155 3112 155
GlifName: uni0C28_
Width: 614
VWidth: 0
Flags: W
LayerCount: 2
Back
Fore
SplineSet
529 178 m 256
NamedP: "hr00"
 529 273 506 348 461 402 c 256
 421 449 366 473 296 473 c 258
 219 473 l 257
 237 490 273 521 328 564 c 256
 421 635 468 675 468 682 c 256
 468 706 453 730 430 730 c 256
 426 730 383 688 301 603 c 256
 219 519 173 477 163 477 c 256
 153 477 137 496 114 534 c 256
 91 572 74 591 62 591 c 256
 33 591 12 562 12 533 c 256
 12 521 36 499 87 473 c 258
 159 437 l 257
 276 437 l 258
 343 437 394 416 429 374 c 256
 464 332 482 278 482 211 c 256
 482 120 437 71 368 71 c 256
 332 71 293 106 250 175 c 256
 208 244 166 279 123 279 c 256
 48 279 0 220 0 139 c 256
 0 107 9 75 26 43 c 256
 43 11 64 -5 87 -5 c 256
 110 -5 123 14 123 29 c 256
 123 44 111 63 87 88 c 256
 64 113 52 139 52 166 c 256
 52 214 82 239 122 239 c 256
 153 239 188 198 228 115 c 256
 267 33 321 -8 386 -8 c 256
 427 -8 461 11 488 48 c 256
 515 86 529 129 529 178 c 256
NamedP: "hr00"
EndSplineSet
PickledDataWithLists: "(dp1
S'com.adobe.type.autohint'
p2
(S'data'
S'<data>\\n  <hintSetList>\\n    <hintset pointTag=\"hr00\">\\n      <hstem pos=\"-8\" width=\"79\"/>\\n      <hstem pos=\"16\" width=\"-21\"/>\\n      <hstem pos=\"239\" width=\"40\"/>\\n      <hstem pos=\"437\" width=\"36\"/>\\n      <vstem pos=\"0\" width=\"52\"/>\\n      <vstem pos=\"482\" width=\"47\"/>\\n    </hintset>\\n  </hintSetList>\\n  </data>'
Ntp3
s."
EndChar

StartChar: uni0C2A
Encoding: 156 3114 156
GlifName: uni0C2A_
Width: 629
VWidth: 0
Flags: W
LayerCount: 2
Back
Fore
SplineSet
461 687 m 256
NamedP: "hr00"
 461 710 448 732 424 732 c 256
 418 732 384 703 323 644 c 256
 230 553 173 496 150 473 c 257
 138 488 122 512 101 544 c 256
 78 578 61 595 52 595 c 256
 24 595 1 571 1 546 c 256
 1 532 9 518 27 507 c 258
 153 432 l 257
 170 449 213 485 281 538 c 256
 401 631 461 680 461 687 c 256
NamedP: "hr00"
223 153 m 256
 223 102 183 66 139 66 c 256
 90 66 52 105 52 153 c 256
 52 204 92 246 139 246 c 256
 183 246 223 204 223 153 c 256
548 206 m 256
 548 281 533 344 504 396 c 256
 475 448 435 474 385 474 c 256
 350 474 340 458 340 434 c 256
 340 411 357 399 391 399 c 256
 427 399 455 382 476 349 c 256
 497 316 507 278 507 236 c 256
 507 127 460 71 385 71 c 256
 328 71 291 100 280 141 c 256
 268 184 257 215 245 233 c 257
 220 264 182 280 132 280 c 256
 95 280 63 266 38 238 c 256
 13 210 0 176 0 136 c 256
 0 96 14 62 41 34 c 256
 68 6 101 -8 139 -8 c 256
 194 -8 241 25 268 82 c 257
 296 25 343 -8 386 -8 c 256
 443 -8 486 14 513 58 c 256
 536 95 548 145 548 206 c 256
EndSplineSet
PickledDataWithLists: "(dp1
S'com.adobe.type.autohint'
p2
(S'data'
S'<data>\\n  <hintSetList>\\n    <hintset pointTag=\"hr00\">\\n      <hstem pos=\"-8\" width=\"79\"/>\\n      <hstem pos=\"-8\" width=\"74\"/>\\n      <hstem pos=\"246\" width=\"34\"/>\\n      <hstem pos=\"399\" width=\"75\"/>\\n      <vstem pos=\"0\" width=\"52\"/>\\n      <vstem pos=\"507\" width=\"41\"/>\\n    </hintset>\\n  </hintSetList>\\n  </data>'
Ntp3
s."
EndChar

StartChar: uni0C2B
Encoding: 157 3115 157
GlifName: uni0C2B_
Width: 629
VWidth: 0
Flags: W
LayerCount: 2
Back
Fore
SplineSet
311 -61 m 256
NamedP: "hr00"
 311 -46 307 -29 296 -10 c 256
 280 19 269 36 268 40 c 257
 265 35 256 20 243 -3 c 256
 229 -27 223 -45 223 -58 c 256
 223 -77 229 -92 240 -101 c 256
 247 -108 257 -111 268 -111 c 256
 297 -111 311 -94 311 -61 c 256
NamedP: "hr00"
461 687 m 256
 461 710 448 732 424 732 c 256
 418 732 384 703 323 644 c 256
 230 553 173 496 150 473 c 257
 138 488 122 512 101 544 c 256
 78 578 61 595 52 595 c 256
 24 595 1 571 1 546 c 256
 1 532 9 518 27 507 c 258
 153 432 l 257
 170 449 213 485 281 538 c 256
 401 631 461 680 461 687 c 256
223 153 m 256
 223 102 183 66 139 66 c 256
 90 66 52 105 52 153 c 256
 52 204 92 246 139 246 c 256
 183 246 223 204 223 153 c 256
548 206 m 256
 548 281 533 344 504 396 c 256
 475 448 435 474 385 474 c 256
 350 474 340 458 340 434 c 256
 340 411 357 399 391 399 c 256
 427 399 455 382 476 349 c 256
 497 316 507 278 507 236 c 256
 507 127 460 71 385 71 c 256
 328 71 291 100 280 141 c 256
 268 184 257 215 245 233 c 257
 220 264 182 280 132 280 c 256
 95 280 63 266 38 238 c 256
 13 210 0 176 0 136 c 256
 0 96 14 62 41 34 c 256
 68 6 101 -8 139 -8 c 256
 194 -8 241 25 268 82 c 257
 296 25 343 -8 386 -8 c 256
 443 -8 486 14 513 58 c 256
 536 95 548 145 548 206 c 256
EndSplineSet
PickledDataWithLists: "(dp1
S'com.adobe.type.autohint'
p2
(S'data'
S'<data>\\n  <hintSetList>\\n    <hintset pointTag=\"hr00\">\\n      <hstem pos=\"-8\" width=\"79\"/>\\n      <hstem pos=\"-8\" width=\"74\"/>\\n      <hstem pos=\"246\" width=\"34\"/>\\n      <hstem pos=\"399\" width=\"75\"/>\\n      <vstem pos=\"0\" width=\"52\"/>\\n      <vstem pos=\"223\" width=\"88\"/>\\n      <vstem pos=\"507\" width=\"41\"/>\\n    </hintset>\\n  </hintSetList>\\n  </data>'
Ntp3
s."
EndChar

StartChar: uni0C2C
Encoding: 158 3116 158
GlifName: uni0C2C_
Width: 632
VWidth: 0
Flags: W
LayerCount: 2
Back
Fore
SplineSet
553 214 m 256
NamedP: "hr00"
 553 291 537 354 506 403 c 256
 475 453 430 478 372 478 c 256
 325 478 310 469 310 437 c 256
 310 404 323 402 367 402 c 258
 385 402 l 258
 418 402 444 388 468 364 c 256
 496 334 512 293 512 236 c 256
 512 131 469 67 386 67 c 256
 348 67 321 88 305 129 c 256
 289 170 279 191 276 191 c 256
 273 191 261 171 242 130 c 256
 223 89 190 69 144 69 c 256
 89 69 62 100 62 161 c 256
 62 200 98 226 169 241 c 256
 241 256 277 295 277 356 c 256
 277 425 231 473 159 473 c 256
 68 473 10 435 10 359 c 256
 10 338 23 316 48 316 c 256
 65 316 82 332 82 349 c 256
 82 397 120 430 165 430 c 256
 209 430 241 407 241 351 c 256
 241 321 223 299 187 289 c 256
 155 280 123 275 91 267 c 256
 38 255 0 199 0 134 c 256
 0 100 14 68 41 37 c 256
 68 7 101 -8 139 -8 c 256
 203 -8 252 25 276 105 c 257
 283 30 332 -8 385 -8 c 256
 437 -8 479 17 511 66 c 256
 539 110 553 159 553 214 c 256
NamedP: "hr00"
EndSplineSet
PickledDataWithLists: "(dp1
S'com.adobe.type.autohint'
p2
(S'data'
S'<data>\\n  <hintSetList>\\n    <hintset pointTag=\"hr00\">\\n      <hstem pos=\"-8\" width=\"75\"/>\\n      <hstem pos=\"402\" width=\"76\"/>\\n      <hstem pos=\"430\" width=\"43\"/>\\n      <vstem pos=\"0\" width=\"62\"/>\\n      <vstem pos=\"10\" width=\"72\"/>\\n      <vstem pos=\"241\" width=\"36\"/>\\n      <vstem pos=\"512\" width=\"41\"/>\\n    </hintset>\\n  </hintSetList>\\n  </data>'
Ntp3
s."
EndChar

StartChar: uni0C2D
Encoding: 159 3117 159
GlifName: uni0C2D_
Width: 683
VWidth: 0
Flags: W
LayerCount: 2
Back
Fore
SplineSet
314 -61 m 256
NamedP: "hr00"
 314 -46 309 -29 298 -10 c 256
 281 19 272 36 271 40 c 257
 268 35 259 20 246 -3 c 256
 232 -27 226 -45 226 -58 c 256
 226 -77 231 -92 242 -101 c 256
 250 -108 260 -111 271 -111 c 256
 300 -111 314 -94 314 -61 c 256
NamedP: "hr00"
381 472 m 257
 408 495 450 529 507 574 c 256
 591 641 633 677 633 684 c 256
 633 707 612 736 591 731 c 257
 586 729 555 700 499 643 c 256
 418 559 363 503 336 476 c 257
 323 492 300 521 272 564 c 256
 256 588 245 600 237 600 c 256
 206 600 184 572 184 547 c 256
 184 532 200 516 232 498 c 256
 285 467 320 445 336 432 c 257
 349 437 l 257
 449 437 506 377 506 240 c 256
 506 136 462 71 385 71 c 256
 320 71 303 139 292 174 c 256
 288 185 283 191 276 191 c 257
 261 165 245 138 228 111 c 257
 208 86 180 73 144 73 c 256
 96 73 62 108 62 163 c 256
 62 200 83 222 118 232 c 256
 145 239 172 244 198 251 c 256
 250 265 276 299 276 354 c 256
 276 426 223 473 154 473 c 256
 65 473 9 434 9 363 c 256
 9 334 20 314 45 314 c 256
 68 314 79 326 79 349 c 256
 79 388 109 430 162 430 c 256
 207 430 237 403 237 354 c 256
 237 307 210 286 159 277 c 258
 129 272 l 258
 114 269 102 266 93 263 c 256
 38 247 0 198 0 139 c 256
 0 54 59 -8 136 -8 c 256
 200 -8 252 24 275 104 c 257
 286 31 334 -8 381 -8 c 256
 442 -8 487 16 515 64 c 256
 538 103 548 154 548 215 c 256
 548 287 536 345 512 388 c 256
 485 436 442 464 381 472 c 257
EndSplineSet
PickledDataWithLists: "(dp1
S'com.adobe.type.autohint'
p2
(S'data'
S'<data>\\n  <hintSetList>\\n    <hintset pointTag=\"hr00\">\\n      <hstem pos=\"-8\" width=\"79\"/>\\n      <hstem pos=\"430\" width=\"43\"/>\\n      <hstem pos=\"437\" width=\"35\"/>\\n      <vstem pos=\"0\" width=\"62\"/>\\n      <vstem pos=\"9\" width=\"70\"/>\\n      <vstem pos=\"226\" width=\"88\"/>\\n      <vstem pos=\"237\" width=\"39\"/>\\n      <vstem pos=\"506\" width=\"42\"/>\\n    </hintset>\\n  </hintSetList>\\n  </data>'
Ntp3
s."
EndChar

StartChar: uni0C2E
Encoding: 160 3118 160
GlifName: uni0C2E_
Width: 915
VWidth: 0
Flags: W
LayerCount: 2
Back
Fore
SplineSet
550 189 m 258
NamedP: "hr00"
 562 370 457 473 312 473 c 258
 232 473 l 257
 252 495 288 525 340 564 c 256
 437 635 486 675 486 684 c 256
 486 712 466 731 446 731 c 256
 440 731 418 712 380 675 c 256
 256 552 188 484 175 472 c 257
 161 489 143 518 117 559 c 256
 104 580 92 590 83 590 c 256
 44 590 25 574 25 542 c 256
 25 527 42 507 78 487 c 258
 171 437 l 257
 292 437 l 258
 351 437 401 418 442 380 c 256
 483 342 504 289 504 222 c 256
 504 121 459 71 386 71 c 256
 345 71 312 88 289 122 c 257
 272 153 257 185 242 216 c 257
 235 235 223 251 204 262 c 256
 185 274 163 280 136 280 c 256
 52 280 0 220 0 144 c 256
 0 56 50 -8 134 -8 c 256
 195 -8 241 28 261 93 c 257
 300 26 346 -8 399 -8 c 256
 458 -8 502 25 531 88 c 257
 556 28 598 -8 655 -8 c 256
 711 -8 754 19 788 69 c 256
 817 113 833 159 833 209 c 256
 833 286 819 354 787 402 c 256
 755 450 708 474 649 474 c 256
 620 474 602 469 595 459 c 256
 592 454 591 446 591 434 c 256
 591 411 604 399 630 399 c 258
 666 399 l 258
 705 399 736 383 758 350 c 256
 781 317 792 280 792 237 c 256
 792 192 777 152 748 119 c 256
 719 86 683 70 642 70 c 256
 590 70 559 100 548 159 c 257
 550 189 l 258
NamedP: "hr00"
223 153 m 256
 223 105 181 65 136 65 c 256
 88 65 49 105 49 153 c 256
 49 204 88 246 136 246 c 256
 159 246 178 237 196 218 c 256
 213 200 223 178 223 153 c 256
EndSplineSet
PickledDataWithLists: "(dp1
S'com.adobe.type.autohint'
p2
(S'data'
S'<data>\\n  <hintSetList>\\n    <hintset pointTag=\"hr00\">\\n      <hstem pos=\"-8\" width=\"73\"/>\\n      <hstem pos=\"-8\" width=\"79\"/>\\n      <hstem pos=\"246\" width=\"34\"/>\\n      <hstem pos=\"399\" width=\"75\"/>\\n      <hstem pos=\"437\" width=\"36\"/>\\n      <vstem pos=\"0\" width=\"49\"/>\\n      <vstem pos=\"504\" width=\"46\"/>\\n      <vstem pos=\"792\" width=\"41\"/>\\n    </hintset>\\n  </hintSetList>\\n  </data>'
Ntp3
s."
EndChar

StartChar: uni0C2F
Encoding: 161 3119 161
GlifName: uni0C2F_
Width: 1126
VWidth: 0
Flags: W
LayerCount: 2
Back
Fore
SplineSet
684 607 m 258
NamedP: "hr00"
 743 654 773 681 773 687 c 256
 773 711 757 743 732 735 c 256
 728 734 697 705 640 646 c 256
 567 569 512 513 477 480 c 257
 415 566 l 258
 397 591 386 603 378 603 c 256
 349 603 327 576 327 551 c 256
 327 536 342 519 373 500 c 256
 436 463 471 442 478 437 c 257
 534 437 l 258
 595 437 641 421 671 388 c 257
 708 354 727 296 727 215 c 256
 727 127 669 71 586 71 c 256
 546 71 515 87 494 119 c 256
 473 151 463 190 463 235 c 256
 463 288 447 339 411 388 c 256
 369 446 307 474 228 474 c 256
 166 474 112 451 67 405 c 256
 22 359 0 303 0 237 c 256
 0 167 22 109 67 62 c 256
 112 15 168 -8 235 -8 c 256
 323 -8 404 47 441 127 c 257
 454 43 514 -8 579 -8 c 256
 648 -8 702 32 741 109 c 257
 762 33 803 -8 870 -8 c 256
 926 -8 971 18 1005 69 c 256
 1034 112 1049 159 1049 209 c 256
 1049 286 1033 355 1003 402 c 256
 971 451 924 474 866 474 c 256
 835 474 817 469 811 459 c 256
 808 454 806 445 806 434 c 256
 806 411 819 399 845 399 c 258
 881 399 l 258
 920 399 951 383 974 350 c 256
 997 317 1008 280 1008 237 c 256
 1008 192 993 152 963 119 c 256
 934 86 898 70 857 70 c 256
 801 70 768 114 761 178 c 257
 766 222 l 257
 766 305 748 366 713 406 c 256
 675 451 610 473 518 473 c 257
 684 607 l 258
NamedP: "hr00"
411 255 m 256
 411 204 393 161 358 126 c 256
 323 91 282 73 233 73 c 256
 184 73 142 91 107 126 c 256
 73 161 56 204 56 255 c 256
 56 308 73 352 107 389 c 256
 142 426 184 445 233 445 c 256
 282 445 323 426 358 388 c 256
 393 350 411 306 411 255 c 256
EndSplineSet
PickledDataWithLists: "(dp1
S'com.adobe.type.autohint'
p2
(S'data'
S'<data>\\n  <hintSetList>\\n    <hintset pointTag=\"hr00\">\\n      <hstem pos=\"-8\" width=\"81\"/>\\n      <hstem pos=\"-8\" width=\"78\"/>\\n      <hstem pos=\"399\" width=\"75\"/>\\n      <hstem pos=\"437\" width=\"36\"/>\\n      <hstem pos=\"445\" width=\"29\"/>\\n      <vstem pos=\"0\" width=\"56\"/>\\n      <vstem pos=\"411\" width=\"52\"/>\\n      <vstem pos=\"727\" width=\"39\"/>\\n      <vstem pos=\"1008\" width=\"41\"/>\\n    </hintset>\\n  </hintSetList>\\n  </data>'
Ntp3
s."
EndChar

